<?xml version="1.0" encoding="UTF-8"?>
<svg xmlns="http://www.w3.org/2000/svg" version="1.1" viewBox="0 0 1133.86 1133.86">
  <defs>
    <style>
      .cls-1 {
        fill: #b28c4f;
      }

      .cls-2 {
        stroke: #1d1d1b;
        stroke-width: .25px;
      }

      .cls-2, .cls-3 {
        fill: none;
        stroke-miterlimit: 10;
      }

      .cls-4 {
        fill: #4d4f53;
      }

      .cls-3 {
        stroke: #e52622;
        stroke-width: .5px;
      }
    </style>
  </defs>
  <!-- Generator: Adobe Illustrator 28.7.1, SVG Export Plug-In . SVG Version: 1.2.0 Build 142)  -->
  <g>
    <g id="madera">
      <path class="cls-2" d="M977.57,676.38h-28.29v83.61c0,13.5-11.42,29.72-23.11,36.47l-338.72,197.11c-11.69,6.75-30.78,7.65-42.03,0l-338.72-197.11c-12.13-5.86-22.01-22.97-22.01-36.47v-83.61h-29.06v-228.12h28.18v-83.61c0-13.5,11.42-29.72,23.12-36.47l338.71-197.11c11.69-6.75,30.78-7.64,42.03,0l338.72,197.11c12.14,5.86,22.01,22.97,22.01,36.47v83.61h29.17v228.12Z"/>
    </g>
    <g id="imanes">
      <circle class="cls-3" cx="212.32" cy="369.56" r="15.59"/>
      <circle class="cls-3" cx="920.98" cy="369.56" r="15.59"/>
      <circle class="cls-3" cx="212.32" cy="755.07" r="15.59"/>
      <circle class="cls-3" cx="920.98" cy="755.07" r="15.59"/>
      <circle class="cls-3" cx="566.65" cy="159.8" r="15.59"/>
      <circle class="cls-3" cx="566.65" cy="964.84" r="15.59"/>
    </g>
    <g id="_x31__-A_Industriosa">
      <path class="cls-1" d="M433.06,616.65l3.18-13.52h-61.32l-32.84,32.85h-71.46c-3.92-9.69-12.9-16.74-24.54-16.74-14.15,0-25.12,11.56-25.12,25.11s10.96,25.79,25.12,25.79c12.96,0,23.22-8.38,25.17-19.96h76.62l32.85-33.53h52.35Z"/>
      <path class="cls-1" d="M259.65,505.86h72.74l32.91,33.46h85.93l3.32-14.13h-82.77l-33.53-32.92h-77.33c-2.6-11.58-12.91-20.58-25.17-20.58-14.1,0-25.75,11.58-25.75,25.73s11.64,25.17,25.75,25.17c10.95,0,20.63-6.42,23.9-16.73"/>
      <path class="cls-1" d="M300.17,545.12c-14.1,0-25.73,11.6-25.73,25.82s11.63,25.78,25.73,25.78c11.64,0,21.96-7.8,24.54-18.75h117.43l3.33-14.15h-120.76c-2.58-10.94-12.9-18.69-24.54-18.69"/>
      <path class="cls-1" d="M751.69,617.27l32.85,33.53h76.62c1.95,11.58,12.21,19.96,25.17,19.96,14.15,0,25.12-11.64,25.12-25.79s-10.96-25.11-25.12-25.11c-11.64,0-20.62,7.05-24.54,16.74h-71.46l-32.84-32.85h-61.32l3.18,13.52h52.35Z"/>
      <path class="cls-1" d="M872.75,506.49c3.28,10.31,12.96,16.73,23.9,16.73,14.1,0,25.75-10.94,25.75-25.17s-11.64-25.73-25.75-25.73c-12.26,0-22.57,9-25.17,20.58h-77.33l-33.53,32.92h-82.77l3.32,14.13h85.93l32.91-33.46h72.74"/>
      <path class="cls-1" d="M832.23,545.74c-11.64,0-21.96,7.75-24.54,18.69h-120.76l3.33,14.15h117.43c2.58,10.95,12.9,18.75,24.54,18.75,14.1,0,25.73-11.65,25.73-25.78s-11.63-25.82-25.73-25.82"/>
      <path class="cls-4" d="M565.08,590.97l17.87,73.93h-35.27l17.4-73.93ZM523.51,768.32c4.52-19.33,6.76-29.15,6.76-29.47h69.6l.97.97,6.27,28.5h110.69l-96.67-409.33h-149.33l-16.91,73.94h36.74l-78.77,335.39h110.66Z"/>
    </g>
  </g>
</svg>