<?xml version="1.0" encoding="UTF-8"?>
<svg xmlns="http://www.w3.org/2000/svg" version="1.1" viewBox="0 0 1133.86 1133.86">
  <defs>
    <style>
      .cls-1 {
        stroke: #1d1d1b;
        stroke-width: .25px;
      }

      .cls-1, .cls-2, .cls-3 {
        fill: none;
        stroke-miterlimit: 10;
      }

      .cls-2 {
        stroke: #2a4b9b;
      }

      .cls-3 {
        stroke: #e52622;
        stroke-width: .5px;
      }
    </style>
  </defs>
  <!-- Generator: Adobe Illustrator 28.7.1, SVG Export Plug-In . SVG Version: 1.2.0 Build 142)  -->
  <g>
    <g id="madera">
      <path class="cls-1" d="M977.57,676.38h-28.29v83.61c0,13.5-11.42,29.72-23.11,36.47l-338.72,197.11c-11.69,6.75-30.78,7.65-42.03,0l-338.72-197.11c-12.13-5.86-22.01-22.97-22.01-36.47v-83.61h-29.06v-228.12h28.18v-83.61c0-13.5,11.42-29.72,23.12-36.47l338.71-197.11c11.69-6.75,30.78-7.64,42.03,0l338.72,197.11c12.14,5.86,22.01,22.97,22.01,36.47v83.61h29.17v228.12Z"/>
    </g>
    <g id="imanes">
      <circle class="cls-3" cx="212.32" cy="369.56" r="15.59"/>
      <circle class="cls-3" cx="920.98" cy="369.56" r="15.59"/>
      <circle class="cls-3" cx="212.32" cy="755.07" r="15.59"/>
      <circle class="cls-3" cx="920.98" cy="755.07" r="15.59"/>
      <circle class="cls-3" cx="566.65" cy="159.8" r="15.59"/>
      <circle class="cls-3" cx="566.65" cy="964.84" r="15.59"/>
    </g>
    <g id="_x32_-Gradiant">
      <g>
        <path class="cls-2" d="M913.73,502.93c-32.09-20.9-88.73,20.21-107.6,32.33-31.57,20.3-82.2,35.16-108.38,3.28,42.88,3.3,43.35-48.89,42.52-77.85-1.02-35.74,4.03-67.82,32.94-91.04-2.18,15.01-5.15,29.34,8.87,45.81,11.86,13.93,30.56,21.51,47.91,25.79,34.59,8.53,72.09,23.48,83.74,61.68"/>
        <path class="cls-2" d="M293.19,613.58c0-17.58-11.54-29.86-28.03-29.86s-28.21,12.46-28.39,29.86c.18,17.59,11.54,30.04,28.39,30.04s28.03-12.46,28.03-30.04M314.07,655.35c0,28.03-19.97,45.62-50.56,45.62-15.21,0-28.58-4.76-40.49-12.82l8.98-15.21c9.16,6.78,18.69,10.62,30.59,10.62,18.5,0,30.59-10.8,30.59-27.66v-12.28c-6.6,10.63-17.59,16.49-32.24,16.49-26.38,0-43.96-19.05-43.96-47.09s17.4-46.16,43.23-46.35c15.02-.18,26.19,5.86,32.97,16.49v-15.76h20.88v87.93Z"/>
        <path class="cls-2" d="M352.56,586.84c6.59-13.19,18.32-20.15,33.71-20.15v20.15c-19.6-1.1-32.06,10.44-33.71,27.11v50.92h-21.07v-97.46h21.07v19.42Z"/>
        <path class="cls-2" d="M458.07,630.62v-8.98h-26.38c-13.74,0-20.15,3.66-20.15,13.01,0,8.8,7.14,14.48,18.87,14.48,15.02,0,26.56-7.88,27.66-18.51M458.25,652.97c-6.96,8.61-18.14,12.82-32.25,12.82-21.06,0-34.25-13-34.25-30.23s13.37-29.12,36.82-29.31h29.5v-2.93c0-12.28-7.88-19.6-23.27-19.6-9.34,0-19.05,3.3-28.76,9.89l-8.61-14.65c13.56-8.07,23.45-12.28,41.95-12.28,25.1,0,39.2,12.82,39.39,34.26l.18,63.93h-20.7v-11.91Z"/>
        <path class="cls-2" d="M572.16,616.51c0-18.86-12.27-32.05-29.85-32.05s-29.86,13.37-30.04,32.05c.18,18.51,12.27,31.7,30.04,31.7s29.85-13.19,29.85-31.7M593.24,664.88h-21.07v-16.67c-6.96,11.36-18.69,17.58-34.25,17.58-28.03,0-46.71-20.33-46.71-50.01s18.86-49.28,46.35-49.28c15.76,0,27.48,6.41,34.62,17.77v-55.33h21.07v135.93Z"/>
        <path class="cls-2" d="M610.01,567.42h20.88v97.46h-20.88v-97.46ZM632.72,539.57c0,7.33-5.31,12.64-12.27,12.64s-12.28-5.31-12.28-12.64,5.32-12.82,12.28-12.82,12.27,5.32,12.27,12.82"/>
        <path class="cls-2" d="M710.09,630.62v-8.98h-26.38c-13.74,0-20.15,3.66-20.15,13.01,0,8.8,7.14,14.48,18.87,14.48,15.02,0,26.56-7.88,27.66-18.51M710.27,652.97c-6.96,8.61-18.14,12.82-32.25,12.82-21.06,0-34.25-13-34.25-30.23s13.37-29.12,36.82-29.31h29.5v-2.93c0-12.28-7.88-19.6-23.27-19.6-9.34,0-19.05,3.3-28.76,9.89l-8.61-14.65c13.56-8.07,23.45-12.28,41.95-12.28,25.1,0,39.2,12.82,39.39,34.26l.18,63.93h-20.7v-11.91Z"/>
        <path class="cls-2" d="M911.99,658.65c-7.69,4.58-15.76,7.14-24,7.14-14.65,0-27.29-8.42-27.29-28.39v-50.56h-13.74v-15.76h13.74v-26.75h20.88v26.75h28.76v15.76h-28.76v46.71c0,10.07,3.84,13.19,10.44,13.19,4.4,0,8.98-1.46,14.65-4.21l5.32,16.12Z"/>
        <path class="cls-2" d="M837.62,587.5c-.53-1.37-1.11-2.7-1.79-3.95-5.11-9.46-14.22-15.32-26.48-16.58-.11-.02-.22-.05-.33-.06-.58-.08-1.13-.08-1.7-.13-16.77-1.37-26.52,13.53-60.04,14.57v83.53h21.07v-51.85c1.46-15.2,11.54-26.37,27.66-26.56,14.66,0,23.45,8.98,23.45,23.63v54.77h21.07v-60.63c0-6.28-1.02-11.88-2.91-16.74"/>
      </g>
    </g>
  </g>
</svg>