<?xml version="1.0" encoding="UTF-8"?>
<svg xmlns="http://www.w3.org/2000/svg" version="1.1" viewBox="0 0 1133.86 1133.86">
  <defs>
    <style>
      .cls-1 {
        stroke: #1d1d1b;
        stroke-width: .25px;
      }

      .cls-1, .cls-2, .cls-3 {
        fill: none;
        stroke-miterlimit: 10;
      }

      .cls-2 {
        stroke: #e52622;
        stroke-width: .5px;
      }

      .cls-4 {
        fill: #002777;
      }

      .cls-5 {
        fill: #259e38;
      }

      .cls-6 {
        display: none;
      }

      .cls-3 {
        stroke: #184597;
      }
    </style>
  </defs>
  <!-- Generator: Adobe Illustrator 28.7.1, SVG Export Plug-In . SVG Version: 1.2.0 Build 142)  -->
  <g>
    <g id="madera">
      <path class="cls-1" d="M977.57,676.38h-28.29v83.61c0,13.5-11.42,29.72-23.11,36.47l-338.72,197.11c-11.69,6.75-30.78,7.65-42.03,0l-338.72-197.11c-12.13-5.86-22.01-22.97-22.01-36.47v-83.61h-29.06v-228.12h28.18v-83.61c0-13.5,11.42-29.72,23.12-36.47l338.71-197.11c11.69-6.75,30.78-7.64,42.03,0l338.72,197.11c12.14,5.86,22.01,22.97,22.01,36.47v83.61h29.17v228.12Z"/>
    </g>
    <g id="imanes">
      <circle class="cls-2" cx="212.32" cy="369.56" r="15.59"/>
      <circle class="cls-2" cx="920.98" cy="369.56" r="15.59"/>
      <circle class="cls-2" cx="212.32" cy="755.07" r="15.59"/>
      <circle class="cls-2" cx="920.98" cy="755.07" r="15.59"/>
      <circle class="cls-2" cx="566.65" cy="159.8" r="15.59"/>
      <circle class="cls-2" cx="566.65" cy="964.84" r="15.59"/>
    </g>
    <g id="_x33_-_Cardama_corte">
      <g>
        <path class="cls-3" d="M340.9,626.47c-2.66-1.67-5.93-2.94-9.81-3.83-3.88-.89-8.09-1.33-12.63-1.33-6.88,0-13.12,1.19-18.71,3.57-5.6,2.38-10.39,5.68-14.38,9.89-3.99,4.22-7.06,9.28-9.22,15.22-2.17,5.93-3.25,12.44-3.25,19.54,0,9.09,2.58,16.45,7.74,22.1,5.15,5.65,12.77,8.49,22.85,8.49,4.21,0,8.38-.39,12.47-1.17,4.1-.77,8.09-1.94,11.97-3.49l-2.16,17.95c-4.44,1.67-9.29,2.83-14.55,3.5-5.27.66-10.22,1-14.88,1-7.65,0-14.5-1.2-20.54-3.58-6.04-2.38-11.17-5.65-15.38-9.81-4.21-4.15-7.43-8.94-9.64-14.38-2.22-5.43-3.33-11.25-3.33-17.46,0-11.3,1.86-21.28,5.57-29.93,3.71-8.65,8.76-15.88,15.14-21.7,6.36-5.82,13.8-10.2,22.28-13.14,8.48-2.93,17.54-4.41,27.19-4.41,7.2,0,13.3.58,18.27,1.75,5,1.16,8.66,2.19,10.98,3.07l-5.99,18.13Z"/>
        <path class="cls-3" d="M415.9,686.49c-1.55,6.76-2.57,12.58-3.08,17.45-.49,4.88-.8,8.93-.91,12.14h-23.44c.22-2.1.65-4.92,1.25-8.48.61-3.55,1.25-7.26,1.92-11.14-1.56,2.66-3.33,5.29-5.33,7.9-2,2.6-4.29,4.9-6.9,6.9-2.61,2-5.55,3.6-8.81,4.82-3.27,1.22-6.96,1.83-11.06,1.83-8.42,0-14.74-2.5-18.95-7.48-4.22-4.98-6.32-11.36-6.32-19.12,0-9.31,1.91-17.7,5.73-25.19,3.83-7.47,8.82-13.85,14.97-19.12,6.14-5.26,13.1-9.28,20.86-12.06,7.76-2.76,15.64-4.15,23.6-4.15,2.45,0,5,.11,7.66.33,2.66.22,5.24.49,7.73.83,2.49.34,4.85.73,7.07,1.16,2.21.45,4.05.95,5.49,1.5l-11.48,51.88ZM398.44,646.25c-1.12-.11-2.22-.16-3.32-.16-4.77,0-9.37,1.17-13.8,3.51-4.43,2.34-8.33,5.49-11.72,9.45-3.39,3.95-6.07,8.53-8.07,13.72-1.99,5.19-2.99,10.56-2.99,16.14,0,3.79.81,7.02,2.41,9.7,1.61,2.68,4.57,4.01,8.89,4.01,2.88,0,5.71-.94,8.48-2.84,2.78-1.9,5.38-4.46,7.82-7.69,2.43-3.23,4.59-7.05,6.48-11.45,1.88-4.41,3.43-9.12,4.65-14.14l4.5-19.4c-1.11-.45-2.22-.73-3.33-.84Z"/>
        <path class="cls-3" d="M485.55,652.57c-1.99-.77-4.26-1.16-6.82-1.16-3.77,0-7.15.83-10.14,2.49-2.99,1.67-5.58,3.83-7.74,6.49-2.16,2.66-3.96,5.65-5.41,8.97-1.43,3.33-2.49,6.66-3.16,9.98l-7.81,36.74h-23.11l13.79-64.84c.67-3.1,1.31-6.18,1.91-9.23.61-3.05,1.08-6.12,1.42-9.23h21.62l-3.17,17.12c1.33-2.54,2.94-4.98,4.83-7.31,1.88-2.33,3.98-4.35,6.31-6.07,2.33-1.72,4.85-3.1,7.57-4.15,2.71-1.05,5.57-1.58,8.56-1.58,1.22,0,2.35.06,3.4.16,1.05.12,2.14.34,3.25.67l-5.32,20.95Z"/>
        <path class="cls-3" d="M562.32,692.8c-1,4.77-1.81,8.98-2.41,12.64-.61,3.65-1.19,7.2-1.75,10.64h-21.28l2.16-14.29c-7.54,10.75-17.4,16.12-29.59,16.12-5.1,0-9.37-.88-12.8-2.66-3.44-1.77-6.19-4.04-8.24-6.82-2.04-2.77-3.51-5.82-4.4-9.15-.89-3.32-1.33-6.59-1.33-9.8,0-8.09,1.13-15.68,3.41-22.78,2.27-7.09,5.4-13.3,9.4-18.62,3.99-5.32,8.7-9.5,14.12-12.55,5.43-3.05,11.31-4.58,17.62-4.58,5.55,0,10.33,1.27,14.39,3.79,4.05,2.52,6.68,6.04,7.9,10.53l10.47-49.05h22.95l-20.61,96.6ZM545.2,662.98c0-2.13-.22-4.21-.67-6.28-.45-2.06-1.17-3.84-2.16-5.35-1-1.51-2.34-2.73-3.99-3.68-1.66-.95-3.71-1.43-6.15-1.43-4.54,0-8.43,1.4-11.65,4.18-3.21,2.79-5.82,6.22-7.81,10.28-1.99,4.07-3.46,8.43-4.4,13.05-.94,4.63-1.41,8.78-1.41,12.46,0,4.46.97,8.31,2.92,11.54,1.94,3.23,5.4,4.85,10.39,4.85,4.32,0,8.02-1.39,11.13-4.18,3.1-2.79,5.68-6.24,7.74-10.37,2.04-4.13,3.58-8.46,4.57-12.97,1-4.51,1.5-8.56,1.5-12.12Z"/>
        <path class="cls-3" d="M651.76,686.49c-1.55,6.76-2.57,12.58-3.07,17.45-.51,4.88-.81,8.93-.92,12.14h-23.44c.22-2.1.64-4.92,1.25-8.48.61-3.55,1.25-7.26,1.91-11.14-1.55,2.66-3.32,5.29-5.3,7.9-2,2.6-4.3,4.9-6.91,6.9-2.6,2-5.54,3.6-8.81,4.82-3.28,1.22-6.96,1.83-11.06,1.83-8.42,0-14.74-2.5-18.95-7.48-4.22-4.98-6.32-11.36-6.32-19.12,0-9.31,1.91-17.7,5.73-25.19,3.82-7.47,8.81-13.85,14.96-19.12,6.16-5.26,13.11-9.28,20.87-12.06,7.75-2.76,15.62-4.15,23.61-4.15,2.44,0,4.99.11,7.65.33,2.65.22,5.23.49,7.72.83,2.5.34,4.85.73,7.08,1.16,2.21.45,4.04.95,5.48,1.5l-11.47,51.88ZM634.31,646.25c-1.11-.11-2.22-.16-3.33-.16-4.76,0-9.37,1.17-13.79,3.51-4.44,2.34-8.35,5.49-11.73,9.45-3.38,3.95-6.07,8.53-8.06,13.72-2,5.19-2.99,10.56-2.99,16.14,0,3.79.8,7.02,2.41,9.7,1.6,2.68,4.57,4.01,8.89,4.01,2.89,0,5.71-.94,8.49-2.84,2.77-1.9,5.37-4.46,7.82-7.69,2.43-3.23,4.59-7.05,6.48-11.45,1.88-4.41,3.43-9.12,4.65-14.14l4.5-19.4c-1.12-.45-2.22-.73-3.33-.84Z"/>
        <path class="cls-3" d="M793.21,651.4c0,1.78-.16,3.55-.49,5.32-.33,1.78-.67,3.55-.99,5.33l-11.3,54.03h-22.95l11.14-53.16c.55-2.55.83-4.89.83-7.01,0-6.43-3.33-9.66-9.98-9.66-2.88,0-5.46.7-7.73,2.09-2.27,1.39-4.25,3.14-5.9,5.25-1.66,2.11-3.06,4.48-4.16,7.09-1.1,2.61-1.88,5.14-2.32,7.58l-9.97,47.83h-22.95l11.14-53.16c.55-2.55.82-4.89.82-7.01,0-3.44-.82-5.91-2.49-7.41-1.67-1.5-4.16-2.25-7.48-2.25-2.88,0-5.42.7-7.64,2.09-2.22,1.39-4.16,3.17-5.81,5.33-1.67,2.17-3.06,4.53-4.17,7.09-1.1,2.56-1.88,5.06-2.32,7.5l-9.98,47.83h-23.11l13.64-64.84c.67-3.1,1.27-6.18,1.84-9.23.54-3.05.99-6.18,1.33-9.39h21.62l-2.34,14.46c3.88-5.66,8.09-9.75,12.64-12.3,4.55-2.55,10.25-3.83,17.12-3.83,2.67,0,5.18.37,7.56,1.09,2.39.72,4.5,1.8,6.31,3.24,1.83,1.44,3.33,3.22,4.5,5.32,1.16,2.1,1.8,4.54,1.91,7.32,3.33-5.32,7.48-9.48,12.47-12.47,4.99-3,10.64-4.5,16.96-4.5s11.88,1.7,16.04,5.07c4.16,3.38,6.23,8.51,6.23,15.38Z"/>
        <path class="cls-3" d="M873.65,686.49c-1.55,6.76-2.58,12.58-3.08,17.45-.49,4.88-.81,8.93-.91,12.14h-23.44c.22-2.1.64-4.92,1.25-8.48.6-3.55,1.24-7.26,1.91-11.14-1.56,2.66-3.33,5.29-5.33,7.9-2,2.6-4.3,4.9-6.9,6.9-2.6,2-5.54,3.6-8.81,4.82-3.26,1.22-6.96,1.83-11.05,1.83-8.42,0-14.75-2.5-18.96-7.48-4.21-4.98-6.32-11.36-6.32-19.12,0-9.31,1.91-17.7,5.74-25.19,3.82-7.47,8.81-13.85,14.96-19.12,6.15-5.26,13.11-9.28,20.87-12.06,7.76-2.76,15.62-4.15,23.6-4.15,2.44,0,4.99.11,7.65.33,2.67.22,5.24.49,7.74.83,2.49.34,4.84.73,7.07,1.16,2.21.45,4.05.95,5.48,1.5l-11.47,51.88ZM856.19,646.25c-1.11-.11-2.22-.16-3.33-.16-4.76,0-9.36,1.17-13.8,3.51-4.43,2.34-8.34,5.49-11.71,9.45-3.39,3.95-6.08,8.53-8.07,13.72-2,5.19-2.99,10.56-2.99,16.14,0,3.79.8,7.02,2.41,9.7,1.6,2.68,4.58,4.01,8.9,4.01,2.88,0,5.7-.94,8.48-2.84,2.76-1.9,5.38-4.46,7.81-7.69,2.44-3.23,4.6-7.05,6.48-11.45,1.89-4.41,3.44-9.12,4.67-14.14l4.48-19.4c-1.12-.45-2.22-.73-3.33-.84Z"/>
      </g>
    </g>
    <g id="_x33_-_Cardama_Grabado">
      <g>
        <path class="cls-5" d="M416.41,765.03l-1.33-8.07h-14.01l-4.78,8.07h-3.59l17.79-29.58h4.13l5.3,29.58h-3.49ZM412.02,738.3l-9.4,15.87h12.07l-2.67-15.87Z"/>
        <path class="cls-5" d="M438.05,746.19c-.72-.36-1.45-.64-2.24-.85-.78-.2-1.59-.31-2.41-.31-.56,0-1.15.06-1.78.18-.62.12-1.18.32-1.68.6-.5.27-.93.66-1.26,1.13-.34.47-.5,1.04-.5,1.73,0,.62.21,1.14.64,1.59.42.45.96.87,1.59,1.29.63.41,1.32.84,2.06,1.26.73.43,1.42.91,2.06,1.44.63.53,1.17,1.16,1.59,1.88.43.73.65,1.58.65,2.55,0,1.22-.29,2.25-.84,3.1-.56.85-1.28,1.57-2.16,2.12-.87.56-1.84.97-2.91,1.22-1.08.26-2.14.38-3.17.38s-2.03-.07-2.97-.22c-.94-.15-1.9-.42-2.84-.8l.94-2.88c.8.47,1.6.82,2.39,1.04.8.23,1.67.34,2.62.34.63,0,1.27-.08,1.93-.22.67-.15,1.28-.39,1.82-.71.55-.33,1-.75,1.36-1.26.35-.52.53-1.15.53-1.89s-.2-1.36-.62-1.88c-.41-.52-.94-.99-1.58-1.42-.63-.42-1.32-.84-2.06-1.26-.73-.41-1.42-.87-2.06-1.37-.64-.5-1.16-1.09-1.57-1.76-.41-.66-.62-1.47-.62-2.41,0-1.12.27-2.08.8-2.88.53-.79,1.23-1.45,2.06-1.94.84-.51,1.77-.88,2.77-1.11,1.01-.24,2-.36,2.98-.36.86,0,1.76.09,2.73.27.95.18,1.85.43,2.68.76l-.88,2.66Z"/>
        <path class="cls-5" d="M454.68,745.53h-4.88l-2.75,12.85c-.09.45-.16.86-.2,1.23-.05.38-.06.8-.06,1.3,0,.74.2,1.24.58,1.51.4.27.92.4,1.53.4.45,0,.89-.06,1.34-.18.45-.11.88-.27,1.33-.44l-.31,2.71c-1.09.41-2.32.62-3.67.62-1.16,0-2.12-.34-2.9-1.02-.79-.68-1.18-1.68-1.18-3.02,0-.58.03-1.14.07-1.66.05-.51.14-1.07.29-1.66l2.71-12.64h-4.13l.58-2.57h4.08l1.02-4.96,3.51-1.12-1.24,6.08h4.83l-.53,2.57Z"/>
        <path class="cls-5" d="M459.1,765.03h-3.23l4.6-22.08h3.28l-4.66,22.08ZM464.79,738.03h-3.37l.8-3.86h3.32l-.75,3.86Z"/>
        <path class="cls-5" d="M469.03,765.03h-3.23l6.78-31.96h3.23l-6.79,31.96Z"/>
        <path class="cls-5" d="M479.5,765.03h-3.23l6.79-31.96h3.24l-6.79,31.96Z"/>
        <path class="cls-5" d="M506.68,747.21c0,1.22-.26,2.25-.75,3.11-.51.85-1.17,1.58-2,2.15-.83.57-1.78,1.04-2.84,1.38-1.06.33-2.18.59-3.33.77-1.16.18-2.29.3-3.43.34-1.14.04-2.18.07-3.13.07-.15.44-.26.94-.34,1.5-.07.56-.11,1.1-.11,1.6,0,1.61.44,2.81,1.33,3.64.89.83,2.13,1.24,3.72,1.24,1,0,2.05-.15,3.14-.45,1.1-.29,2.08-.71,2.93-1.24l.22,2.7c-1.03.53-2.17.91-3.41,1.15-1.24.24-2.46.36-3.63.36s-2.15-.15-3.09-.44c-.93-.3-1.74-.74-2.41-1.35-.69-.61-1.22-1.36-1.6-2.25-.39-.88-.58-1.91-.58-3.1,0-2.07.37-4.05,1.13-5.98.75-1.92,1.75-3.62,3.01-5.08,1.26-1.46,2.69-2.63,4.3-3.5,1.61-.86,3.29-1.31,5.03-1.31.78,0,1.51.09,2.2.27.69.18,1.31.46,1.84.84.53.39.96.88,1.29,1.46.33.59.49,1.3.49,2.12ZM503.54,747.48c0-1-.33-1.68-1-2.02-.66-.33-1.42-.51-2.28-.51-1.01,0-1.95.24-2.84.73-.89.49-1.7,1.11-2.44,1.87-.74.76-1.37,1.58-1.92,2.48-.55.9-.99,1.78-1.31,2.64,1.22,0,2.51-.06,3.88-.16,1.37-.1,2.65-.33,3.84-.69,1.18-.36,2.15-.87,2.92-1.55.77-.68,1.16-1.6,1.16-2.79Z"/>
        <path class="cls-5" d="M522.9,745.92c-.53-.18-1.09-.26-1.68-.26-1.09,0-2.05.27-2.86.82-.81.55-1.51,1.24-2.09,2.08-.57.84-1.04,1.76-1.41,2.75-.37.99-.64,1.94-.82,2.86l-2.31,10.86h-3.24l3.59-16.89c.17-.86.35-1.72.51-2.6.16-.87.29-1.74.37-2.59h3.02l-.79,4.3c.29-.59.69-1.17,1.17-1.73.49-.56,1.04-1.06,1.64-1.51.61-.45,1.24-.81,1.93-1.09.69-.28,1.36-.42,2.04-.42.32,0,.62.01.91.02.28.02.58.07.9.16l-.89,3.23Z"/>
        <path class="cls-5" d="M544.77,750.4c0,1.89-.29,3.75-.86,5.56-.58,1.82-1.42,3.44-2.53,4.86-1.11,1.41-2.46,2.55-4.06,3.41-1.6.86-3.44,1.29-5.5,1.29-1.13,0-2.18-.19-3.17-.57-.99-.39-1.85-.94-2.57-1.65-.72-.71-1.3-1.55-1.71-2.5-.42-.96-.62-2.02-.62-3.18,0-1.94.29-3.83.84-5.65.56-1.82,1.4-3.43,2.49-4.83,1.09-1.4,2.44-2.53,4.06-3.36,1.61-.85,3.46-1.27,5.57-1.27,1.11,0,2.17.2,3.17.58.98.38,1.85.93,2.58,1.63.71.71,1.28,1.55,1.7,2.51.41.96.62,2.02.62,3.17ZM541.44,751.29c0-1.83-.45-3.32-1.35-4.45-.9-1.14-2.33-1.7-4.28-1.7-1.41,0-2.67.37-3.74,1.11-1.08.73-1.99,1.68-2.73,2.81-.73,1.14-1.3,2.39-1.67,3.75-.39,1.36-.58,2.66-.58,3.9,0,1.8.41,3.28,1.22,4.43.82,1.15,2.2,1.73,4.15,1.73,1.36,0,2.6-.38,3.72-1.13,1.12-.75,2.07-1.7,2.84-2.83.76-1.14,1.36-2.39,1.79-3.75.43-1.35.64-2.64.64-3.85Z"/>
        <path class="cls-5" d="M562.81,746.19c-.71-.36-1.46-.64-2.24-.85-.78-.2-1.57-.31-2.41-.31-.56,0-1.15.06-1.77.18-.62.12-1.18.32-1.68.6-.5.27-.93.66-1.27,1.13-.34.47-.51,1.04-.51,1.73,0,.62.22,1.14.64,1.59.43.45.96.87,1.6,1.29.63.41,1.32.84,2.06,1.26.75.43,1.43.91,2.06,1.44.64.53,1.17,1.16,1.6,1.88.42.73.64,1.58.64,2.55,0,1.22-.28,2.25-.84,3.1-.56.85-1.28,1.57-2.16,2.12-.86.56-1.84.97-2.92,1.22-1.08.26-2.14.38-3.17.38s-2.02-.07-2.97-.22c-.95-.15-1.89-.42-2.83-.8l.94-2.88c.79.47,1.59.82,2.39,1.04.8.23,1.67.34,2.61.34.62,0,1.26-.08,1.93-.22.67-.15,1.27-.39,1.82-.71.54-.33,1-.75,1.35-1.26.34-.52.53-1.15.53-1.89s-.2-1.36-.62-1.88c-.41-.52-.94-.99-1.58-1.42-.63-.42-1.32-.84-2.05-1.26-.74-.41-1.43-.87-2.06-1.37-.64-.5-1.16-1.09-1.58-1.76-.41-.66-.62-1.47-.62-2.41,0-1.12.27-2.08.8-2.88.53-.79,1.22-1.45,2.05-1.94.85-.51,1.77-.88,2.77-1.11,1.01-.24,2-.36,2.97-.36.86,0,1.77.09,2.73.27.96.18,1.85.43,2.69.76l-.89,2.66Z"/>
        <path class="cls-5" d="M565.56,765.03h-3.07l14.68-29.58h3.05l-14.67,29.58Z"/>
        <path class="cls-5" d="M597.43,739c-.68-.35-1.51-.64-2.51-.88-.99-.23-1.91-.36-2.77-.36-.76,0-1.58.11-2.44.33-.85.23-1.65.56-2.35,1.02-.71.46-1.3,1.04-1.78,1.74-.47.69-.71,1.51-.71,2.46,0,.8.26,1.49.78,2.09.52.59,1.16,1.16,1.96,1.71.78.54,1.62,1.09,2.54,1.64.91.54,1.76,1.15,2.55,1.83.79.68,1.44,1.48,1.95,2.38.52.91.78,1.97.78,3.21,0,1.33-.27,2.57-.8,3.73-.53,1.15-1.29,2.14-2.28,2.97-.99.82-2.19,1.48-3.62,1.95-1.42.47-3.03.71-4.83.71-1.19,0-2.34-.09-3.47-.26-1.13-.18-2.2-.51-3.23-.98l1.02-3.15c.62.39,1.47.75,2.55,1.11,1.08.36,2.23.52,3.48.49,1.07-.03,2.05-.17,2.97-.46.92-.29,1.72-.69,2.39-1.22.68-.53,1.22-1.18,1.63-1.94.39-.76.59-1.65.59-2.66,0-.92-.26-1.72-.77-2.37-.52-.67-1.17-1.29-1.94-1.86-.79-.58-1.63-1.13-2.55-1.66-.92-.54-1.77-1.13-2.55-1.78-.79-.65-1.43-1.38-1.95-2.2-.52-.82-.78-1.8-.78-2.95,0-1.39.3-2.63.91-3.7.61-1.08,1.41-1.98,2.43-2.7,1.02-.72,2.22-1.27,3.6-1.64,1.37-.38,2.84-.55,4.41-.55,1,0,2,.09,2.99.26.99.18,1.89.44,2.73.8l-.93,2.92Z"/>
        <path class="cls-5" d="M619.65,748.01c0,.36,0,.66-.03.9-.01.26-.04.52-.08.78-.05.27-.09.57-.16.91-.05.34-.14.78-.25,1.3l-2.79,13.13h-3.24l2.79-13.17c.12-.5.2-1,.24-1.51.05-.5.06-.98.06-1.41,0-1.09-.28-2.01-.86-2.74-.58-.72-1.53-1.08-2.86-1.08-1.15,0-2.16.22-3.01.66-.85.44-1.59,1.04-2.2,1.77-.61.74-1.1,1.59-1.51,2.55-.4.96-.7,1.96-.9,2.99l-2.54,11.93h-3.23l6.78-31.96h3.15l-2.97,13.56c1.03-1.36,2.16-2.39,3.4-3.08,1.22-.7,2.66-1.04,4.32-1.04s3.13.5,4.23,1.49c1.11.99,1.66,2.33,1.66,4.01Z"/>
        <path class="cls-5" d="M626.04,765.03h-3.24l4.61-22.08h3.28l-4.65,22.08ZM631.7,738.03h-3.36l.79-3.86h3.32l-.75,3.86Z"/>
        <path class="cls-5" d="M654.14,750.76c0,1.68-.25,3.4-.75,5.14-.5,1.75-1.25,3.33-2.24,4.75-1,1.42-2.21,2.59-3.69,3.5-1.45.92-3.15,1.38-5.07,1.38-1.68,0-2.97-.4-3.88-1.22-.9-.82-1.51-1.76-1.84-2.85l-2.79,13.16h-3.23l5.14-24.25c.27-1.24.51-2.48.73-3.71.22-1.22.43-2.45.64-3.7h3.1l-.71,4.04c.86-1.39,1.95-2.48,3.3-3.28,1.35-.8,2.87-1.2,4.55-1.2,1.3,0,2.38.22,3.26.67.88.44,1.57,1.04,2.09,1.8.51.76.88,1.63,1.09,2.63.2,1.01.3,2.06.3,3.15ZM650.77,750.76c0-.8-.08-1.54-.2-2.22-.14-.68-.37-1.27-.71-1.77-.34-.5-.82-.9-1.42-1.19-.61-.3-1.37-.44-2.28-.44-1.13,0-2.13.29-3.02.88-.88.59-1.67,1.33-2.32,2.24-.67.91-1.23,1.89-1.68,2.95-.44,1.07-.75,2.07-.93,3.01-.17.92-.27,1.89-.28,2.91-.02,1.02.11,1.95.4,2.8.29.84.73,1.54,1.36,2.1.6.56,1.47.84,2.57.84,1.44,0,2.7-.4,3.76-1.2,1.07-.8,1.95-1.79,2.65-2.99.69-1.2,1.21-2.51,1.55-3.93.33-1.42.52-2.75.55-3.99Z"/>
        <path class="cls-5" d="M663.63,768.85c-.51.94-1.01,1.79-1.54,2.55-.51.75-1.07,1.41-1.67,1.97-.61.56-1.27.99-2,1.28-.72.3-1.53.45-2.46.45-.53,0-.98-.03-1.33-.09-.36-.06-.78-.15-1.28-.27l.84-2.7c.3.11.59.22.91.29.31.07.63.11.96.11.47,0,.91-.09,1.32-.29.42-.19.8-.44,1.16-.75.36-.31.67-.67.95-1.07.28-.4.52-.79.73-1.17l1.79-3.46-3.11-22.75h3.5l2.11,19.11,9.59-19.11h3.51l-13.97,25.9Z"/>
        <path class="cls-5" d="M696.39,755.28c-.47,2.07-.81,3.95-1.02,5.63-.21,1.69-.3,3.06-.27,4.13h-3.19c.03-.59.1-1.41.22-2.44.11-1.03.29-2.17.53-3.42-.33.65-.74,1.34-1.27,2.08-.52.74-1.13,1.43-1.86,2.06-.72.64-1.57,1.16-2.55,1.58-.98.41-2.07.62-3.28.62-.98,0-1.84-.17-2.57-.51-.75-.35-1.36-.82-1.87-1.45-.51-.61-.88-1.35-1.14-2.19-.25-.85-.38-1.76-.38-2.77,0-2.16.42-4.22,1.27-6.17.84-1.95,1.99-3.66,3.41-5.14,1.44-1.48,3.1-2.65,5.01-3.52,1.91-.87,3.92-1.31,6.05-1.31,1.01,0,2.02.07,3.04.2,1.02.13,1.87.32,2.54.55l-2.7,12.06ZM694.09,745.15c-.45-.04-.88-.07-1.33-.07-1.65,0-3.18.4-4.59,1.2-1.4.8-2.63,1.82-3.67,3.09-1.05,1.25-1.87,2.67-2.46,4.25-.59,1.58-.89,3.14-.89,4.68,0,.62.06,1.2.17,1.75.13.54.32,1.04.6,1.46.28.43.66.76,1.15,1,.49.24,1.1.36,1.85.36.89,0,1.79-.27,2.7-.83.91-.54,1.77-1.29,2.58-2.25.79-.96,1.51-2.07,2.15-3.34.63-1.27,1.1-2.65,1.44-4.13l1.6-6.87c-.42-.14-.85-.25-1.29-.29Z"/>
        <path class="cls-5" d="M715.59,745.92c-.53-.18-1.09-.26-1.69-.26-1.1,0-2.05.27-2.86.82-.81.55-1.52,1.24-2.09,2.08-.58.84-1.05,1.76-1.42,2.75-.37.99-.65,1.94-.82,2.86l-2.31,10.86h-3.23l3.59-16.89c.18-.86.35-1.72.52-2.6.15-.87.29-1.74.37-2.59h3.02l-.81,4.3c.3-.59.69-1.17,1.17-1.73.49-.56,1.04-1.06,1.65-1.51.6-.45,1.24-.81,1.93-1.09.67-.28,1.36-.42,2.03-.42.32,0,.63.01.91.02.28.02.58.07.91.16l-.89,3.23Z"/>
        <path class="cls-5" d="M734.56,758.02c-.26,1.21-.49,2.4-.68,3.55-.19,1.14-.38,2.3-.56,3.46h-2.96l.49-3.59c-.98,1.38-2.12,2.41-3.44,3.08-1.32.66-2.73.99-4.24.99-1.12,0-2.11-.21-2.95-.62-.84-.42-1.54-.98-2.11-1.69-.57-.71-.99-1.54-1.26-2.48-.28-.95-.43-1.96-.43-3.02,0-2.04.29-3.98.87-5.82.57-1.83,1.38-3.44,2.42-4.82,1.03-1.4,2.25-2.5,3.65-3.33,1.41-.82,2.94-1.24,4.59-1.24.68,0,1.35.09,1.99.27.65.18,1.25.44,1.8.8.54.36,1.01.79,1.38,1.31.36.51.59,1.1.68,1.75l2.89-13.56h3.19l-5.33,24.95ZM732.66,750.8c0-.74-.08-1.45-.23-2.13-.15-.69-.39-1.29-.75-1.82-.35-.53-.81-.96-1.39-1.27-.58-.31-1.29-.46-2.1-.46-1.49,0-2.75.41-3.8,1.23-1.04.83-1.92,1.86-2.59,3.08-.69,1.23-1.17,2.56-1.51,3.99-.33,1.44-.49,2.76-.49,3.97,0,.76.09,1.49.25,2.14.16.67.43,1.25.78,1.74.36.49.82.87,1.4,1.14.58.28,1.3.42,2.15.42,1.36,0,2.56-.41,3.59-1.24,1.04-.83,1.9-1.85,2.6-3.08.69-1.23,1.22-2.54,1.57-3.93.35-1.39.53-2.66.53-3.81Z"/>
      </g>
    </g>
    <g id="_x33_-_Cardama_logo_corte">
      <path class="cls-3" d="M648.99,384.69c-.85-2.07-2.35-3.85-4.22-5.03-1.85-1.17-4-1.86-6.19-1.98h-.04c-.17,0-.32.06-.43.17-.24.23-.24.61,0,.86,2.09,2.16,3.42,4.76,3.75,7.34.18,1.37.05,2.77-.35,4.03-.43,1.28-1.22,2.42-2.23,3.21-1,.78-2.29,1.3-3.62,1.46-1.24.12-2.56.16-3.84.2l-.49.02c-2.36.06-6.63.1-8.24.12h-.65c-.13.01-1.64.01-2.74.01,1.26-2.06,2.55-4.18,3.79-6.28,1.26-2.1,2.51-4.19,3.77-6.29,2.56-4.25,5.19-8.64,7.73-12.98.15-.25.11-.57-.1-.78l-12.14-10.87c-.1-.16-.25-.29-.41-.36-.04-.02-.06-.04-.1-.06-.13-.08-.28-.12-.42-.12-.03,0-.06,0-.08.01l-15.68-4.33-.09-.03h-.07c-.22,0-.43.13-.54.34-2.3,4.54-4.59,9.17-6.8,13.66-1.07,2.15-2.13,4.3-3.2,6.45-1.09,2.19-2.17,4.43-3.22,6.59-.57,1.17-1.13,2.34-1.7,3.5-.59,1.19-1.17,2.38-1.75,3.58-1.03,2.14-2.1,4.35-3.17,6.48-.11.21-.16.45-.14.69.01.25.02.51.03.78h-10.32s0-4.21,0-4.21c4.43-1.87,7.78-4.64,10.23-8.46,1.33-2.09,2.26-4.33,2.75-6.68.5-2.33.55-4.76.16-7.24-.73-4.75-3.25-9.3-6.93-12.45-3.64-3.2-8.52-5.03-13.37-5.06h-.28c-4.75,0-9.57,1.75-13.21,4.79-3.76,3.1-6.4,7.6-7.24,12.37-.89,4.8.01,9.96,2.44,14.14,2.26,3.96,5.42,6.77,9.95,8.83l-.03,3.58-9.58-.06c0-.11.01-.24.01-.35.01-.24-.04-.47-.14-.67-1.05-2.11-2.11-4.29-3.14-6.4-.58-1.22-1.18-2.45-1.78-3.66-.58-1.19-1.16-2.38-1.73-3.57-1.04-2.14-2.11-4.35-3.19-6.52-1.09-2.18-2.16-4.37-3.24-6.55-2.2-4.45-4.48-9.05-6.76-13.56-.11-.21-.31-.34-.54-.34h-.1s-15.76,4.36-15.76,4.36h-.06c-.17,0-.35.05-.5.16-.02.02-.06.03-.09.04-.14.08-.26.2-.34.34l-12.14,10.88c-.22.19-.26.52-.11.75,2.59,4.42,5.27,8.89,7.87,13.21,1.21,2.02,2.43,4.04,3.64,6.07,1.11,1.87,2.25,3.75,3.37,5.57l-5.18-.03c-1.32-3.03-3-5.03-5.55-6.65-2.26-1.46-5.01-2.26-7.74-2.26-.63,0-1.27.04-1.87.12-3.31.42-6.49,2.09-8.73,4.57-2.25,2.46-3.61,5.78-3.71,9.1-.15,3.33.95,6.73,3,9.34,2.03,2.63,5.06,4.53,8.29,5.21.97.2,1.96.31,2.95.31,2.37,0,4.69-.58,6.74-1.69,2.61-1.4,4.48-3.35,6.01-6.31l12.87-.06c.39.64.78,1.3,1.18,1.95.11.2.29.38.48.49l.19.11c3.35,1.94,6.81,3.94,9.89,6.26,3.57,2.67,6.12,5.38,7.79,8.28l1.97,3.52c-6.41,2.67-12.45,6.61-17.46,11.4-5.48,5.2-9.88,11.57-12.73,18.39-2.9,6.83-4.38,14.44-4.3,22,.11,7.46,1.74,15,4.72,21.82,1.49,3.41,3.32,6.68,5.45,9.73,2.09,3.03,4.48,5.9,7.15,8.52.46.45.95.91,1.53,1.44l-.63,1.18c-.52.96-1.03,1.92-1.55,2.89-1.93,3.56-3.82,7.03-5.44,10-2.3-1.66-4.57-3.63-6.75-5.86-2.46-2.55-4.24-4.55-6.22-7.41l8.14.53h.07c.25,0,.49-.08.68-.24.22-.18.37-.44.4-.73.02-.26-.05-.53-.2-.74v-.02l-.04-.04c-1.86-2.3-3.64-4.59-5.3-6.79-.94-1.24-1.77-2.38-2.53-3.46l-.09-.13c-.8-1.14-1.55-2.22-2.17-3.39-1.37-2.56-2.56-5.34-3.57-7.75-1.06-2.54-2.11-5.24-3.13-7.96v-.05c-.13-.32-.36-.57-.67-.7-.16-.06-.33-.1-.49-.1-.49,0-.94.3-1.12.75-1.41,3.28-2.63,6.59-3.69,10.1-1.22,4.05-1.95,7.42-2.29,10.6-.36,3.32-.44,6.86-.25,10.83.2,3.83.59,7.34,1.19,10.72.07.4.31.76.66.97.23.14.48.21.75.21.49,0,.95-.26,1.19-.66l.03-.03,4.15-6.79c1.61,2.69,2.9,4.16,4.93,6.45l.37.41c2.48,2.78,5.18,5.34,8.03,7.61.96.76,2,1.52,3.17,2.32,0,0-1.04,1.88-1.41,2.56l-5.84,10.58-5.91,10.55c-.23.41-.17.92.13,1.28l2.47,2.86c.09.1.19.19.32.26.08.04.18.08.28.1.18.17.4.28.64.31l3.69.53h.05s.1.02.15.02c.42,0,.79-.23.98-.59l5.68-10.68,5.75-10.64,1.26-2.32c.41.2.83.4,1.24.6.51.25,1.02.5,1.54.75l4.85,2.36c2.85,1.4,6.23,3.06,9.65,4.81,3.05,1.57,6.28,3.25,9.39,5.14,1.34.81,2.9,1.8,4.23,2.91.5.41,1.03.92,1.55,1.42l.33.34,1.9,1.88c2.3,2.33,4.71,4.88,7.38,7.81.02.02.05.05.07.08l.04.03c.32.29.73.45,1.19.45s.88-.17,1.21-.49h.01s.06-.07.06-.07c2.68-2.91,5.1-5.45,7.4-7.78l1.9-1.87.28-.28c.54-.51,1.09-1.05,1.6-1.46,1.36-1.11,2.9-2.09,4.26-2.9,3.14-1.88,6.5-3.61,9.39-5.07,3.31-1.68,6.61-3.29,9.68-4.77l4.87-2.35c.55-.27,1.12-.53,1.67-.8.52-.24,1.03-.5,1.55-.75l7.02,12.97,5.68,10.68c.19.37.56.59.99.59.04,0,.09-.01.14-.01h.05s3.7-.54,3.7-.54c.14-.02.26-.05.37-.12.08-.04.17-.11.25-.18.24-.06.45-.18.62-.37l2.47-2.87c.3-.35.35-.87.11-1.27l-5.9-10.55-5.84-10.58c-.47-.86-.95-1.73-1.42-2.58,1.05-.73,1.97-1.4,2.81-2.06,2.89-2.27,5.62-4.83,8.12-7.6,1.24-1.39,2.43-2.85,3.54-4.31.34-.46.55-.73.71-.93.27-.35.4-.5.75-1.08l3.77,6.27c.28.45.76.78,1.29.88.11.02.23.03.35.03.92,0,1.71-.66,1.88-1.57.63-3.43,1.04-6.96,1.26-10.8.23-3.94.16-7.51-.18-10.91-.33-3.21-1.06-6.62-2.26-10.72-1.06-3.54-2.26-6.88-3.67-10.21-.2-.5-.62-.88-1.11-1.06-.21-.08-.45-.12-.68-.12-.8,0-1.54.5-1.82,1.28-1.02,2.7-2.09,5.38-3.17,7.95-1.01,2.4-2.21,5.16-3.57,7.66-.28.53-.61,1.1-1.02,1.71-.41.6-.8,1.17-1.2,1.73-.77,1.06-1.58,2.18-2.54,3.42-1.76,2.32-3.53,4.59-5.3,6.77-.3.38-.46.85-.43,1.34.07,1.02.92,1.82,1.94,1.82h.13l6.25-.4c-1.47,2.13-2.31,2.98-4.07,4.77-.29.3-.62.63-.97.99-1.99,2.04-4.06,3.85-6.15,5.41-1.55-2.83-3.2-5.85-4.84-8.9-.8-1.49-1.6-2.97-2.39-4.47.01,0,.01-.01.02-.01.15-.14.29-.27.43-.41,5.35-5.27,9.71-11.71,12.61-18.6,2.9-6.82,4.42-14.46,4.42-22.09-.05-7.68-1.61-15.29-4.51-22.04-2.9-6.82-7.32-13.17-12.81-18.37-4.7-4.47-10.07-8.07-15.94-10.73l2.31-4.15c1.68-2.9,4.22-5.61,7.81-8.29,3.08-2.32,6.55-4.33,9.9-6.27l.18-.1c.2-.12.36-.29.48-.49.3-.5.61-1.01.92-1.52l.48-.8,13.04-.08c.31,0,9.52-.05,9.52-.05,1.22,0,2.22-.08,3.12-.25,2.23-.4,4.33-1.27,6.09-2.54,1.94-1.39,3.36-3.19,4.12-5.22.2-.52.35-1.07.47-1.64.09-.54.18-1.05.25-1.58.16-1.09.23-2.17.25-3.21.03-2.41-.35-4.57-1.14-6.41Z"/>
    </g>
    <g id="Logo_-_no_cortar" class="cls-6">
      <g>
        <path class="cls-4" d="M593.1,489.35c1.52-3.41,2.26-7.19,2.31-10.9,0-3.79-.71-7.52-2.21-10.98-1.48-3.44-3.64-6.58-6.31-9.18-2.67-2.6-5.85-4.68-9.31-6-3.45-1.35-7.19-1.92-10.82-1.8-7.35.22-14.38,3.36-19.54,8.4-1.31,1.26-2.49,2.64-3.55,4.12-1.06,1.48-2,3.06-2.76,4.72-1.53,3.32-2.42,7-2.51,10.69-.08,3.73.62,7.47,2.1,10.88,1.44,3.44,3.69,6.5,6.4,8.98,5.48,4.97,12.72,7.46,19.84,7.47,7.13.03,14.39-2.48,19.87-7.44,2.74-2.46,5-5.52,6.5-8.95ZM575.81,453.99c3.47,1.41,6.62,3.51,9.21,6.17,4.75,4.84,7.39,11.57,7.39,18.26.03,3.66-.71,7.28-2.12,10.63-1.33-2.52-2.65-5.04-3.98-7.57-3.97-7.61-7.98-15.21-12.01-22.79-.01-.65-.01-1.3-.02-1.95.5-.92,1.01-1.83,1.52-2.74ZM572.08,452.78c.46.11.92.24,1.37.38-.35.63-.71,1.28-1.07,1.92-.25-.48-.51-.96-.77-1.45.16-.28.32-.58.46-.86ZM540.73,478.45c-.09-3.43.42-6.87,1.63-10.12.59-1.62,1.35-3.19,2.27-4.68.92-1.48,2-2.86,3.22-4.11,2.44-2.51,5.42-4.5,8.67-5.78.8-.33,1.62-.6,2.45-.83.71,1.27,1.41,2.54,2.11,3.81v1.9c-4.04,7.59-8.06,15.21-12.03,22.83-1.68,3.2-3.35,6.39-5.03,9.58-2.04-3.9-3.18-8.23-3.28-12.61ZM547.26,495.53c-1.05-.95-1.99-2.29-2.31-2.81,1.92-3.44,3.85-6.88,5.76-10.33,4.14-7.38,8.23-14.79,12.29-22.22.24.46,1.61,3.11,1.85,3.56-.32.6-17.6,31.8-17.6,31.8ZM560.3,500.65c-.05,1.29-.12,2.6-.19,3.9-1.25-.34-2.47-.79-3.64-1.34-2.25-1.04-4.31-2.42-6.14-4.05,2.45-4.31,4.9-8.64,7.35-12.96,1.07-1.88,2.14-3.77,3.2-5.66-.11,6.71-.29,13.41-.58,20.11ZM572,504.88c-1.72.38-3.49.56-5.26.59-1.94,0-3.87-.24-5.75-.69.08-1.37.15-2.73.22-4.1.34-7.31.56-14.63.7-21.95,1.93-3.4,3.86-6.79,5.78-10.19,1.49,2.67,3.01,5.32,4.51,7.99.1,8.06.29,16.13.62,24.2.06,1.29.12,2.59.19,3.9-.34.09-.68.18-1.02.26ZM576.98,503.19c-.48.23-.99.44-1.5.64-.06-1.08-.12-2.14-.17-3.22-.33-6.59-.53-13.2-.68-19.82,1.02,1.8,2.04,3.61,3.05,5.41,2.23,3.93,4.46,7.85,6.68,11.78-2.11,2.12-4.6,3.92-7.37,5.2ZM585.48,496.78c-2.04-3.83-4.08-7.67-6.13-11.5-3.07-5.77-6.17-11.53-9.29-17.28v.02s-7.29-13.33-7.29-13.33c-.43-.77-.87-1.54-1.29-2.31.5-.08,1.38-.44,3.43-.65.26.49,23.31,41.85,23.31,41.85-1.3,1.89-2.37,2.75-2.74,3.2Z"/>
        <path class="cls-4" d="M567.42,576.07c-.45,0-.87-.16-1.19-.45l-.04-.03s-.05-.05-.07-.08c-2.68-2.92-5.08-5.47-7.39-7.81l-1.89-1.89-.34-.33c-.51-.5-1.05-1.01-1.54-1.43-1.34-1.11-2.9-2.1-4.24-2.91-3.11-1.88-6.34-3.57-9.38-5.13-3.43-1.75-6.8-3.42-9.65-4.82l-4.85-2.36c-.52-.26-1.03-.5-1.54-.76-.41-.2-.83-.4-1.24-.6l-1.27,2.33-5.74,10.64-5.68,10.67c-.19.36-.56.6-.98.6-.05,0-.1,0-.15,0h-.04s-.02-.01-.02-.01l-3.69-.53c-.24-.03-.46-.14-.63-.31-.1-.02-.2-.06-.29-.1-.13-.07-.23-.16-.32-.26l-2.47-2.86c-.31-.36-.36-.87-.13-1.28l5.91-10.55,5.84-10.59c.37-.68,1.41-2.55,1.41-2.55-1.17-.8-2.21-1.56-3.16-2.32-2.86-2.27-5.56-4.83-8.04-7.61l-.36-.42c-2.04-2.29-3.33-3.76-4.93-6.45l-4.15,6.79-.03.03c-.24.4-.7.66-1.19.66-.26,0-.52-.07-.75-.21-.35-.21-.59-.57-.66-.97-.6-3.38-.99-6.89-1.19-10.72-.19-3.97-.1-7.51.25-10.83.34-3.18,1.07-6.55,2.29-10.59,1.07-3.52,2.28-6.83,3.69-10.11.19-.45.63-.74,1.12-.74.17,0,.33.04.49.1.31.13.54.38.66.7v.05c1.03,2.72,2.08,5.42,3.14,7.96,1.01,2.41,2.2,5.19,3.57,7.75.62,1.17,1.37,2.25,2.17,3.39l.09.13c.77,1.08,1.59,2.21,2.53,3.46,1.66,2.2,3.44,4.49,5.3,6.79l.04.05v.02c.16.21.23.47.2.74-.03.29-.17.55-.4.73-.19.16-.43.24-.68.24h-.07l-8.13-.53c1.97,2.86,3.76,4.86,6.22,7.41,2.18,2.23,4.45,4.2,6.75,5.86,1.62-2.97,3.51-6.44,5.44-10,.53-.96,1.04-1.93,1.55-2.88l.63-1.18c-.58-.53-1.07-.99-1.53-1.44-2.67-2.63-5.06-5.49-7.15-8.52-2.13-3.05-3.96-6.33-5.45-9.73-2.98-6.82-4.61-14.36-4.72-21.82-.09-7.56,1.4-15.17,4.3-22,2.85-6.82,7.25-13.18,12.73-18.38,5.02-4.79,11.05-8.73,17.46-11.4l-1.97-3.53c-1.67-2.9-4.22-5.61-7.79-8.27-3.08-2.32-6.54-4.33-9.89-6.27l-.19-.1c-.2-.12-.37-.29-.49-.49-.4-.65-.78-1.3-1.17-1.95l-12.87.07c-1.54,2.95-3.4,4.91-6.01,6.31-2.05,1.1-4.37,1.68-6.74,1.68-.99,0-1.98-.11-2.95-.31-3.23-.68-6.26-2.57-8.29-5.21-2.05-2.61-3.15-6.02-3-9.34.1-3.32,1.46-6.64,3.72-9.1,2.24-2.48,5.42-4.14,8.72-4.57.61-.08,1.25-.12,1.87-.12,2.74,0,5.48.8,7.75,2.26,2.54,1.62,4.23,3.62,5.55,6.65l5.18.04c-1.11-1.83-2.26-3.7-3.37-5.58-1.21-2.02-2.43-4.04-3.64-6.06-2.6-4.32-5.28-8.79-7.87-13.22-.15-.23-.1-.55.11-.75l12.14-10.87c.08-.14.2-.26.34-.34.03-.02.07-.03.09-.04.15-.11.32-.17.5-.17.03,0,.04,0,.06,0l15.76-4.35h.1c.23,0,.43.12.54.32,2.27,4.51,4.55,9.11,6.75,13.56,1.08,2.18,2.15,4.37,3.24,6.55,1.08,2.17,2.15,4.38,3.19,6.51.57,1.2,1.15,2.38,1.73,3.58.6,1.21,1.2,2.44,1.78,3.66,1.03,2.11,2.08,4.29,3.14,6.4.1.2.15.43.14.67,0,.12-.01.24-.01.35l9.58.07.03-3.59c-4.53-2.06-7.69-4.87-9.95-8.82-2.43-4.19-3.32-9.34-2.44-14.14.84-4.76,3.48-9.27,7.24-12.37,3.64-3.04,8.46-4.78,13.22-4.78h.28c4.84.02,9.73,1.86,13.37,5.06,3.67,3.15,6.19,7.7,6.93,12.45.39,2.47.33,4.91-.16,7.24-.49,2.34-1.42,4.59-2.75,6.67-2.45,3.82-5.8,6.59-10.23,8.46v4.22h10.33c-.01-.28-.02-.53-.04-.79-.01-.24.04-.48.14-.69,1.07-2.13,2.14-4.34,3.17-6.48.58-1.2,1.16-2.39,1.75-3.58.57-1.16,1.13-2.33,1.7-3.5,1.05-2.16,2.14-4.4,3.22-6.59,1.07-2.15,2.13-4.3,3.2-6.45,2.21-4.49,4.5-9.12,6.8-13.66.11-.21.32-.34.55-.34h.06l.09.02,15.69,4.33s.05,0,.07,0c.15,0,.29.04.42.12.04.02.07.04.1.06.16.07.32.2.41.36l12.14,10.87c.21.2.25.52.1.77-2.54,4.34-5.17,8.73-7.73,12.99-1.26,2.1-2.51,4.19-3.77,6.29-1.24,2.1-2.53,4.22-3.79,6.28,1.1,0,2.61,0,2.74,0t.65,0c1.61-.01,5.88-.05,8.23-.12l.49-.02c1.28-.04,2.59-.08,3.84-.2,1.33-.16,2.62-.68,3.62-1.46,1.01-.79,1.8-1.92,2.23-3.2.41-1.27.53-2.66.35-4.03-.33-2.58-1.66-5.18-3.75-7.34-.24-.25-.23-.64,0-.87.11-.11.26-.17.42-.17h.04c2.2.13,4.35.81,6.19,1.98,1.87,1.18,3.37,2.97,4.23,5.03.78,1.84,1.16,4,1.13,6.41-.01,1.04-.09,2.12-.25,3.21-.07.52-.16,1.04-.25,1.58-.11.57-.27,1.12-.46,1.64-.76,2.03-2.19,3.83-4.12,5.22-1.76,1.26-3.86,2.14-6.09,2.54-.9.17-1.9.25-3.13.25,0,0-9.21.05-9.51.05l-13.04.07-.49.8c-.31.51-.62,1.02-.92,1.52-.12.19-.28.36-.48.48l-.18.1c-3.35,1.95-6.82,3.95-9.89,6.28-3.59,2.67-6.14,5.38-7.81,8.29l-2.31,4.15c5.88,2.65,11.24,6.25,15.95,10.73,5.49,5.2,9.91,11.55,12.8,18.37,2.9,6.75,4.47,14.36,4.51,22.04,0,7.63-1.52,15.27-4.41,22.09-2.9,6.89-7.26,13.33-12.61,18.61-.14.14-.28.27-.43.4,0,0-.02,0-.03.02.8,1.49,1.59,2.98,2.39,4.46,1.64,3.06,3.29,6.07,4.84,8.9,2.09-1.55,4.16-3.37,6.15-5.41.36-.36.68-.69.97-1,1.76-1.79,2.6-2.64,4.07-4.77l-6.25.4h-.13c-1.02,0-1.87-.8-1.94-1.82-.03-.49.13-.96.43-1.34,1.77-2.17,3.54-4.45,5.3-6.77.95-1.24,1.77-2.36,2.54-3.42.4-.56.8-1.13,1.2-1.72.41-.61.74-1.18,1.03-1.71,1.36-2.5,2.55-5.26,3.57-7.66,1.08-2.57,2.15-5.25,3.17-7.95.28-.78,1.02-1.28,1.82-1.28.23,0,.47.05.68.13.49.18.91.56,1.11,1.05,1.41,3.34,2.61,6.68,3.67,10.22,1.2,4.1,1.93,7.51,2.26,10.72.35,3.4.41,6.97.19,10.91-.22,3.84-.63,7.37-1.26,10.8-.17.9-.96,1.57-1.88,1.57-.12,0-.24-.01-.35-.03-.53-.1-1-.42-1.28-.88l-3.77-6.27c-.35.58-.48.73-.75,1.08-.17.2-.37.46-.72.93-1.11,1.46-2.3,2.92-3.54,4.31-2.5,2.77-5.22,5.33-8.12,7.61-.84.65-1.76,1.33-2.8,2.05.47.86.94,1.72,1.41,2.58l5.84,10.59,5.9,10.55c.24.4.18.92-.12,1.27l-2.47,2.87c-.16.18-.38.31-.61.37-.08.07-.17.14-.26.19-.11.06-.23.1-.36.12l-3.7.53h-.05c-.05.01-.1.02-.14.02-.43,0-.79-.23-.99-.6l-5.68-10.67-7.02-12.97c-.52.25-1.04.51-1.55.75-.55.27-1.12.53-1.67.8l-4.87,2.35c-3.07,1.48-6.36,3.09-9.67,4.76-2.9,1.47-6.25,3.2-9.4,5.07-1.35.82-2.89,1.8-4.25,2.9-.51.42-1.06.96-1.61,1.47l-.27.27-1.9,1.87c-2.3,2.32-4.72,4.87-7.4,7.78l-.06.06h-.01c-.33.32-.77.5-1.21.5ZM528.24,545.94l4.88,2.34c2.89,1.39,6.3,3.05,9.73,4.77,3.1,1.57,6.4,3.27,9.63,5.19,1.77,1.07,3.25,2.03,4.67,3.19.66.55,1.23,1.09,1.77,1.62l.32.3,1.95,1.93c2.43,2.45,3.94,4.03,6.23,6.5,2.35-2.57,3.84-4.14,6.18-6.52l1.94-1.93.39-.38c.52-.5,1.07-1.02,1.7-1.55,1.43-1.17,2.89-2.14,4.66-3.22,3.26-1.96,6.67-3.73,9.61-5.24,3.39-1.72,6.79-3.39,9.72-4.82l4.87-2.37c.53-.27,1.07-.52,1.6-.78.49-.24.98-.48,1.46-.72-.37-.69-1.81-3.32-1.81-3.32-2.21.87-4.04,1.52-5.75,2.05-2.34.73-4.29,1.2-6.12,1.46-1.11.16-2.18.24-3.18.24-1.2,0-2.35-.11-3.44-.34-2.18-.43-4.32-1.4-6.17-2.81-1.59-1.19-3.07-2.73-4.52-4.68-.49-.68-.97-1.4-1.48-2.19-3.12.51-6.29.78-9.44.78-.31,0-.62,0-.92,0-3.24-.04-6.57-.39-9.9-1.03-.46.71-.88,1.34-1.31,1.9-1.4,1.89-2.83,3.36-4.34,4.49-1.74,1.31-3.74,2.23-5.79,2.64-1.02.21-2.11.31-3.25.31-.96,0-1.99-.07-3.05-.22-1.8-.27-3.7-.72-5.98-1.43-1.56-.49-3.2-1.06-5.14-1.82-.79,1.47-1.58,2.92-2.38,4.4.44.2,2.21,1.05,2.65,1.27ZM600.93,524.63c.55,1.02,1.11,2.05,1.67,3.08,3.18,5.88,6.46,11.83,9.63,17.58l7.83,14.21,5.52,9.86,3.18-.53-25.31-46.13c-.26.2-2.23,1.7-2.52,1.92ZM507.46,568.8l24.86-45.53c-.27-.23-2.45-1.81-2.7-2.04l-.45.8c-.52.96-1.05,1.91-1.57,2.86-3.25,5.89-6.48,11.9-9.63,17.71l-7.66,14.18-5.31,9.97,2.46,2.06ZM528.89,538.57c1.87.72,3.36,1.26,4.78,1.7,2.18.69,3.99,1.13,5.69,1.38.98.15,1.94.21,2.84.21.99,0,1.93-.09,2.82-.27,1.78-.35,3.53-1.15,5.05-2.29,1.39-1.03,2.69-2.37,3.98-4.11.27-.36.54-.75.85-1.2-3.37-.77-6.69-1.84-9.86-3.19-3.18-1.34-6.27-2.99-9.18-4.89l-.1.19c-.46.83-.93,1.65-1.37,2.47-1.92,3.46-3.83,6.96-5.48,9.99ZM580.94,533.88c.19.28.38.54.55.79,1.25,1.66,2.5,2.93,3.8,3.91,1.44,1.07,3.03,1.78,4.7,2.11.83.17,1.72.25,2.65.25,2.3,0,4.84-.47,8.22-1.54,1.49-.48,3.11-1.06,5.06-1.81-1.94-3.57-3.47-6.35-4.93-9-.5-.9-1-1.8-1.51-2.7l-.1-.18c-3.39,2.31-7,4.24-10.72,5.72-2.44.99-5.04,1.82-7.73,2.46ZM499.34,521.56c.26,0,.52.07.76.21.22.13.39.31.52.53.76,1.31,1.7,2.73,2.91,4.34,1.03,1.37,2.17,2.74,3.36,4.07,2.38,2.64,4.97,5.06,7.7,7.19.82.64,1.7,1.28,2.75,2,.73-1.33,2.28-4.16,2.28-4.16-2.44-1.74-4.86-3.83-7.22-6.21-3.01-3.06-5.55-6.13-7.76-9.4-.16-.23-.22-.5-.17-.78.06-.27.21-.51.44-.66.17-.11.37-.17.59-.17h.05l7.84.45c-1.33-1.65-2.19-2.75-3.58-4.58l-.25-.32c-.97-1.26-1.83-2.41-2.61-3.5-.48-.69-.89-1.25-1.25-1.81-.37-.54-.76-1.17-1.18-1.93-1.43-2.62-2.63-5.36-3.74-7.92-.96-2.28-1.36-3.25-2.11-5.2-1,2.47-1.46,4.02-2.34,7.03-1.13,3.91-1.79,7.15-2.09,10.15-.32,3.18-.36,6.58-.14,10.38.03.49.06.93.09,1.35.11,2.06.17,3.18.53,5.22l3.35-5.58c.26-.45.75-.72,1.27-.72ZM617.73,539.37c.89-.61,1.63-1.16,2.31-1.71,2.71-2.14,5.27-4.56,7.62-7.19,1.2-1.35,2.31-2.72,3.31-4.06,1.17-1.57,2.13-3.02,2.84-4.28.36-.62.98-.98,1.67-.98.33,0,.65.08.94.24.29.17.52.39.69.66l2.73,4.45c.2-1.28.21-1.85.23-2.78,0-.59.02-1.32.08-2.46.2-3.83.13-7.19-.19-10.3-.32-2.97-.99-6.15-2.13-10.02-.27-.91-.45-1.56-.6-2.1-.32-1.16-.49-1.76-1.07-3.19-.45,1.21-.49,1.31-1.03,2.58l-.4.96c-1.15,2.69-2.3,5.33-3.74,8.01-.38.71-.81,1.41-1.2,2-.39.56-.78,1.15-1.26,1.83-.77,1.07-1.59,2.19-2.61,3.53-.61.82-.97,1.3-1.25,1.68-.41.55-.66.9-1.32,1.72l5.86-.34h.04s.06-.01.1-.01c1.01,0,1.84.79,1.9,1.81.03.42-.08.83-.33,1.18-2.22,3.32-4.79,6.44-7.84,9.57-2.29,2.31-4.65,4.36-7.04,6.09l1.7,3.09ZM566.73,423.3c-3.71.02-7.32.39-10.74,1.09-3.71.8-7.16,1.9-10.26,3.29-6.52,2.88-12.55,7.12-17.45,12.28-2.34,2.45-4.56,5.27-6.59,8.37-.94,1.45-1.84,3-2.67,4.6-.83,1.58-1.59,3.2-2.24,4.81-2.69,6.62-4.09,13.58-4.17,20.7-.11,7.14,1.19,14.35,3.75,20.87,1.31,3.32,2.95,6.53,4.88,9.53,1.95,3,4.22,5.83,6.72,8.37,5.05,5.1,11.2,9.21,17.78,11.88,6.19,2.53,13.17,3.87,20.18,3.87.27,0,.54,0,.8,0,6.97-.1,14.13-1.65,20.74-4.45,6.41-2.75,12.43-6.86,17.42-11.91,4.94-4.99,8.95-11.07,11.58-17.55,2.65-6.53,4.05-13.65,4.04-20.6.13-14.03-5.47-28.04-15.36-38.45-4.88-5.15-10.91-9.4-17.43-12.28-3.1-1.39-6.55-2.5-10.26-3.29-3.43-.72-7.04-1.09-10.74-1.11ZM525.83,406.35c3.35,1.84,6.81,3.75,10.02,6.07,3.97,2.88,6.83,5.86,8.77,9.11.77,1.32,1.52,2.64,2.28,3.96.35-.12,1.76-.67,2.1-.79,0,0-30.34-57.08-34.84-65.7l-12.46,10.35c2.67,4,5.33,8.09,7.91,12.05,1.36,2.09,2.73,4.19,4.1,6.27,1.32,2.01,2.63,4.07,3.91,6.05.72,1.13,1.45,2.26,2.17,3.38.73,1.14,1.46,2.27,2.19,3.41,1.21,1.87,2.46,3.81,3.67,5.75l.18.1ZM582.68,424.23c.33.1,2.12.62,2.46.72,2.33-4.19,32.2-57.86,36.69-65.77l-15.59-4.82c-1.98,4.53-4.04,9.11-6.03,13.54-.97,2.16-1.94,4.31-2.9,6.47-.99,2.24-2.03,4.51-3.04,6.7-.54,1.17-1.07,2.35-1.61,3.52-.55,1.19-1.08,2.38-1.62,3.56-.94,2.06-1.91,4.2-2.89,6.32v.28c.27,3.79.54,7.7.33,11.63-.29,4.89-1.24,8.91-2.93,12.29-.81,1.59-1.64,3.16-2.46,4.73l-.42.81ZM574.82,422.62c1.52.21,3.06.48,4.58.81l3.32-6.18c1.54-2.97,2.43-6.59,2.75-11.04,0-.13.01-.26.02-.38l-10.46.06c-.09,5.27-.17,10.75-.21,16.73ZM549.91,406.21c.31,4.45,1.22,8.07,2.74,11.04l3.13,5.84c1.47-.28,2.98-.5,4.49-.66-.1-5.63-.23-11.07-.38-16.59l-10,.05c0,.11.02.22.02.33ZM566.96,422.07c1.65,0,3.33.07,5.02.22.11-5.83.25-11.8.41-17.75.02-.72.61-1.29,1.33-1.29l11.87.07c.05-2.07-.01-4.09-.08-5.86l-11.66.13c-.69,0-1.26-.56-1.26-1.24l-.07-6.35c0-.53.33-1.02.83-1.21,4-1.47,7.44-4.25,9.69-7.84,1.14-1.81,1.92-3.76,2.32-5.79.42-1.99.44-4.09.09-6.23-.68-4.09-2.89-7.98-6.06-10.67-3.17-2.69-7.35-4.24-11.48-4.25h-.17c-4.08,0-8.2,1.5-11.32,4.12-3.19,2.65-5.42,6.49-6.12,10.54-.72,4.09.05,8.45,2.11,11.99,2.05,3.55,5.42,6.38,9.27,7.76.67.18,1.17.82,1.17,1.55l-.04,6.36c0,.89-.74,1.63-1.65,1.63l-11.34-.06c-.07,2.1-.09,3.77-.07,5.33l11.33.06c.69,0,1.25.56,1.26,1.23.08,5.28.16,10.91.22,17.68,1.44-.1,2.76-.15,4.02-.15h.35ZM496.76,388.85c-.47,0-.95.03-1.42.1-2.51.32-4.94,1.58-6.67,3.47-1.74,1.87-2.79,4.41-2.89,6.96-.12,2.56.71,5.18,2.28,7.2,1.56,2.04,3.89,3.52,6.38,4.06.78.17,1.58.26,2.39.26,1.81,0,3.59-.44,5.15-1.26,2.28-1.19,4.16-3.24,5.13-5.63.25-.58.8-.96,1.42-.96l12.02.07c-.33-.56-.68-1.12-1.02-1.67-.61-1.01-1.23-2.02-1.84-3.02l-.38-.63-8.44-.04c-.75,0-1.4-.48-1.63-1.2-.75-2.43-2.41-4.61-4.55-5.98-1.73-1.11-3.83-1.73-5.92-1.73ZM626.31,403.55l6.25.07,3.13.03c.17,0,.35,0,.52,0,.93,0,1.71-.06,2.43-.18,1.98-.32,3.85-1.07,5.39-2.15,1.69-1.16,2.93-2.67,3.6-4.38.18-.46.32-.92.41-1.36.1-.46.18-.97.27-1.5.16-1.03.25-2.05.27-3.01.06-2.2-.25-4.17-.91-5.83-.72-1.82-2-3.4-3.6-4.47-1.16-.76-2.49-1.31-3.9-1.62.59.72,1.12,1.5,1.58,2.33.8,1.44,1.32,2.91,1.52,4.37.24,1.57.13,3.19-.33,4.68-.47,1.57-1.42,2.99-2.67,3.99-1.23.99-2.76,1.64-4.4,1.87-1.3.15-2.58.21-3.82.27l-.65.03c-1.55.07-3.83.13-5.66.19-1.49.04-2.89.08-3.05.1h-.06s-4.11.06-4.11.06l-.84,1.39c-.73,1.21-1.46,2.41-2.2,3.62l-.88,1.45s11.65.07,11.71.07Z"/>
        <path class="cls-4" d="M567.88,386.26c-1.95-.02-3.89-.45-5.61-1.24-1.7-.78-3.26-1.98-4.51-3.47-2.24-2.72-3.46-6.3-3.46-10.08,0-1.79.3-3.55.84-5.24.62-1.85,1.51-3.46,2.64-4.81,1.26-1.49,2.83-2.67,4.53-3.41,1.58-.69,3.32-1.05,5.06-1.05.18,0,.36,0,.54.01,1.87.09,3.74.58,5.44,1.43,1.64.84,3.12,1.94,4.37,3.27,2.57,2.68,4.11,6.15,4.32,9.78.12,1.93-.15,3.85-.77,5.54-.64,1.76-1.68,3.42-3.02,4.83-2.62,2.79-6.42,4.45-10.16,4.45h-.22ZM568.66,359.92c-.24,0-.49.01-.73.03-3.07.15-5.96,1.27-8.37,3.23-1.27,1.05-2.29,2.3-2.96,3.63-.73,1.41-1.12,3.02-1.11,4.65,0,1.63.4,3.23,1.12,4.64.67,1.33,1.7,2.59,2.97,3.62,1.14.94,2.47,1.69,3.96,2.22,1.36.5,2.78.75,4.2.75h.17c1.45-.01,2.94-.3,4.31-.83,1.36-.53,2.65-1.35,3.73-2.36,2.25-2.13,3.59-5.01,3.81-8.08.12-1.61-.13-3.2-.67-4.61-.57-1.5-1.46-2.85-2.6-3.93-1.15-1.07-2.54-1.9-4.02-2.37-1.21-.39-2.5-.59-3.82-.59Z"/>
        <g>
          <g>
            <path class="cls-4" d="M531.58,480.83c.3,3.06-2.21,5.05-5.77,5.4-3.89.39-6.48-1.56-6.73-4.1-.11-1.18.14-1.97.3-2.4l1.92-.1c-.3.44-.55,1.12-.47,1.98.2,1.94,2.34,2.79,4.79,2.54,2.43-.24,4.32-1.49,4.13-3.42-.1-1.04-.53-1.57-.78-1.92l1.98-.3c.23.54.52,1.21.63,2.31Z"/>
            <path class="cls-4" d="M532.05,471.09l-3.05.31-.5,3.56,2.83,1.15-.28,2-11.57-5.15.32-2.25,12.54-1.69-.29,2.06ZM521.51,472.18l5.42,2.21.4-2.84-5.83.63Z"/>
            <path class="cls-4" d="M534.6,463.63l-3.91-.44c-.94-.12-1.47,0-1.72.61l-.31.76,4.8,1.94-.74,1.84-11.31-4.55,1.3-3.24c.66-1.63,2.21-2.56,4.12-1.8,1.45.59,2.18,1.71,1.93,3.12.45-.6.98-.72,2.01-.63l4.65.4-.81,1.99ZM524.06,461.73l-.35.87,3.33,1.35.36-.9c.41-1.03,0-1.83-1.08-2.26-1.12-.46-1.88-.03-2.27.94Z"/>
            <path class="cls-4" d="M537.54,458.59l-1.66,2.29-9.87-7.15,1.55-2.13c2.05-2.83,4.96-2.84,8-.64,2.84,2.05,3.91,4.96,1.99,7.62ZM528.99,452.61l-.37.52,7.03,5.09.44-.62c1.32-1.83.1-3.6-1.75-4.95-1.93-1.39-3.95-1.95-5.34-.04Z"/>
            <path class="cls-4" d="M545.76,450l-2.48-1.8-2.75,2.33,1.36,2.75-1.54,1.31-5.24-11.54,1.73-1.47,10.51,7.06-1.59,1.35ZM537.15,443.81l2.59,5.26,2.19-1.86-4.77-3.4Z"/>
            <path class="cls-4" d="M555.43,444.92l-4.1-9.35,1.78,10.36-1.37.6-6.42-8.34,4.1,9.36-1.59.7-4.89-11.16,2.7-1.18,5.64,7.48-1.63-9.24,2.7-1.18,4.89,11.16-1.79.78Z"/>
            <path class="cls-4" d="M564.9,443.19l-1.1-2.87-3.57.43-.37,3.04-2,.24,1.97-12.5,2.25-.28,4.89,11.68-2.06.25ZM561.11,433.29l-.73,5.81,2.85-.35-2.12-5.46Z"/>
            <path class="cls-4" d="M573.54,444.1c-.82-.17-1.88-.58-2.5-1.06l.49-1.89c.66.73,1.53,1.12,2.06,1.23,1.39.28,1.91-.75,2.04-1.35.22-1.04-.24-1.55-.93-2.19l-.86-.81c-1.11-1.05-1.38-2.11-1.08-3.54.5-2.4,2.64-2.83,4.1-2.53.93.2,1.58.57,2.15.86l-.49,1.85c-.48-.43-1.13-.86-1.86-1.02-.72-.15-1.64.09-1.86,1.12-.17.84.17,1.32.79,1.91l.79.78c1.19,1.16,1.7,1.97,1.32,3.77-.45,2.12-2.2,3.27-4.17,2.87Z"/>
            <path class="cls-4" d="M582.82,447.07l2.25-4.9-2.83-1.29-2.24,4.9-1.84-.84,5.06-11.07,1.84.84-2.08,4.53,2.83,1.29,2.08-4.54,1.83.85-5.06,11.07-1.85-.84Z"/>
            <path class="cls-4" d="M586.19,449.05l7-9.97,1.65,1.16-7,9.98-1.65-1.16Z"/>
            <path class="cls-4" d="M594.99,450.11l-.82-.79-3.32,3.39-1.42-1.39,8.53-8.7,2.17,2.12c1.51,1.49,1.73,3.39-.02,5.18-1.68,1.73-3.62,1.66-5.11.19ZM598.67,445.7l-.5-.49-2.82,2.88.59.57c.86.84,1.79.74,2.7-.19.95-.98.89-1.95.03-2.78Z"/>
            <path class="cls-4" d="M600.91,457.31l-4.07,2.69-1.1-1.68,4.08-2.68,4.43-6.54,1.27,1.92-3.38,4.39,5.33-1.43,1.21,1.84-7.76,1.49Z"/>
            <path class="cls-4" d="M600.58,468l2.51-1.78-1.32-3.35-3.04.41-.73-1.88,12.59-1.24.84,2.11-10.09,7.68-.76-1.95ZM609.21,461.84l-5.8.76,1.05,2.68,4.76-3.43Z"/>
            <path class="cls-4" d="M602.04,475.75l3.62-1.55c.87-.36,1.29-.73,1.2-1.39l-.11-.82-5.12.69-.27-1.97,12.07-1.62.46,3.45c.24,1.74-.66,3.32-2.68,3.6-1.56.2-2.75-.42-3.22-1.76-.09.73-.5,1.11-1.43,1.53l-4.24,1.95-.29-2.12ZM612.14,472.2l-.12-.93-3.57.48.13.96c.15,1.09.9,1.58,2.06,1.44,1.19-.17,1.65-.9,1.51-1.95Z"/>
            <path class="cls-4" d="M602,481.6l.31-2.82,12.11,1.3-.28,2.61c-.37,3.48-2.9,4.93-6.63,4.53-3.48-.38-5.87-2.37-5.51-5.63ZM612.38,482.54l.07-.63-8.63-.92-.08.75c-.25,2.24,1.7,3.17,3.99,3.42,2.35.25,4.4-.26,4.65-2.61Z"/>
          </g>
          <g>
            <path class="cls-4" d="M536.65,515.7l-1.29-1.1,5.47-11.33,1.26,1.06-4.81,9.39,8.46-6.29,1.18,1-10.26,7.27Z"/>
            <path class="cls-4" d="M541.41,519.11l6.33-10.4,1.3.79-6.33,10.41-1.3-.79Z"/>
            <path class="cls-4" d="M549.94,523.57c-3.1-1.23-3.36-4.48-2.12-7.6,1.22-3.07,3.92-5.2,6.89-4.02.83.33,1.53.86,2.03,1.44l-.67,1.42c-.42-.65-1.08-1.23-1.88-1.55-2.18-.87-4.04,1.08-4.92,3.29-.88,2.23-.98,4.87,1.29,5.76.41.16.82.23,1.27.15l1.39-3.51-1.58-.63.49-1.23,2.91,1.15-2.29,5.73c-.95.13-2-.07-2.84-.4Z"/>
            <path class="cls-4" d="M560.05,526.14c-3.16-.45-3.52-3.89-3.11-6.78.39-2.85,1.84-6.09,4.85-5.67,3.22.45,3.56,3.88,3.15,6.78-.4,2.88-1.83,6.09-4.9,5.66ZM561.61,515.05c-2.11-.29-2.84,2.59-3.1,4.52-.3,2.12-.34,4.91,1.74,5.21,2.15.31,2.85-2.59,3.12-4.52.27-2,.43-4.91-1.76-5.21Z"/>
            <path class="cls-4" d="M574.87,525.7l-1.8-10.11-1.09,1.91-.95-1.06,1.86-2.76,1.31-.24,2.15,11.99-1.48.26Z"/>
            <path class="cls-4" d="M582.72,523.84c-.63.22-1.39.36-2.08.36l-.43-1.44c.67.07,1.21.1,1.84-.13,2.01-.74,1.36-3.58.73-5.38-.06,1.02-.56,1.83-1.45,2.15-1.85.69-3.37-.85-4.06-2.68-.75-2.02-.28-4.16,1.6-4.86,2.52-.92,4.14,1.84,4.98,4.1.97,2.63,1.93,6.75-1.13,7.89ZM579.35,513.12c-1.23.46-1.09,1.93-.67,3.06.41,1.09,1.3,2.28,2.49,1.84,1.11-.4,1.04-1.88.66-2.91-.39-1.06-1.3-2.42-2.47-1.99Z"/>
            <path class="cls-4" d="M590.91,519.8l-5.28-8.8-.35,2.16-1.25-.66.76-3.24,1.14-.69,6.26,10.45-1.28.77Z"/>
            <path class="cls-4" d="M598.16,514.78c-2.05,1.79-4.51-.3-6.08-2.11-1.87-2.13-4.03-5.74-1.61-7.85.51-.44,1.11-.77,1.76-1.03l.88,1.16c-.61.15-1.12.36-1.59.77-1.65,1.43-.09,3.8,1.11,5.39-.28-.94-.12-1.91.59-2.52,1.51-1.31,3.37-.49,4.66,1,1.47,1.68,1.82,3.86.28,5.18ZM593.89,509.82c-.88.78-.31,2.12.42,2.96.75.85,2.03,1.82,2.97.99.94-.82.29-2.3-.48-3.17-.76-.88-1.97-1.6-2.9-.78Z"/>
          </g>
          <path class="cls-4" d="M532.6,497.9c0,1.4-1.13,2.54-2.53,2.54s-2.54-1.14-2.54-2.54,1.14-2.54,2.54-2.54,2.53,1.14,2.53,2.54Z"/>
          <path class="cls-4" d="M605.79,497.9c0,1.4-1.14,2.54-2.54,2.54s-2.53-1.14-2.53-2.54,1.13-2.54,2.53-2.54,2.54,1.14,2.54,2.54Z"/>
        </g>
      </g>
    </g>
  </g>
</svg>