<?xml version="1.0" encoding="UTF-8"?>
<svg xmlns="http://www.w3.org/2000/svg" version="1.1" viewBox="0 0 1133.86 1133.86">
  <defs>
    <style>
      .cls-1 {
        stroke: #249438;
      }

      .cls-1, .cls-2, .cls-3 {
        fill: none;
        stroke-miterlimit: 10;
      }

      .cls-1, .cls-3 {
        stroke-width: .5px;
      }

      .cls-2 {
        stroke: #1d1d1b;
        stroke-width: .25px;
      }

      .cls-4 {
        fill: #22398e;
      }

      .cls-3 {
        stroke: #e52622;
      }
    </style>
  </defs>
  <!-- Generator: Adobe Illustrator 28.7.1, SVG Export Plug-In . SVG Version: 1.2.0 Build 142)  -->
  <g>
    <g id="madera">
      <path class="cls-2" d="M977.57,676.38h-28.29v83.61c0,13.5-11.42,29.72-23.11,36.47l-338.72,197.11c-11.69,6.75-30.78,7.65-42.03,0l-338.72-197.11c-12.13-5.86-22.01-22.97-22.01-36.47v-83.61h-29.06v-228.12h28.18v-83.61c0-13.5,11.42-29.72,23.12-36.47l338.71-197.11c11.69-6.75,30.78-7.64,42.03,0l338.72,197.11c12.14,5.86,22.01,22.97,22.01,36.47v83.61h29.17v228.12Z"/>
    </g>
    <g id="imanes">
      <circle class="cls-3" cx="212.32" cy="369.56" r="15.59"/>
      <circle class="cls-3" cx="920.98" cy="369.56" r="15.59"/>
      <circle class="cls-3" cx="212.32" cy="755.07" r="15.59"/>
      <circle class="cls-3" cx="920.98" cy="755.07" r="15.59"/>
      <circle class="cls-3" cx="566.65" cy="159.8" r="15.59"/>
      <circle class="cls-3" cx="566.65" cy="964.84" r="15.59"/>
    </g>
    <g id="Ultreia-Corte">
      <path class="cls-1" d="M444.45,403.65c2.03-1.24,28.74-18.01,28.74-18.01,19.03-11.92,44.21-6.13,56.13,12.89l115.29,184.26c2.04,0,4.08,0,6.11.01l-117.02-187.02c-13.43-21.44-41.81-27.96-63.26-14.53,0,0-26.56,16.63-28.71,17.99-4.89,3.08-2.07,7.34,2.71,4.4Z"/>
      <path class="cls-1" d="M304.65,554.77c-1.22-2.04-17.68-28.94-17.68-28.94-11.7-19.16-5.64-44.27,13.52-55.97l185.55-113.2c.03-2.04.06-4.08.08-6.12l-188.33,114.9c-21.6,13.19-28.43,41.49-15.24,63.09,0,0,16.33,26.75,17.66,28.91,3.03,4.92,7.31,2.15,4.43-2.67Z"/>
      <path class="cls-1" d="M463.22,704.41c-2.04,1.22-28.94,17.68-28.94,17.68-19.16,11.7-44.27,5.64-55.97-13.52l-113.2-185.56c-2.04-.03-4.08-.06-6.11-.08l114.9,188.33c13.19,21.6,41.49,28.43,63.09,15.24,0,0,26.75-16.33,28.91-17.66,4.92-3.02,2.15-7.31-2.67-4.43Z"/>
      <path class="cls-1" d="M463.19,520c-16.34,0-29.63,13.27-29.68,29.6.05,16.32,13.34,29.6,29.68,29.6s29.63-13.28,29.67-29.6c-.04-16.33-13.34-29.6-29.67-29.6ZM463.19,574.03c-13.49,0-24.46-10.96-24.5-24.43.04-13.48,11.01-24.43,24.5-24.43s24.45,10.95,24.5,24.43c-.05,13.47-11.02,24.43-24.5,24.43Z"/>
      <g>
        <path class="cls-1" d="M339.83,557.97c5-7.29,10.68-14.18,17.07-20.57,27.21-27.21,63.38-42.19,101.86-42.19s74.65,14.98,101.86,42.19c6.38,6.39,12.07,13.28,17.07,20.57h6.23c-5.63-8.64-12.18-16.76-19.64-24.22-28.19-28.18-65.66-43.7-105.51-43.7s-77.33,15.52-105.51,43.7c-7.46,7.46-14,15.59-19.64,24.22h6.22Z"/>
        <g>
          <path class="cls-1" d="M493.38,606.67h8.85v59.66c0,9.03,2.24,15.74,6.71,20.13,4.47,4.39,11.32,6.58,20.54,6.58s15.86-2.19,20.34-6.58c4.47-4.39,6.71-11.1,6.71-20.13v-59.66h8.99v56.98c0,12.37-2.98,21.6-8.94,27.7-5.96,6.1-15,9.15-27.1,9.15s-21.21-3.05-27.17-9.15c-5.96-6.1-8.94-15.33-8.94-27.7v-56.98Z"/>
          <path class="cls-1" d="M597.71,698.06h-8.57v-96.76h8.57v96.76Z"/>
          <path class="cls-1" d="M622.31,649.26h-11.01v-6.55h11.01v-22.73h8.23v22.73h12.06v6.55h-12.06v48.8h-8.23v-48.8Z"/>
          <path class="cls-1" d="M663.29,653.77c3.07-4.78,6.09-8.17,9.04-10.16,2.96-1.99,6.4-2.99,10.33-2.99,1.18,0,2.36.11,3.56.32,1.2.21,2.38.51,3.56.89l-2.71,7.2c-.9-.25-1.84-.46-2.81-.62-.97-.17-1.91-.25-2.81-.25-5.01,0-9.29,2.17-12.84,6.5-3.54,4.33-5.32,9.72-5.32,16.18v27.24h-8.37v-55.35h8.37v11.06Z"/>
          <path class="cls-1" d="M750.36,670.6h-47.82c.23,7.17,2.17,12.79,5.83,16.88,3.66,4.08,8.57,6.13,14.72,6.13,4.43,0,8.32-1.1,11.67-3.31,3.35-2.21,6.13-5.54,8.34-10l7.66,3.88c-3.07,5.61-6.84,9.74-11.29,12.38-4.45,2.64-9.91,3.96-16.37,3.96-8.81,0-15.95-2.72-21.39-8.15-5.45-5.43-8.17-12.56-8.17-21.38s2.7-16.4,8.1-21.98c5.4-5.58,12.46-8.37,21.19-8.37s14.98,2.57,20,7.71c5.02,5.14,7.52,12,7.52,20.58v1.68ZM740.46,664.04c-.41-5.07-2.24-9-5.49-11.79-3.26-2.79-7.67-4.18-13.23-4.18-5.07,0-9.31,1.46-12.72,4.37-3.42,2.91-5.39,6.78-5.93,11.6h37.38Z"/>
          <path class="cls-1" d="M766.01,621.1c0-1.62.63-3,1.9-4.14s2.78-1.71,4.55-1.71,3.29.57,4.58,1.71c1.29,1.14,1.93,2.52,1.93,4.14s-.62,3.05-1.87,4.17c-1.24,1.12-2.79,1.68-4.65,1.68s-3.34-.56-4.58-1.68c-1.24-1.12-1.87-2.51-1.87-4.17ZM768.18,698.06v-55.35h8.57v55.35h-8.57Z"/>
          <path class="cls-1" d="M843.94,698.06v-10.11c-1.99,4.08-4.78,7.19-8.37,9.34-3.59,2.14-7.82,3.22-12.7,3.22-8.62,0-15.56-2.73-20.82-8.18-5.26-5.45-7.89-12.65-7.89-21.61s2.6-16.1,7.79-21.7c5.19-5.6,11.9-8.4,20.12-8.4,5.1,0,9.51,1.03,13.24,3.09,3.73,2.06,6.6,5.08,8.64,9.08v-10.07h8.37v55.35h-8.37ZM803.44,670.96c0,7.16,1.75,12.68,5.25,16.55,3.5,3.87,8.5,5.81,15,5.81s11.3-2.11,14.94-6.34c3.63-4.23,5.45-10.04,5.45-17.46,0-6.79-1.81-12.13-5.42-16.02-3.61-3.89-8.56-5.84-14.83-5.84s-11.24,2.07-14.9,6.22c-3.66,4.14-5.49,9.84-5.49,17.08Z"/>
        </g>
      </g>
    </g>
    <g id="comunica_x5F_Grabado">
      <g>
        <path class="cls-4" d="M345.59,769.62l-.37,1.75c-.87.6-1.86,1.05-2.97,1.35-1.11.3-2.32.46-3.63.46-3.11,0-5.62-.9-7.55-2.69-1.93-1.79-2.89-4.13-2.89-7.01s.98-5.4,2.94-7.25c1.96-1.85,4.52-2.78,7.67-2.78,1.16,0,2.36.14,3.61.42,1.24.28,2.43.68,3.56,1.19-.21.54-.37,1.02-.5,1.43-.12.41-.25.91-.37,1.49h-.6c-.54-.98-1.29-1.74-2.27-2.29-.97-.54-2.07-.82-3.28-.82-2.08,0-3.75.79-5.01,2.39-1.25,1.59-1.88,3.71-1.88,6.37,0,2.33.72,4.27,2.15,5.81,1.43,1.54,3.23,2.31,5.4,2.31,1.06,0,2.07-.22,3.01-.65.95-.43,1.82-1.07,2.62-1.92l.37.44Z"/>
        <path class="cls-4" d="M369.08,770.48c-1.82-1.8-2.73-4.13-2.73-7.01s.97-5.39,2.91-7.25c1.94-1.85,4.47-2.78,7.58-2.78,2.92,0,5.28.9,7.1,2.69,1.82,1.8,2.73,4.14,2.73,7.03s-.97,5.39-2.9,7.24c-1.93,1.84-4.46,2.77-7.59,2.77-2.92,0-5.28-.9-7.1-2.69ZM381.08,769.38c1.14-1.58,1.72-3.69,1.72-6.33s-.54-4.63-1.63-6.05c-1.09-1.42-2.64-2.13-4.66-2.13-1.9,0-3.43.79-4.57,2.38-1.14,1.58-1.72,3.7-1.72,6.34s.54,4.63,1.64,6.04c1.09,1.41,2.64,2.12,4.66,2.12,1.9,0,3.43-.79,4.57-2.37Z"/>
        <path class="cls-4" d="M409.23,769.38c.06-1.79.08-3.83.08-6.12s-.03-4.25-.08-6.02c-.03-1.03-.06-1.78-.1-2.23-.04-.45-.1-.85-.16-1.18.57.09,1.21.14,1.93.14s1.36-.05,1.93-.14c-.07.13-.13.33-.16.6-.04.27-.08.75-.14,1.43l-.08,1.2c.35-.54.73-1.02,1.14-1.43,1.42-1.46,3.19-2.19,5.31-2.19,1.95,0,3.5.58,4.65,1.74.61.61,1.05,1.34,1.33,2.19.41-.64.86-1.22,1.35-1.74,1.43-1.46,3.2-2.19,5.32-2.19,1.95,0,3.5.58,4.64,1.73,1.14,1.15,1.71,2.71,1.71,4.68l-.02,3.41c0,2.29.03,4.32.08,6.12.03,1.03.06,1.77.1,2.23.04.45.09.85.16,1.18-.58-.07-1.24-.1-1.98-.1s-1.38.03-1.96.1c.07-.32.12-.71.16-1.17.04-.46.07-1.2.1-2.24.06-1.8.08-3.83.08-6.12l-.02-2.98c0-1.47-.37-2.62-1.12-3.46-.75-.83-1.78-1.25-3.1-1.25-1.69,0-2.98.54-3.85,1.62-.87,1.08-1.31,2.66-1.31,4.74v1.34c0,2.29.03,4.32.08,6.12.03,1.03.06,1.78.1,2.23.04.45.09.85.16,1.18-.58-.07-1.24-.1-1.98-.1s-1.38.03-1.96.1c.07-.34.12-.73.16-1.18.04-.45.07-1.19.1-2.23.06-1.8.08-3.83.08-6.12l-.02-2.98c0-1.47-.37-2.62-1.12-3.46-.75-.83-1.78-1.25-3.09-1.25-1.69,0-2.97.54-3.85,1.62-.88,1.08-1.32,2.66-1.32,4.74v1.34c0,2.29.03,4.32.08,6.12.03,1.03.06,1.78.1,2.24.04.46.09.85.16,1.17-.58-.07-1.24-.1-1.98-.1s-1.38.03-1.96.1c.07-.34.12-.73.16-1.18.04-.45.07-1.19.1-2.23Z"/>
        <path class="cls-4" d="M466.09,757.23l-.06,6.01v2.32c0,1.71.43,3.05,1.3,4.02.86.97,2.06,1.45,3.6,1.45,1.7,0,2.99-.54,3.87-1.61.88-1.08,1.32-2.65,1.32-4.73v-1.45c0-2.24-.03-4.25-.08-6.01-.03-1.03-.06-1.77-.11-2.22-.04-.45-.1-.85-.17-1.18.58.09,1.24.14,1.98.14s1.39-.05,1.97-.14c-.1.58-.18,1.33-.22,2.24-.04.91-.06,2.44-.06,4.58v8.73c0,.59.02,1.12.06,1.58.04.46.11,1.07.22,1.83-.53-.07-1.13-.1-1.81-.1s-1.26.03-1.79.1c.07-.36.13-.77.17-1.23.04-.46.09-1.19.15-2.18v-.02c-.39.59-.84,1.14-1.35,1.64-1.51,1.45-3.39,2.17-5.64,2.17-2.05,0-3.67-.61-4.87-1.82-1.2-1.21-1.8-2.85-1.8-4.91l.02-3.19c0-2.24-.03-4.25-.08-6.01-.03-1.03-.07-1.77-.11-2.22-.04-.45-.1-.85-.17-1.18.58.09,1.24.14,1.99.14s1.39-.05,1.97-.14c-.09.36-.16.77-.2,1.22-.04.45-.07,1.18-.08,2.19Z"/>
        <path class="cls-4" d="M503.69,769.38c.05-1.79.08-3.83.08-6.12.01-2.25-.01-4.25-.08-6.02-.06-1.14-.1-1.93-.14-2.39s-.08-.8-.14-1.02c.55.09,1.19.14,1.9.14s1.35-.05,1.9-.14c-.07.12-.12.31-.15.58-.03.27-.08.76-.13,1.45l-.08,1.15c.37-.49.77-.95,1.18-1.38,1.51-1.46,3.38-2.19,5.62-2.19,2.1,0,3.76.6,4.99,1.81,1.23,1.21,1.84,2.84,1.84,4.91v9.22c0,.61.02,1.13.06,1.59.04.45.11,1.06.22,1.82-.58-.07-1.24-.1-1.98-.1s-1.39.03-1.98.1c.07-.32.13-.71.17-1.17.04-.46.08-1.2.11-2.24.05-1.82.08-3.85.08-6.08v-2.21c0-1.73-.44-3.08-1.3-4.06-.87-.97-2.08-1.46-3.62-1.46-1.74,0-3.04.53-3.92,1.59s-1.31,2.65-1.31,4.76v1.34c0,2.29.03,4.32.08,6.12.03,1.03.07,1.78.11,2.23.04.45.1.85.17,1.18-.58-.07-1.25-.1-2-.1s-1.39.03-1.98.1c.07-.32.13-.72.17-1.18.04-.45.08-1.19.11-2.23Z"/>
        <path class="cls-4" d="M547.61,745.04c.6,0,1.1.19,1.51.57.41.38.61.85.61,1.41s-.2,1.03-.61,1.41c-.41.38-.91.57-1.51.57s-1.1-.19-1.51-.57c-.41-.38-.61-.85-.61-1.41s.2-1.03.61-1.41c.41-.38.91-.57,1.51-.57ZM545.87,769.38c.05-1.79.08-3.83.08-6.12s-.03-4.25-.08-6.02c-.03-1.03-.07-1.78-.11-2.23-.04-.45-.1-.85-.17-1.18.58.09,1.24.14,1.99.14s1.39-.05,1.97-.14c-.09.36-.16.77-.2,1.23-.04.46-.07,1.18-.08,2.18l-.06,6.02c0,2.29.03,4.33.08,6.12.03,1.03.06,1.78.11,2.23.04.45.1.85.17,1.18-.58-.07-1.25-.1-2-.1s-1.39.03-1.98.1c.07-.34.13-.73.17-1.18.04-.45.08-1.19.11-2.23Z"/>
        <path class="cls-4" d="M590.3,769.62l-.37,1.75c-.87.6-1.86,1.05-2.97,1.35-1.11.3-2.32.46-3.64.46-3.11,0-5.62-.9-7.55-2.69-1.93-1.79-2.89-4.13-2.89-7.01s.98-5.4,2.94-7.25c1.96-1.85,4.52-2.78,7.67-2.78,1.16,0,2.36.14,3.61.42,1.24.28,2.43.68,3.56,1.19-.21.54-.37,1.02-.5,1.43-.13.41-.25.91-.37,1.49h-.6c-.54-.98-1.29-1.74-2.27-2.29-.97-.54-2.07-.82-3.28-.82-2.08,0-3.75.79-5.01,2.39-1.25,1.59-1.88,3.71-1.88,6.37,0,2.33.71,4.27,2.15,5.81,1.43,1.54,3.23,2.31,5.4,2.31,1.06,0,2.07-.22,3.01-.65.94-.43,1.82-1.07,2.62-1.92l.37.44Z"/>
        <path class="cls-4" d="M616.84,773.17c-1.76,0-3.18-.47-4.27-1.41-1.09-.94-1.64-2.17-1.64-3.68,0-1.39.49-2.54,1.48-3.44.99-.9,2.44-1.52,4.35-1.86l5.25-.95c.62-.12,1.04-.29,1.25-.53.21-.24.32-.65.32-1.23v-.27c0-1.61-.42-2.83-1.25-3.67-.84-.84-2.07-1.25-3.69-1.25-1.31,0-2.41.25-3.31.76-.9.51-1.59,1.27-2.09,2.3h-.48s-.02-2.24-.02-2.24c.88-.68,1.92-1.23,3.11-1.64,1.19-.41,2.32-.61,3.41-.61,2.42,0,4.28.55,5.58,1.64,1.3,1.1,1.95,2.66,1.95,4.7v10.04c0,.63.11,1.11.33,1.43.22.32.54.48.96.48.3,0,.55-.03.75-.08l.23.88c-.79.43-1.8.64-3.05.63-.81,0-1.44-.34-1.89-1.01-.25-.41-.44-.94-.58-1.57-.44.42-.96.81-1.56,1.16-1.59.94-3.31,1.41-5.15,1.41ZM623.58,763.03l-3.98.7c-1.6.3-2.8.78-3.61,1.43-.8.66-1.2,1.5-1.2,2.54s.33,1.9.98,2.48c.65.58,1.57.87,2.78.87,1.34,0,2.49-.29,3.46-.87.62-.39,1.15-.86,1.57-1.43v-5.71Z"/>
        <path class="cls-4" d="M666.67,769.62l-.37,1.75c-.87.6-1.86,1.05-2.97,1.35-1.11.3-2.32.46-3.63.46-3.11,0-5.62-.9-7.55-2.69-1.93-1.79-2.89-4.13-2.89-7.01s.98-5.4,2.94-7.25c1.96-1.85,4.52-2.78,7.67-2.78,1.16,0,2.36.14,3.61.42,1.24.28,2.43.68,3.56,1.19-.21.54-.37,1.02-.5,1.43-.12.41-.25.91-.37,1.49h-.6c-.54-.98-1.29-1.74-2.27-2.29-.97-.54-2.07-.82-3.28-.82-2.08,0-3.75.79-5.01,2.39-1.25,1.59-1.88,3.71-1.88,6.37,0,2.33.72,4.27,2.15,5.81,1.44,1.54,3.24,2.31,5.4,2.31,1.06,0,2.07-.22,3.01-.65.95-.43,1.82-1.07,2.62-1.92l.37.44Z"/>
        <path class="cls-4" d="M691.72,745.04c.6,0,1.1.19,1.51.57.41.38.61.85.61,1.41s-.2,1.03-.61,1.41c-.41.38-.91.57-1.51.57s-1.1-.19-1.51-.57c-.41-.38-.61-.85-.61-1.41s.2-1.03.61-1.41c.41-.38.91-.57,1.51-.57ZM689.97,769.38c.05-1.79.08-3.83.08-6.12s-.03-4.25-.08-6.02c-.03-1.03-.07-1.78-.11-2.23-.04-.45-.1-.85-.17-1.18.58.09,1.24.14,1.99.14s1.39-.05,1.97-.14c-.09.36-.16.77-.2,1.23-.04.46-.07,1.18-.08,2.18l-.06,6.02c0,2.29.03,4.33.08,6.12.03,1.03.07,1.78.11,2.23.04.45.1.85.17,1.18-.58-.07-1.25-.1-2-.1s-1.39.03-1.98.1c.07-.34.13-.73.17-1.18.04-.45.08-1.19.11-2.23Z"/>
        <path class="cls-4" d="M719.71,770.48c-1.82-1.8-2.73-4.13-2.73-7.01s.97-5.39,2.91-7.25c1.94-1.85,4.47-2.78,7.58-2.78,2.92,0,5.29.9,7.1,2.69,1.82,1.8,2.73,4.14,2.73,7.03s-.97,5.39-2.9,7.24c-1.93,1.84-4.46,2.77-7.59,2.77-2.92,0-5.28-.9-7.1-2.69ZM731.72,769.38c1.15-1.58,1.72-3.69,1.72-6.33s-.54-4.63-1.64-6.05c-1.09-1.42-2.64-2.13-4.66-2.13-1.9,0-3.43.79-4.57,2.38-1.15,1.58-1.72,3.7-1.72,6.34s.54,4.63,1.64,6.04c1.09,1.41,2.64,2.12,4.66,2.12,1.9,0,3.43-.79,4.57-2.37Z"/>
        <path class="cls-4" d="M759.97,769.38c.05-1.79.08-3.83.08-6.12.01-2.25-.01-4.25-.08-6.02-.06-1.14-.1-1.93-.14-2.39-.03-.46-.08-.8-.14-1.02.55.09,1.19.14,1.9.14s1.35-.05,1.9-.14c-.07.12-.12.31-.15.58-.03.27-.08.76-.13,1.45l-.08,1.15c.37-.49.77-.95,1.18-1.38,1.51-1.46,3.38-2.19,5.62-2.19,2.1,0,3.76.6,4.99,1.81,1.23,1.21,1.84,2.84,1.84,4.91v9.22c0,.61.02,1.13.06,1.59.04.45.11,1.06.22,1.82-.58-.07-1.24-.1-1.98-.1s-1.39.03-1.98.1c.07-.32.13-.71.17-1.17.04-.46.08-1.2.11-2.24.05-1.82.08-3.85.08-6.08v-2.21c0-1.73-.44-3.08-1.3-4.06-.87-.97-2.08-1.46-3.62-1.46-1.74,0-3.04.53-3.92,1.59s-1.31,2.65-1.31,4.76v1.34c0,2.29.03,4.32.08,6.12.03,1.03.07,1.78.11,2.23.04.45.1.85.17,1.18-.58-.07-1.25-.1-2-.1s-1.39.03-1.98.1c.07-.32.13-.72.17-1.18.04-.45.08-1.19.11-2.23Z"/>
        <path class="cls-4" d="M809.17,773.17c-2.88,0-5.21-.9-6.99-2.69-1.78-1.79-2.68-4.14-2.68-7.03s.87-5.4,2.61-7.24c1.74-1.85,4.01-2.77,6.82-2.77h.04c2.83,0,4.99.75,6.49,2.24,1.31,1.31,2.05,3.15,2.22,5.51.04.45.06.91.06,1.39l-.04,1.06v.02c-.62-.09-1.63-.17-3.03-.23-1.4-.06-2.79-.1-4.19-.1h-7.22v.74c0,2.45.6,4.34,1.8,5.67,1.2,1.33,2.9,1.99,5.1,1.99,1.32,0,2.54-.24,3.67-.73,1.14-.49,2.18-1.23,3.13-2.2l.37.46c-.1.34-.17.62-.23.86-.06.24-.1.53-.14.88-1.09.72-2.29,1.26-3.6,1.63-1.31.36-2.71.54-4.2.54ZM813.81,761.64v-.77c0-1.79-.46-3.24-1.36-4.34-.91-1.1-2.11-1.65-3.6-1.65-1.85,0-3.24.78-4.17,2.32-.66,1.08-1.1,2.56-1.3,4.44h10.44Z"/>
        <path class="cls-4" d="M849.5,757.45c-.39-.84-.94-1.49-1.64-1.96-.71-.46-1.52-.69-2.43-.69-1.04,0-1.89.31-2.55.92-.66.61-.99,1.4-.99,2.36s.34,1.66,1.02,2.23c.66.56,1.76,1.02,3.3,1.38,2.05.49,3.49,1.12,4.34,1.88.83.76,1.24,1.83,1.24,3.21,0,1.8-.72,3.31-2.15,4.54-1.43,1.23-3.19,1.85-5.27,1.85-1.26,0-2.35-.12-3.28-.35-.93-.23-1.7-.58-2.3-1.06.26-.53.47-.99.64-1.38.17-.39.34-.86.54-1.42.53.92,1.21,1.63,2.06,2.12.84.49,1.8.74,2.87.74,1.23,0,2.24-.33,3.03-1,.79-.67,1.19-1.52,1.19-2.57,0-.9-.34-1.64-1.02-2.19-.68-.56-1.79-1.02-3.34-1.4-2.07-.49-3.53-1.15-4.37-2-.83-.84-1.24-2.05-1.24-3.64s.63-2.88,1.9-3.96c1.27-1.08,2.82-1.62,4.66-1.62,1.01,0,1.96.12,2.85.35.88.23,1.65.56,2.3.99-.31.49-.55.92-.73,1.3-.19.37-.4.83-.62,1.37Z"/>
      </g>
    </g>
  </g>
</svg>