<?xml version="1.0" encoding="UTF-8"?>
<svg xmlns="http://www.w3.org/2000/svg" version="1.1" viewBox="0 0 1133.86 1133.86">
  <defs>
    <style>
      .cls-1 {
        stroke: #c71343;
      }

      .cls-1, .cls-2, .cls-3 {
        fill: none;
        stroke-miterlimit: 10;
      }

      .cls-2 {
        stroke: #1d1d1b;
        stroke-width: .25px;
      }

      .cls-3 {
        stroke: #e52622;
        stroke-width: .5px;
      }
    </style>
  </defs>
  <!-- Generator: Adobe Illustrator 28.7.1, SVG Export Plug-In . SVG Version: 1.2.0 Build 142)  -->
  <g>
    <g id="madera">
      <path class="cls-2" d="M977.57,676.38h-28.29v83.61c0,13.5-11.42,29.72-23.11,36.47l-338.72,197.11c-11.69,6.75-30.78,7.65-42.03,0l-338.72-197.11c-12.13-5.86-22.01-22.97-22.01-36.47v-83.61h-29.06v-228.12h28.18v-83.61c0-13.5,11.42-29.72,23.12-36.47l338.71-197.11c11.69-6.75,30.78-7.64,42.03,0l338.72,197.11c12.14,5.86,22.01,22.97,22.01,36.47v83.61h29.17v228.12Z"/>
    </g>
    <g id="imanes">
      <circle class="cls-3" cx="212.32" cy="369.56" r="15.59"/>
      <circle class="cls-3" cx="920.98" cy="369.56" r="15.59"/>
      <circle class="cls-3" cx="212.32" cy="755.07" r="15.59"/>
      <circle class="cls-3" cx="920.98" cy="755.07" r="15.59"/>
      <circle class="cls-3" cx="566.65" cy="159.8" r="15.59"/>
      <circle class="cls-3" cx="566.65" cy="964.84" r="15.59"/>
    </g>
    <g id="R_Corte">
      <path class="cls-1" d="M693.98,771.98c-11.59,0-21.44-.72-29.55-2.17-8.11-1.45-14.68-3.52-19.7-6.23-5.6-3.28-11.06-8.16-16.37-14.63-5.31-6.47-10.19-14.82-14.63-25.06l-36.79-79.95c-10.63-23.56-15.93-39.78-15.93-48.67,0-3.48.29-6.66.87-9.56.58-2.9,1.59-5.8,3.04-8.69,1.45-2.9,3.48-6.03,6.08-9.41,2.61-3.38,6.03-7.19,10.29-11.44l19.99-20.28c16.22-17.96,24.33-36.79,24.33-56.49,0-3.86-.43-8.26-1.3-13.18-.87-4.92-2.36-10.38-4.48-16.37-14.07-32.06-39.31-48.09-75.73-48.09-6.74,0-13.97.92-21.68,2.75-7.71,1.84-15.71,4.69-23.99,8.55v358.92h-116.46v-418.88h192.93c7.14,0,13.42.2,18.83.58,20.47.58,37.66,3,51.56,7.24,14.29,4.05,27.18,9.75,38.67,17.09,11.49,7.34,21.29,15.98,29.41,25.93,8.11,9.95,14.38,20.96,18.83,33.02,4.44,12.07,6.76,24.67,6.95,37.81.38,11.4-1.21,22.21-4.78,32.44-3.58,10.24-8.94,20.18-16.08,29.84-1.16,1.55-5.12,5.79-11.88,12.74-6.76,6.95-16.22,16.51-28.39,28.68-9.08,11.4-13.62,19.89-13.62,25.49,0,6.95,5.69,13.9,17.09,20.86,14.29,9.08,25.59,22.31,33.89,39.69l50.41,107.47h-71.84Z"/>
    </g>
  </g>
</svg>