<?xml version="1.0" encoding="UTF-8"?>
<svg xmlns="http://www.w3.org/2000/svg" version="1.1" viewBox="0 0 1133.86 1133.86">
  <defs>
    <style>
      .cls-1 {
        stroke: #1d1d1b;
        stroke-width: .25px;
      }

      .cls-1, .cls-2, .cls-3 {
        fill: none;
        stroke-miterlimit: 10;
      }

      .cls-2 {
        stroke: #e52622;
        stroke-width: .5px;
      }

      .cls-3 {
        fill-rule: evenodd;
        stroke: #9f4b96;
      }
    </style>
  </defs>
  <!-- Generator: Adobe Illustrator 28.7.1, SVG Export Plug-In . SVG Version: 1.2.0 Build 142)  -->
  <g>
    <g id="madera">
      <path class="cls-1" d="M977.57,676.38h-28.29v83.61c0,13.5-11.42,29.72-23.11,36.47l-338.72,197.11c-11.69,6.75-30.78,7.65-42.03,0l-338.72-197.11c-12.13-5.86-22.01-22.97-22.01-36.47v-83.61h-29.06v-228.12h28.18v-83.61c0-13.5,11.42-29.72,23.12-36.47l338.71-197.11c11.69-6.75,30.78-7.64,42.03,0l338.72,197.11c12.14,5.86,22.01,22.97,22.01,36.47v83.61h29.17v228.12Z"/>
    </g>
    <g id="imanes">
      <circle class="cls-2" cx="212.32" cy="369.56" r="15.59"/>
      <circle class="cls-2" cx="920.98" cy="369.56" r="15.59"/>
      <circle class="cls-2" cx="212.32" cy="755.07" r="15.59"/>
      <circle class="cls-2" cx="920.98" cy="755.07" r="15.59"/>
      <circle class="cls-2" cx="566.65" cy="159.8" r="15.59"/>
      <circle class="cls-2" cx="566.65" cy="964.84" r="15.59"/>
    </g>
    <g id="quobis_Corte">
      <path class="cls-3" d="M265.37,510.97c3.28,0,6.36.38,9.44,1.35,3.08.96,5.97,2.31,8.87,3.85,2.89,1.73,5.4,3.46,7.71,5.2,2.31,1.92,4.43,4.04,6.17,6.16h0l1.93-6.54c.77-2.5,1.93-5.58,3.08-9.24h14.27v148.91h-18.89v-55.41c0-.32-.01-.58-.04-.85h0v-49.97c-.28-.9-.56-1.8-.92-2.66-1.73-4.23-4.44-8.08-7.71-11.74-3.28-3.66-7.13-6.16-11.38-7.89-4.05-1.73-8.68-2.69-13.49-2.69s-9.44.96-13.49,2.69c-4.05,1.73-7.91,4.23-11.18,7.89-3.47,3.66-5.98,7.5-7.71,11.74-1.73,4.23-2.7,8.85-2.7,13.85s.77,9.62,2.5,13.85c1.74,4.23,4.44,8.08,7.71,11.74,3.28,3.66,7.13,6.16,11.38,7.89,4.05,1.73,8.67,2.69,13.49,2.69s9.44-.96,13.49-2.69c.18-.08.36-.17.54-.25h0v19.64c-.57.2-1.11.44-1.7.62-2.89.96-6.17,1.73-9.64,1.92-4.05.19-7.91,0-11.95-.77-4.05-.77-8.29-2.11-12.72-3.85-4.43-1.73-8.29-4.23-11.95-7.12-3.47-2.88-6.75-6.15-9.64-10-1.54-2.12-2.89-4.23-4.24-6.73-1.16-2.5-2.12-5-3.09-7.5-.96-2.69-1.54-5.58-1.92-8.47-.58-2.88-.77-5.96-.77-9.24,0-3.66.19-7.12.77-10.39.39-3.27.96-6.16,1.92-9.04.96-2.89,1.93-5.58,3.09-8.08,1.35-2.5,2.7-5,4.24-7.12,2.89-4.04,6.17-7.31,9.64-10.2,3.66-2.88,7.52-5.19,11.57-6.93,3.66-1.54,7.33-2.69,10.99-3.46,3.66-.77,7.13-1.16,10.41-1.16h1.93ZM361.07,510.97v62.43c0,4.76.57,8.76,1.53,11.99,1.14,3.23,2.86,5.9,4.96,7.61,2.1,1.71,4.58,3.23,7.26,4.19,2.86.95,5.73,1.33,8.97,1.33,4.77,0,9.35-.76,13.36-2.28,4.01-1.52,7.45-3.81,10.31-7.04,2.86-3.24,5.34-6.66,6.68-10.28,1.52-3.81,2.1-7.99,2.1-12.37h0v-55.58h19.09c-.1,26.36-.14,48.35-.17,65.93v4.69c0,2.29-.01,4.5-.01,6.62v6.13c0,.65,0,1.3,0,1.93v20.15h-14.9l-4.39-16.37v-.57c-1.72,2.47-3.43,4.76-5.54,6.85-2.1,2.09-4.39,3.81-6.87,5.14-2.48,1.52-5.35,2.67-8.21,3.62-2.87.95-5.92,1.52-9.17,1.71-.96.19-1.72.19-2.48.19h-2.48c-5.16,0-10.12-.76-14.51-2.28-4.58-1.52-8.79-3.81-12.41-7.04-4.2-3.62-7.26-8.37-9.35-14.09-2.1-5.71-3.05-12.56-3.05-20.37h0v-62.24h19.28ZM513.2,510.97c4.72,0,9.45.57,13.79,1.7,4.35,1.13,8.51,2.83,12.47,5.28,3.97,2.26,7.37,4.91,10.59,7.92,3.21,3.02,5.86,6.41,8.32,10.19,1.32,2.07,2.46,4.15,3.4,6.23.94,2.26,1.89,4.53,2.45,6.98.57,2.45,1.14,4.71,1.51,7.17.38,2.45.56,4.91.56,7.36,0,2.64-.19,5.28-.56,7.73-.38,2.45-.94,4.72-1.51,7.17-.57,2.45-1.51,4.72-2.45,6.79-.95,2.26-2.08,4.34-3.4,6.41-2.46,3.77-5.1,7.17-8.32,10.19-3.21,3.02-6.62,5.66-10.59,7.92-3.97,2.45-8.13,4.15-12.47,5.28-4.34,1.13-9.07,1.7-13.79,1.7s-9.26-.57-13.61-1.7c-4.35-1.13-8.51-2.83-12.47-5.28-3.97-2.26-7.56-4.91-10.58-7.92-3.21-3.02-5.86-6.41-8.32-10.19-1.32-2.08-2.46-4.15-3.4-6.41-.95-2.08-1.89-4.34-2.46-6.79-.56-2.45-1.13-4.72-1.51-7.17-.38-2.45-.57-5.09-.57-7.54s.19-4.91.57-7.36c.38-2.45.95-4.72,1.51-7.17.57-2.45,1.51-4.72,2.46-6.98.94-2.26,2.08-4.34,3.4-6.41,2.46-3.77,5.1-7.17,8.32-10.19,3.02-3.02,6.62-5.66,10.58-7.92,3.97-2.45,8.13-4.15,12.47-5.28,4.35-1.13,8.89-1.7,13.61-1.7ZM734.69,510.97v106.02h-18.71v-106.02h18.71ZM803.48,510.97c1.31,0,2.62,0,3.93.19h0l4.12.38c3.74.38,7.67,1.7,11.78,3.4,4.12,1.89,8.42,4.54,12.73,7.75-4.31,6.43-7.67,11.15-9.92,14.36-.56-.57-1.31-.94-2.06-1.51h0l-2.62-1.32-5.98-2.83c-2.06-.95-3.93-1.51-5.99-2.08-2.06-.38-4.3-.76-6.36-.94-2.06-.19-4.12.19-6.17.76-1.87.57-3.55,1.51-5.24,2.83-.93.76-1.87,1.51-2.43,2.46h0l-1.68,2.65c-.56.94-.75,1.89-.94,2.84-.19.94-.37,1.89-.19,2.83.19.95.37,1.7.75,2.65.37.94.94,1.7,1.49,2.46.56.95,1.13,1.7,2.06,2.27h0l2.62,1.7,3.74,1.7c1.31.57,2.81.95,4.49,1.51h0l9.54,2.84,3.37,1.13c1.12.38,2.25.76,3.55.95h0l3.18,1.13,2.8,1.13c2.43.95,4.68,2.27,6.74,3.97,1.87,1.7,3.55,3.59,5.05,5.67,1.31,2.08,2.62,4.16,3.55,6.62.94,2.46,1.31,4.91,1.31,7.37h0v1.32c0,2.46-.37,4.73-.94,6.8-.56,2.08-1.31,4.35-2.62,6.43-1.31,2.27-2.81,4.35-4.49,6.05-1.69,1.89-3.74,3.59-6.17,4.91-1.68.94-3.55,1.89-5.24,2.46h0l-5.62,1.7c-2.06.57-3.93.94-5.8,1.13-2.06.19-3.93.38-5.8.38-4.31,0-8.42-.38-12.35-1.32-3.93-.94-7.86-2.26-11.6-4.34h0l-8.98-4.91c-2.43-1.32-4.3-2.84-5.24-3.78h0l10.47-13.99c.56.57,1.68.95,3.18,1.89h0l5.43,3.21c2.25,1.32,4.68,2.27,7.11,3.21,2.43.76,5.05,1.32,7.86,1.89,1.5.19,2.99.38,4.49.38,1.49.19,2.99,0,4.68-.19,1.5-.19,3-.57,4.49-.95,1.5-.57,2.99-1.13,4.3-2.08.94-.56,1.69-1.13,2.43-1.89.75-.76,1.31-1.51,1.87-2.46.56-.95.94-1.7,1.12-2.65.19-.94.37-1.7.19-2.64h0l-.56-2.46c-.19-.94-.56-1.7-1.12-2.46-.56-.76-1.13-1.51-2.06-2.08h0l-2.8-1.7-5.24-1.7-3.55-1.14c-1.12-.38-2.25-.76-3.37-.94h0l-4.87-1.51-5.05-1.51-5.05-1.89-4.31-1.89c-2.62-1.14-4.49-2.65-6.36-4.16-2.06-1.51-3.74-3.21-5.05-5.29-1.31-2.08-2.43-4.16-3.18-6.24-.93-2.27-1.49-4.54-1.68-6.99-.18-2.46-.18-4.91.19-7.18.37-2.46,1.12-4.72,2.06-6.99.93-2.27,2.24-4.35,3.74-6.43,1.5-2.08,3.37-4.16,5.43-5.67.56-.57,1.31-.95,2.06-1.51.94-.38,1.87-.94,2.8-1.51.94-.56,2.06-.94,3.18-1.32h0l3.93-1.51c1.69-.57,3.37-.76,5.05-.94,1.87-.19,3.74-.38,5.8-.38ZM610.14,467.32v55.41c0,.32,0,.58.04.85h0v49.97c.28.9.56,1.8.92,2.67,1.73,4.23,4.44,8.08,7.71,11.74,3.28,3.66,7.13,6.16,11.38,7.89,4.05,1.73,8.68,2.69,13.49,2.69s9.44-.96,13.49-2.69c4.05-1.73,7.9-4.23,11.18-7.89,3.47-3.66,5.98-7.5,7.71-11.74,1.73-4.23,2.7-8.85,2.7-13.85s-.77-9.62-2.5-13.85c-1.74-4.23-4.44-8.08-7.71-11.74-3.28-3.66-7.14-6.16-11.38-7.89-4.05-1.73-8.68-2.69-13.49-2.69s-9.44.96-13.49,2.69c-.19.07-.36.17-.54.25h0v-19.64c.57-.2,1.11-.44,1.69-.62,2.89-.96,6.17-1.73,9.64-1.92,4.05-.19,7.9,0,11.95.77,4.05.77,8.29,2.12,12.72,3.85,4.43,1.73,8.29,4.23,11.95,7.12,3.47,2.89,6.75,6.15,9.64,10,1.54,2.11,2.89,4.23,4.24,6.73,1.16,2.5,2.12,5,3.09,7.5.96,2.69,1.54,5.58,1.92,8.46.58,2.89.77,5.96.77,9.24,0,3.66-.19,7.12-.77,10.39-.39,3.27-.96,6.16-1.92,9.04-.97,2.89-1.93,5.58-3.09,8.08-1.35,2.5-2.7,5-4.24,7.12-2.89,4.04-6.17,7.31-9.64,10.2-3.66,2.88-7.52,5.19-11.57,6.93-3.66,1.54-7.33,2.69-10.99,3.46-3.66.77-7.13,1.15-10.41,1.15h-1.93c-3.28,0-6.36-.38-9.44-1.35-3.08-.96-5.97-2.31-8.87-3.85-2.89-1.73-5.39-3.46-7.71-5.19-2.31-1.92-4.43-4.04-6.17-6.16h0l-1.93,6.54c-.77,2.5-1.93,5.58-3.08,9.24h-14.27v-148.91h18.89ZM513.2,529.46c-4.72,0-9.26.94-13.23,2.64-3.97,1.7-7.75,4.15-11.15,7.55-3.21,3.39-5.86,7.17-7.56,11.13-1.7,3.96-2.46,8.49-2.46,13.21s.76,9.05,2.46,13.2c1.7,3.96,4.35,7.73,7.56,11.13,3.4,3.4,7.18,5.85,11.15,7.55,3.97,1.7,8.5,2.64,13.23,2.64s9.26-.94,13.23-2.64c4.16-1.7,7.94-4.15,11.15-7.55,3.4-3.4,6.05-7.17,7.75-11.13,1.7-4.15,2.64-8.49,2.64-13.2-.19-4.72-.94-9.24-2.64-13.21-1.7-3.96-4.35-7.74-7.75-11.13-3.21-3.4-6.99-5.85-11.15-7.55-3.97-1.7-8.5-2.64-13.23-2.64ZM909.31,573.34c6.89,0,12.47,5.58,12.47,12.47s-5.58,12.47-12.47,12.47-12.47-5.58-12.47-12.47,5.58-12.47,12.47-12.47ZM909.31,529.68c6.89,0,12.47,5.58,12.47,12.47s-5.58,12.47-12.47,12.47-12.47-5.58-12.47-12.47,5.58-12.47,12.47-12.47ZM728.45,467.32c6.89,0,12.47,5.58,12.47,12.47s-5.58,12.47-12.47,12.47-12.47-5.58-12.47-12.47,5.58-12.47,12.47-12.47Z"/>
    </g>
  </g>
</svg>