<?xml version="1.0" encoding="UTF-8"?>
<svg xmlns="http://www.w3.org/2000/svg" version="1.1" viewBox="0 0 1133.86 1133.86">
  <defs>
    <style>
      .cls-1 {
        stroke: #1d1d1b;
        stroke-width: .25px;
      }

      .cls-1, .cls-2, .cls-3 {
        fill: none;
        stroke-miterlimit: 10;
      }

      .cls-2 {
        stroke: #2d4999;
      }

      .cls-3 {
        stroke: #e52622;
        stroke-width: .5px;
      }
    </style>
  </defs>
  <!-- Generator: Adobe Illustrator 28.7.1, SVG Export Plug-In . SVG Version: 1.2.0 Build 142)  -->
  <g>
    <g id="madera">
      <path class="cls-1" d="M977.57,676.38h-28.29v83.61c0,13.5-11.42,29.72-23.11,36.47l-338.72,197.11c-11.69,6.75-30.78,7.65-42.03,0l-338.72-197.11c-12.13-5.86-22.01-22.97-22.01-36.47v-83.61h-29.06v-228.12h28.18v-83.61c0-13.5,11.42-29.72,23.12-36.47l338.71-197.11c11.69-6.75,30.78-7.64,42.03,0l338.72,197.11c12.14,5.86,22.01,22.97,22.01,36.47v83.61h29.17v228.12Z"/>
    </g>
    <g id="imanes">
      <circle class="cls-3" cx="212.32" cy="369.56" r="15.59"/>
      <circle class="cls-3" cx="920.98" cy="369.56" r="15.59"/>
      <circle class="cls-3" cx="212.32" cy="755.07" r="15.59"/>
      <circle class="cls-3" cx="920.98" cy="755.07" r="15.59"/>
      <circle class="cls-3" cx="566.65" cy="159.8" r="15.59"/>
      <circle class="cls-3" cx="566.65" cy="964.84" r="15.59"/>
    </g>
    <g id="marine_Corte">
      <path class="cls-2" d="M883.36,608.53h-40.77l-.11-9.99h0v-.2h27.57c-3.8-7.69-10.61-11.89-17.52-12.35-6.17-.41-12.43,2.16-16.72,7.88-3.79,5.06-4.98,13.41-2.63,19.31,6.08,15.31,26.36,17.84,37.46,4.18l9.29,7.02c-19.06,24.73-59.6,13.62-59.6-18.58,0-42.11,63.48-41.3,63.05,2.72"/>
      <path class="cls-2" d="M755.12,636.24v-60.35h12.43v10.01c3.67-4.05,6.97-6.99,9.96-8.89,12-7.56,29.76.94,29.76,15.63v43.59h-12.73v-39.87c0-19.07-26.84-11.54-26.84,7.04v32.83h-12.58Z"/>
      <rect class="cls-2" x="725.88" y="575.89" width="12.58" height="60.35"/>
      <path class="cls-2" d="M722.29,556.07c0-12.65,19.6-12.75,19.6,0s-19.6,12.67-19.6,0"/>
      <path class="cls-2" d="M688.86,575.89v12.43c5.63-9.83,12.3-16.32,24.14-13.23l-3.87,12.74c-27.34-5.59-19.97,32.84-19.97,48.41h-12.73v-60.35h12.43Z"/>
      <path class="cls-2" d="M642.91,575.89h12.73v60.35h-12.73v-11.99l-.02.03c0-10.17,3.51-24.51-4.22-32.19-12.19-12.12-34.23-3.85-34.23,13.71,0,14.82,15.51,25.31,28.95,18.5v9.65c-20.31,13.15-42.34-6.77-42.34-28.15,0-28.66,36.69-44.42,51.86-17.63v-12.28Z"/>
      <path class="cls-2" d="M490.98,636.24v-60.35h12.58v9.29c10.31-13.17,27.87-16.43,35.26,1.62,4.87-6.74,10.6-12.58,19.45-12.58,9.81,0,17.55,8.49,17.55,18.13v43.89h-12.63v-40.6c0-6.69-3.3-10.01-9.89-10.01-19.27,0-13.46,39.22-13.46,50.61h-12.73v-38.93c0-20.05-23.55-11.85-23.55,4.92v34.01h-12.58Z"/>
      <path class="cls-2" d="M880.85,686.14l-8.49,7.46c-4.28-3.07-19.18-9.92-19.18.95,0,9.79,28.31,9.51,28.31,27.51,0,10.96-10.47,18.93-20.85,18.93-8.54,0-15.53-3.94-21-11.83l10.04-4.84c12.71,12.44,32.44-2.54,10.46-11.11-12.73-4.9-27.58-17.71-12.71-30.91,10.63-9.3,23.87-4.11,33.41,3.85"/>
      <polygon class="cls-2" points="807.91 661.42 820.65 661.42 820.65 678.97 833.23 678.97 833.23 690.61 820.65 690.61 820.65 739.32 807.91 739.32 807.91 690.61 797.9 690.61 797.9 678.82 807.91 678.82 807.91 661.42"/>
      <path class="cls-2" d="M735.86,739.32v-60.35h12.43v10.01c3.67-4.04,6.97-6.99,9.96-8.89,12-7.56,29.76.94,29.76,15.63v43.6h-12.74v-39.87c0-19.07-26.84-11.54-26.84,7.04v32.83h-12.58Z"/>
      <path class="cls-2" d="M562.2,739.32v-60.35h12.58v9.29c10.31-13.17,27.87-16.43,35.26,1.62,4.87-6.74,10.6-12.58,19.45-12.58,9.8,0,17.55,8.49,17.55,18.13v43.9h-12.63v-40.6c0-6.69-3.29-10.01-9.89-10.01-19.27,0-13.46,39.22-13.46,50.61h-12.73v-38.93c0-20.05-23.55-11.85-23.55,4.92v34.01h-12.58Z"/>
      <path class="cls-2" d="M495.56,678.97h12.73v34.01c0,21.62,27.14,20.28,27.14,0v-34.01h12.58c0,22.01,7.3,62.02-26.27,62.02s-26.19-39.96-26.19-62.02"/>
      <path class="cls-2" d="M458.98,678.97v12.43c5.63-9.83,12.3-16.32,24.14-13.23l-3.87,12.73c-27.34-5.59-19.97,32.84-19.97,48.41h-12.73v-60.35h12.43Z"/>
      <polygon class="cls-2" points="408.37 661.42 421.1 661.42 421.1 678.97 433.69 678.97 433.69 690.61 421.1 690.61 421.1 739.32 408.37 739.32 408.37 690.61 398.36 690.61 398.36 678.82 408.37 678.82 408.37 661.42"/>
      <path class="cls-2" d="M390.82,686.14l-8.49,7.46c-4.28-3.07-19.18-9.92-19.18.95,0,9.79,28.31,9.51,28.31,27.51,0,10.96-10.47,18.93-20.85,18.93-8.54,0-15.53-3.94-21-11.83l10.04-4.84c12.71,12.44,32.44-2.54,10.46-11.11-12.73-4.9-27.58-17.71-12.71-30.91,10.63-9.3,23.87-4.11,33.41,3.85"/>
      <path class="cls-2" d="M286.42,739.32v-60.35h12.43v10.01c3.67-4.04,6.97-6.99,9.96-8.89,12-7.56,29.76.94,29.76,15.63v43.6h-12.73v-39.87c0-19.07-26.84-11.54-26.84,7.04v32.83h-12.58Z"/>
      <rect class="cls-2" x="257.19" y="678.97" width="12.58" height="60.35"/>
      <path class="cls-2" d="M253.59,659.15c0-12.65,19.6-12.75,19.6,0s-19.6,12.67-19.6,0"/>
      <path class="cls-2" d="M723.64,711.73h-40.77l-.1-9.99h0v-.2h27.57c-3.8-7.69-10.61-11.89-17.53-12.35-6.17-.41-12.43,2.16-16.72,7.88-3.79,5.06-4.98,13.41-2.63,19.31,6.09,15.31,26.36,17.84,37.46,4.18l9.29,7.02c-19.06,24.73-59.6,13.62-59.6-18.58,0-42.11,63.48-41.3,63.05,2.72"/>
      <path class="cls-2" d="M415.62,365.98c22.72,0,43.59,7.98,59.94,21.28.07.06.14.12.21.17.01,0,.04.02.03.02l-22.97,16.03c-.27-.17-.53-.34-.8-.51-.11-.07-.23-.14-.34-.22-43.8-27.17-104.57,3.93-104.57,58.26,0,37.84,30.68,68.51,68.51,68.51,43.68,0,75.59-41.01,67.1-82.36-.05-.25-.43-1.27-.29-1.36l23.34-14.95c.07-.05.05.16.08.24.22.66.43,1.32.63,1.98,18.09,58.98-26.27,122.97-90.86,122.97-18.69,0-36.11-5.4-50.81-14.72l-42.08,62.46-2.52-77.53-70.04-48.24,71.44-3.02c-.67-4.57-1.03-9.23-1.03-13.98,0-52.49,42.55-95.04,95.04-95.04"/>
      <rect class="cls-2" x="396.87" y="416.67" width="121.06" height="27.4" transform="translate(-160.8 319.62) rotate(-33.1)"/>
    </g>
  </g>
</svg>