<?xml version="1.0" encoding="UTF-8"?>
<svg xmlns="http://www.w3.org/2000/svg" version="1.1" viewBox="0 0 1133.86 1133.86">
  <defs>
    <style>
      .cls-1 {
        stroke: #1d1d1b;
        stroke-width: .25px;
      }

      .cls-1, .cls-2, .cls-3 {
        fill: none;
        stroke-miterlimit: 10;
      }

      .cls-2 {
        stroke: #e52622;
        stroke-width: .5px;
      }

      .cls-3 {
        stroke: #1f3c90;
      }
    </style>
  </defs>
  <!-- Generator: Adobe Illustrator 28.7.1, SVG Export Plug-In . SVG Version: 1.2.0 Build 142)  -->
  <g>
    <g id="madera">
      <path class="cls-1" d="M977.57,676.38h-28.29v83.61c0,13.5-11.42,29.72-23.11,36.47l-338.72,197.11c-11.69,6.75-30.78,7.65-42.03,0l-338.72-197.11c-12.13-5.86-22.01-22.97-22.01-36.47v-83.61h-29.06v-228.12h28.18v-83.61c0-13.5,11.42-29.72,23.12-36.47l338.71-197.11c11.69-6.75,30.78-7.64,42.03,0l338.72,197.11c12.14,5.86,22.01,22.97,22.01,36.47v83.61h29.17v228.12Z"/>
    </g>
    <g id="imanes">
      <circle class="cls-2" cx="212.32" cy="369.56" r="15.59"/>
      <circle class="cls-2" cx="920.98" cy="369.56" r="15.59"/>
      <circle class="cls-2" cx="212.32" cy="755.07" r="15.59"/>
      <circle class="cls-2" cx="920.98" cy="755.07" r="15.59"/>
      <circle class="cls-2" cx="566.65" cy="159.8" r="15.59"/>
      <circle class="cls-2" cx="566.65" cy="964.84" r="15.59"/>
    </g>
    <g id="Optare_Corte">
      <g>
        <g>
          <path class="cls-3" d="M339.8,541.63c0,34.42-27.27,58.11-60.8,58.11s-61.02-23.69-61.02-58.11,27.49-58.12,61.02-58.12,60.8,23.69,60.8,58.12ZM251.07,541.4c0,13.86,8.72,29.29,27.94,29.29s27.94-14.98,27.94-29.06-8.72-28.83-27.94-28.83-27.94,14.3-27.94,28.61Z"/>
          <path class="cls-3" d="M547.87,593.15c-4.92,1.56-17.75,5.47-25.81,5.47-33.53,0-44.48-19-44.48-45.81v-90.36h33.15l-.07,23.3h28.44l-7.14,29.28h-21.3v40.68c0,11.41,6.25,13.86,14.08,13.86,2.46,0,3.65.8,9.68-1.66l13.44,25.24Z"/>
          <path class="cls-3" d="M820.07,563.7c-6,7.23-14.64,8.62-20.21,8.63-10.72.01-24.15-5.11-25.74-22.31l80.47-.1c.23-2.47.67-4.48.66-9.84-.05-39.79-25.33-57.64-55.06-57.6-31.52.04-60.11,19.98-60.06,58.19.05,36.43,26.01,58.08,59.31,58.04,19.99-.03,39.26-7.95,50.22-24.52l-29.6-10.48ZM799.33,508.85c9.84,0,21.47,4.89,22.38,20.09l-47.61.07c2.44-14.77,14.73-20.14,25.23-20.16Z"/>
          <path class="cls-3" d="M406.69,483.51c-33.53,0-61.02,23.69-61.02,58.12v91.3h32.86v-39.37c8.44,3.98,18.01,6.17,28.16,6.17,33.53,0,60.8-23.69,60.8-58.11s-27.27-58.12-60.8-58.12ZM406.69,570.69c-19.22,0-27.94-15.43-27.94-29.29s9.39-28.61,27.94-28.61,27.94,15.19,27.94,28.83-9.16,29.06-27.94,29.06Z"/>
          <path class="cls-3" d="M629.62,485.75v5.61c-5.92-5.02-14.13-7.85-25.58-7.85-33.53,0-61.02,23.69-61.02,58.12s27.49,58.11,61.02,58.11c11.45,0,19.66-2.82,25.58-7.82v5.59h32.03v-111.76h-32.03ZM604.04,570.69c-19.22,0-27.94-15.43-27.94-29.29s9.39-28.61,27.94-28.61,26.18,15.19,26.18,28.83-7.4,29.06-26.18,29.06Z"/>
          <path class="cls-3" d="M744.55,486.7h-29.48c-26.33,0-38.61,15.62-38.61,35.95v73.83h33.03v-69.38c0-6.71,5.37-10.42,12.5-10.84h11.31l11.25-29.56Z"/>
        </g>
        <path class="cls-3" d="M884.58,533.05c1.66,3.08,7.2,10.98,10.75,16.85,9.17-5.41,15.13-10.86,16.58-11.96,1.14-7.57,1.4-15.28.71-22.94-2.3-25.59-14.43-48.74-34.15-65.21-19.71-16.46-44.67-24.28-70.25-21.96-4.08.36-8.18,1-12.17,1.87-7.48,1.65-12.21,9.05-10.57,16.53,1.64,7.49,8.84,11.19,16.42,10.08,3.13-.46,5.9-.58,8.81-.85,18.2-1.63,35.95,3.92,49.98,15.62,14.03,11.72,22.66,28.19,24.3,46.39.47,5.21.31,10.42-.4,15.57Z"/>
        <g>
          <path class="cls-3" d="M410.08,679.86c2.85,7.6,8.55,13.58,20.9,13.58s16.42-5.7,16.42-12.89c0-9.1-6.64-10.73-20.35-13.58-12.22-2.58-23.07-6.79-23.07-18.59,0-11.14,9.77-18.33,23.89-18.33,16.15,0,23.75,9.51,26.06,19.55l-7.47,2.71c-1.22-5.15-3.66-15.07-18.59-15.07-9.77,0-15.75,4.21-15.75,10.87,0,9.77,13.17,10.31,23.07,12.48,11.95,2.58,20.36,7.34,20.36,19.68s-8.28,20.37-24.44,20.37c-17.64,0-26.19-9.64-28.77-17.92l7.73-2.85Z"/>
          <path class="cls-3" d="M533.73,665.47c0,22.13-16.15,35.16-35.29,35.16s-35.29-13.03-35.29-35.16,16.15-35.43,35.29-35.43,35.29,13.71,35.29,35.43ZM471.29,665.47c0,18.59,12.76,27.97,27.15,27.97,15.75,0,27.15-10.59,27.15-27.97,0-18.33-12.9-28.24-27.15-28.24-16.42,0-27.15,11.95-27.15,28.24Z"/>
          <path class="cls-3" d="M554.06,699.27h-8.15v-82.8h8.15v82.8Z"/>
          <path class="cls-3" d="M569.34,631.41h8.14v42.62c0,10.18,3.12,19.41,15.47,19.41,16.29,0,23.89-14.12,23.89-23.49v-38.54h8.14v67.86h-6.78l-1.36-12.62h-.27c-6.52,11.26-15.74,13.98-23.49,13.98-14.25,0-23.75-9.64-23.75-25.79v-43.43Z"/>
          <path class="cls-3" d="M664.86,698.46c-2.85,1.09-5.43,1.49-9.5,1.49-8.01,0-16.7-6.37-16.7-16.42v-67.06h8.14v14.94h18.05v7.19h-18.05v44.93c0,6.24,4.61,9.23,9.77,9.23,3.26,0,6.38-.96,8.28-1.77v7.47Z"/>
          <path class="cls-3" d="M676.47,699.27v-67.86h8.15v67.86h-8.15Z"/>
          <path class="cls-3" d="M766.68,665.47c0,22.13-16.16,35.16-35.3,35.16s-35.29-13.03-35.29-35.16,16.15-35.43,35.29-35.43,35.3,13.71,35.3,35.43ZM704.24,665.47c0,18.59,12.76,27.97,27.15,27.97,15.74,0,27.15-10.59,27.15-27.97,0-18.33-12.89-28.24-27.15-28.24-16.42,0-27.15,11.95-27.15,28.24Z"/>
          <path class="cls-3" d="M835.7,699.27h-8.15v-43.3c0-9.1-3.12-18.74-16.15-18.74-16.56,0-24.57,14.12-24.57,23.49v38.55h-8.14v-67.86h6.79l1.35,12.62h.27c6.92-11.13,15.88-13.98,24.16-13.98,14.93,0,24.44,9.64,24.44,25.79v43.44Z"/>
          <path class="cls-3" d="M854.11,679.86c2.85,7.6,8.55,13.58,20.9,13.58s16.42-5.7,16.42-12.89c0-9.1-6.65-10.73-20.36-13.58-12.22-2.58-23.08-6.79-23.08-18.59,0-11.14,9.77-18.33,23.89-18.33,16.16,0,23.76,9.51,26.06,19.55l-7.46,2.71c-1.22-5.15-3.66-15.07-18.6-15.07-9.77,0-15.74,4.21-15.74,10.87,0,9.77,13.16,10.31,23.08,12.48,11.94,2.58,20.36,7.34,20.36,19.68s-8.28,20.37-24.44,20.37c-17.65,0-26.2-9.64-28.78-17.92l7.74-2.85Z"/>
        </g>
      </g>
    </g>
  </g>
</svg>