<?xml version="1.0" encoding="UTF-8"?>
<svg xmlns="http://www.w3.org/2000/svg" version="1.1" viewBox="0 0 1133.86 1133.86">
  <defs>
    <style>
      .cls-1 {
        stroke: #1d1d1b;
        stroke-width: .25px;
      }

      .cls-1, .cls-2, .cls-3, .cls-4 {
        fill: none;
        stroke-miterlimit: 10;
      }

      .cls-2 {
        stroke: #924694;
      }

      .cls-3 {
        stroke: #e52622;
        stroke-width: .5px;
      }

      .cls-4 {
        stroke: #107bc0;
      }
    </style>
  </defs>
  <!-- Generator: Adobe Illustrator 28.7.1, SVG Export Plug-In . SVG Version: 1.2.0 Build 142)  -->
  <g>
    <g id="madera">
      <path class="cls-1" d="M977.57,676.38h-28.29v83.61c0,13.5-11.42,29.72-23.11,36.47l-338.72,197.11c-11.69,6.75-30.78,7.65-42.03,0l-338.72-197.11c-12.13-5.86-22.01-22.97-22.01-36.47v-83.61h-29.06v-228.12h28.18v-83.61c0-13.5,11.42-29.72,23.12-36.47l338.71-197.11c11.69-6.75,30.78-7.64,42.03,0l338.72,197.11c12.14,5.86,22.01,22.97,22.01,36.47v83.61h29.17v228.12Z"/>
    </g>
    <g id="imanes">
      <circle class="cls-3" cx="212.32" cy="369.56" r="15.59"/>
      <circle class="cls-3" cx="920.98" cy="369.56" r="15.59"/>
      <circle class="cls-3" cx="212.32" cy="755.07" r="15.59"/>
      <circle class="cls-3" cx="920.98" cy="755.07" r="15.59"/>
      <circle class="cls-3" cx="566.65" cy="159.8" r="15.59"/>
      <circle class="cls-3" cx="566.65" cy="964.84" r="15.59"/>
    </g>
    <g id="AMTEGA_x5F_Corte">
      <rect class="cls-4" x="217.27" y="494.13" width="105.83" height="151.19"/>
      <rect class="cls-4" x="353.34" y="494.21" width="5.07" height="151.12"/>
    </g>
    <g id="AMTEGA_Grabado">
      <path class="cls-2" d="M401.31,509.49h2.55l12.65,30.1h-4.31l-2.92-7.38h-13.5l-2.97,7.38h-4.14l12.65-30.1ZM407.81,528.64l-5.28-13.22-5.31,13.22h10.59Z"/>
      <path class="cls-2" d="M427.88,524.11l-9.64-14.61h4.62l7.5,11.38,7.42-11.38h4.45l-9.64,14.7,10.16,15.4h-4.62l-8.02-12.17-7.94,12.17h-4.45l10.16-15.48Z"/>
      <path class="cls-2" d="M447.37,509.49h18.49l-1.22,3.66h-13.35v8.9h11.95v3.67h-11.95v10.21h13.53l1.22,3.66h-18.67v-30.1Z"/>
      <path class="cls-2" d="M471.71,509.49h3.32l15.4,21.46v-21.46h3.93v30.1h-2.21l-16.5-22.99v22.99h-3.93v-30.1Z"/>
      <path class="cls-2" d="M506.8,538.31c-2.03-1.38-3.62-3.32-4.58-5.59-1.06-2.4-1.59-5.2-1.59-8.4-.06-2.8.49-5.59,1.61-8.16.97-2.23,2.58-4.12,4.63-5.44,2.1-1.31,4.53-1.97,7.01-1.92,1.8.01,3.58.31,5.28.9,1.71.56,3.31,1.39,4.76,2.47v4.57c-1.6-1.21-3.34-2.24-5.18-3.06-1.52-.7-3.17-1.09-4.84-1.13-1.67-.02-3.31.47-4.69,1.42-1.45,1.03-2.57,2.45-3.23,4.1-.81,1.99-1.2,4.12-1.15,6.27-.05,2.22.33,4.43,1.13,6.5.64,1.68,1.74,3.15,3.18,4.24,1.39.99,3.05,1.51,4.76,1.48,1.67-.04,3.32-.43,4.84-1.13,1.84-.81,3.58-1.84,5.19-3.05v4.58c-1.44,1.07-3.05,1.9-4.76,2.46-1.7.58-3.48.89-5.28.9-2.51.06-4.98-.63-7.09-1.98Z"/>
      <path class="cls-2" d="M530.12,509.49h3.92v30.1h-3.92v-30.1Z"/>
      <path class="cls-2" d="M551.32,509.49h2.53l12.65,30.1h-4.32l-2.92-7.38h-13.48l-2.95,7.38h-4.16l12.65-30.1ZM557.82,528.64l-5.28-13.22-5.32,13.22h10.6Z"/>
      <path class="cls-2" d="M591.06,509.49c3.29,0,5.87.82,7.74,2.47s2.81,3.92,2.81,6.83-.94,5.33-2.81,7.01-4.43,2.52-7.65,2.53h-4.5v11.25h-3.93v-30.08h8.33ZM595.77,523.14c1.17-1.08,1.75-2.53,1.75-4.36s-.6-3.17-1.79-4.19c-1.19-1.01-2.81-1.53-4.84-1.53h-4.23v11.7h4.32c2.03,0,3.63-.54,4.79-1.61h0Z"/>
      <path class="cls-2" d="M614.53,509.49h2.53l12.65,30.1h-4.32l-2.92-7.38h-13.48l-2.95,7.38h-4.16l12.65-30.1ZM621.03,528.64l-5.28-13.22-5.32,13.22h10.6Z"/>
      <path class="cls-2" d="M643.06,509.49c3.17,0,5.65.76,7.46,2.27,1.81,1.52,2.71,3.62,2.71,6.32s-.83,4.65-2.49,6.2-3.91,2.38-6.76,2.53l11.56,12.78h-5.1l-11.21-12.74h-.96v12.74h-3.93v-30.1h8.73ZM647.35,522.05c1.16-.95,1.81-2.38,1.77-3.88.06-1.43-.55-2.81-1.66-3.73-1.11-.91-2.63-1.38-4.58-1.38h-4.62v10.47h4.45c1.92,0,3.47-.49,4.65-1.48h0Z"/>
      <path class="cls-2" d="M669.58,509.49h2.53l12.65,30.1h-4.31l-2.92-7.38h-13.48l-2.95,7.38h-4.14l12.63-30.1ZM676.08,528.64l-5.28-13.22-5.32,13.22h10.6Z"/>
      <path class="cls-2" d="M710.23,509.49h2.53l12.65,30.1h-4.31l-2.92-7.38h-13.48l-2.95,7.38h-4.14l12.63-30.1ZM716.73,528.64l-5.28-13.22-5.32,13.22h10.6Z"/>
      <path class="cls-2" d="M392.06,554.68h3.58l11,22.42,10.99-22.42h3.49v30.1h-3.75v-21.81l-10.12,20.78h-1.31l-10.12-20.72v21.76h-3.76v-30.1Z"/>
      <path class="cls-2" d="M433.79,583.62c-2.1-1.35-3.75-3.29-4.73-5.58-1.11-2.43-1.66-5.28-1.66-8.53-.06-2.82.51-5.62,1.66-8.2,1.01-2.25,2.66-4.15,4.73-5.48,4.43-2.59,9.92-2.59,14.35,0,2.08,1.33,3.72,3.23,4.73,5.48,1.15,2.58,1.71,5.38,1.66,8.2,0,3.26-.55,6.1-1.66,8.53-.99,2.29-2.64,4.23-4.73,5.58-4.43,2.59-9.92,2.59-14.35,0ZM447.83,578.61c1.67-2.14,2.51-5.17,2.51-9.1.05-2.17-.34-4.33-1.16-6.35-.67-1.66-1.81-3.09-3.29-4.1-3.03-1.89-6.87-1.89-9.9,0-1.47,1.02-2.61,2.44-3.27,4.1-.81,2.01-1.21,4.17-1.15,6.35,0,3.93.84,6.97,2.51,9.1s3.96,3.2,6.87,3.21c2.92,0,5.21-1.07,6.88-3.21h0Z"/>
      <path class="cls-2" d="M477.89,556.43c2.15,1.14,3.9,2.92,5.02,5.08,1.18,2.23,1.77,4.9,1.77,8.01,0,3.2-.58,5.95-1.74,8.25-1.06,2.2-2.77,4.03-4.89,5.25-2.23,1.22-4.74,1.84-7.28,1.78h-9.96v-30.11h9.51c2.63-.06,5.24.54,7.58,1.75ZM477.76,578.15c1.81-1.98,2.72-4.86,2.73-8.64,0-3.61-.94-6.37-2.81-8.29-1.88-1.92-4.35-2.88-7.43-2.88h-5.49v22.77h5.75c3.02,0,5.45-.99,7.26-2.96Z"/>
      <path class="cls-2" d="M490.95,554.68h18.5l-1.23,3.67h-13.34v8.9h11.95v3.66h-11.95v10.21h13.52l1.22,3.66h-18.67v-30.1Z"/>
      <path class="cls-2" d="M524.02,554.68c3.17,0,5.66.76,7.46,2.27,1.8,1.51,2.7,3.62,2.7,6.32,0,2.58-.83,4.65-2.49,6.2s-3.91,2.39-6.76,2.53l11.56,12.78h-5.1l-11.21-12.74h-.96v12.74h-3.93v-30.1h8.72ZM528.31,567.24c1.16-.95,1.82-2.38,1.77-3.88.06-1.43-.55-2.81-1.66-3.73-1.11-.91-2.63-1.37-4.58-1.37h-4.62v10.47h4.45c1.92,0,3.47-.49,4.65-1.48h0Z"/>
      <path class="cls-2" d="M541.29,554.68h3.32l15.4,21.46v-21.46h3.93v30.1h-2.21l-16.49-22.99v22.99h-3.95v-30.1Z"/>
      <path class="cls-2" d="M571.95,554.68h3.92v30.1h-3.92v-30.1Z"/>
      <path class="cls-2" d="M581.37,583.37l16.05-25.04h-14.61l-1.18-3.67h21.63v1.42l-16.05,25.04h15.23l1.18,3.66h-22.25v-1.42Z"/>
      <path class="cls-2" d="M618.37,554.68h2.53l12.65,30.1h-4.32l-2.92-7.38h-13.48l-2.95,7.38h-4.16l12.65-30.1ZM624.86,573.83l-5.28-13.22-5.32,13.22h10.61Z"/>
      <path class="cls-2" d="M641.81,583.49c-2.03-1.38-3.62-3.32-4.58-5.59-1.06-2.4-1.59-5.2-1.59-8.4-.06-2.8.49-5.59,1.61-8.16.97-2.23,2.58-4.13,4.63-5.45,2.1-1.31,4.53-1.98,7.01-1.92,1.8,0,3.58.31,5.28.9,1.71.56,3.31,1.39,4.76,2.46v4.58c-1.61-1.21-3.35-2.24-5.19-3.05-1.52-.71-3.17-1.09-4.84-1.14-1.67-.02-3.31.47-4.69,1.42-1.45,1.03-2.57,2.45-3.23,4.1-.81,1.99-1.2,4.12-1.15,6.27-.04,2.21.35,4.41,1.15,6.48.64,1.68,1.75,3.15,3.19,4.23,1.38.99,3.05,1.51,4.75,1.48,1.67-.04,3.32-.43,4.84-1.14,1.84-.81,3.59-1.84,5.19-3.05v4.58c-1.44,1.07-3.05,1.9-4.76,2.46-1.7.58-3.48.89-5.28.9-2.51.07-4.98-.61-7.1-1.96Z"/>
      <path class="cls-2" d="M665.13,554.68h3.92v30.1h-3.92v-30.1Z"/>
      <path class="cls-2" d="M681.73,583.62c-2.1-1.35-3.75-3.29-4.73-5.58-1.11-2.43-1.66-5.28-1.66-8.53-.06-2.82.51-5.62,1.66-8.2,1.01-2.25,2.66-4.15,4.73-5.48,4.43-2.59,9.92-2.59,14.35,0,2.08,1.33,3.72,3.23,4.73,5.48,1.15,2.58,1.71,5.38,1.66,8.2,0,3.26-.55,6.1-1.66,8.53-.99,2.29-2.64,4.23-4.73,5.58-4.43,2.59-9.92,2.59-14.35,0ZM695.77,578.61c1.67-2.14,2.51-5.17,2.51-9.1.05-2.17-.34-4.33-1.15-6.35-.67-1.66-1.8-3.08-3.27-4.1-3.03-1.89-6.87-1.89-9.9,0-1.47,1.02-2.6,2.44-3.27,4.1-.82,2.01-1.21,4.17-1.16,6.35,0,3.93.84,6.97,2.51,9.1s3.96,3.2,6.87,3.21c2.91,0,5.2-1.07,6.87-3.21h0ZM686.72,550.01l3.75-5.73h5.1l-6.2,7.24-2.66-1.51Z"/>
      <path class="cls-2" d="M708.75,554.68h3.32l15.4,21.46v-21.46h3.92v30.1h-2.21l-16.49-22.99v22.99h-3.92l-.02-30.1Z"/>
      <path class="cls-2" d="M400.7,603.53h-10.9l-1.22-3.67h28.19l-1.22,3.67h-10.92v26.44h-3.93v-26.44Z"/>
      <path class="cls-2" d="M421.29,599.86h18.5l-1.22,3.67h-13.35v8.9h11.95v3.67h-11.95v10.21h13.53l1.22,3.67h-18.67v-30.1Z"/>
      <path class="cls-2" d="M449.53,628.68c-2.04-1.38-3.63-3.32-4.58-5.59-1.06-2.39-1.59-5.18-1.59-8.37-.06-2.8.49-5.59,1.62-8.16.96-2.24,2.56-4.15,4.61-5.49,2.11-1.31,4.55-1.98,7.02-1.92,1.8,0,3.58.31,5.28.9,1.71.57,3.32,1.41,4.77,2.5v4.58c-1.61-1.22-3.35-2.24-5.19-3.05-1.52-.71-3.17-1.1-4.84-1.15-1.67-.02-3.31.48-4.69,1.42-1.45,1.03-2.57,2.46-3.23,4.11-.81,1.99-1.21,4.12-1.16,6.27-.05,2.22.33,4.43,1.14,6.5.64,1.68,1.74,3.15,3.18,4.23,1.39.99,3.05,1.51,4.76,1.48,1.67-.05,3.32-.44,4.84-1.14,1.84-.81,3.58-1.84,5.19-3.05v4.58c-2.91,2.13-6.42,3.31-10.03,3.36-2.51.06-4.98-.63-7.09-1.99Z"/>
      <path class="cls-2" d="M472.85,599.86h3.32l15.4,21.46v-21.46h3.93v30.1h-2.21l-16.51-22.99v22.99h-3.93v-30.1Z"/>
      <path class="cls-2" d="M508.16,628.8c-2.1-1.35-3.75-3.29-4.74-5.58-1.11-2.43-1.66-5.27-1.66-8.53-.06-2.82.51-5.62,1.66-8.2,1.01-2.25,2.66-4.15,4.73-5.48,4.43-2.59,9.92-2.59,14.35,0,2.08,1.33,3.72,3.23,4.73,5.48,1.15,2.58,1.72,5.39,1.66,8.22,0,3.25-.55,6.1-1.66,8.53-.99,2.29-2.64,4.23-4.73,5.58-4.43,2.59-9.92,2.59-14.35,0v-.02ZM522.2,623.79c1.67-2.14,2.51-5.17,2.51-9.09.05-2.17-.34-4.33-1.16-6.35-.66-1.66-1.8-3.09-3.27-4.1-3.03-1.89-6.87-1.89-9.9,0-1.47,1.02-2.61,2.44-3.27,4.1-.81,2.02-1.21,4.19-1.15,6.37,0,3.93.84,6.96,2.51,9.09,1.67,2.13,3.96,3.2,6.87,3.21,2.91-.01,5.19-1.09,6.87-3.23Z"/>
      <path class="cls-2" d="M535.18,599.86h3.93v26.44h13.96l1.22,3.67h-19.11v-30.1Z"/>
      <path class="cls-2" d="M562.79,628.8c-2.1-1.35-3.75-3.29-4.73-5.58-1.11-2.43-1.66-5.27-1.66-8.53,0-3.11.55-5.85,1.66-8.2,1.01-2.25,2.66-4.15,4.73-5.48,4.43-2.59,9.92-2.59,14.35,0,2.08,1.33,3.72,3.23,4.73,5.48,1.15,2.59,1.71,5.39,1.64,8.22,0,3.25-.55,6.1-1.66,8.53-.99,2.29-2.64,4.23-4.73,5.58-4.43,2.59-9.92,2.59-14.35,0l.02-.02ZM576.8,623.79c1.67-2.14,2.51-5.17,2.51-9.09.05-2.17-.34-4.33-1.15-6.35-.67-1.66-1.8-3.08-3.27-4.1-3.03-1.89-6.87-1.89-9.9,0-1.47,1.02-2.61,2.44-3.27,4.1-.81,2.02-1.19,4.19-1.13,6.37,0,3.93.84,6.96,2.51,9.09,1.67,2.13,3.96,3.2,6.87,3.21,2.9-.01,5.18-1.09,6.85-3.23ZM567.75,595.19l3.75-5.71h5.1l-6.2,7.24-2.66-1.53Z"/>
      <path class="cls-2" d="M595.95,614.48l-9.64-14.62h4.62l7.5,11.39,7.42-11.39h4.45l-9.64,14.7,10.17,15.4h-4.62l-8.02-12.17-7.94,12.17h-4.45l10.16-15.48Z"/>
      <path class="cls-2" d="M615.45,599.86h3.92v30.1h-3.92v-30.1Z"/>
      <path class="cls-2" d="M631.82,628.68c-2.04-1.38-3.63-3.32-4.58-5.59-1.06-2.4-1.59-5.19-1.59-8.39-.06-2.8.49-5.59,1.62-8.16.97-2.24,2.58-4.14,4.62-5.47,2.1-1.31,4.53-1.97,7.01-1.92,1.8,0,3.58.31,5.28.9,1.71.56,3.31,1.39,4.76,2.47v4.58c-1.61-1.22-3.35-2.24-5.19-3.05-1.52-.71-3.17-1.09-4.84-1.14-1.67-.02-3.31.48-4.69,1.42-1.44,1.04-2.55,2.47-3.19,4.13-.81,1.99-1.2,4.12-1.15,6.27-.05,2.22.33,4.43,1.13,6.5.64,1.68,1.75,3.15,3.19,4.23,1.38.99,3.05,1.51,4.75,1.48,1.67-.04,3.32-.43,4.84-1.14,1.84-.81,3.59-1.84,5.19-3.05v4.58c-1.44,1.07-3.05,1.9-4.76,2.46-1.7.59-3.48.89-5.28.9-2.52.06-4.99-.63-7.11-2Z"/>
      <path class="cls-2" d="M664.83,599.86h2.53l12.65,30.1h-4.32l-2.92-7.38h-13.48l-2.95,7.38h-4.14l12.64-30.1ZM671.32,619.01l-5.28-13.21-5.32,13.21h10.61Z"/>
      <path class="cls-2" d="M713.31,601.61c2.15,1.14,3.9,2.92,5.02,5.08,1.18,2.23,1.77,4.9,1.77,8.01,0,3.2-.58,5.94-1.74,8.25-1.07,2.19-2.77,4.02-4.89,5.23-2.23,1.23-4.74,1.84-7.28,1.79h-9.96v-30.1h9.51c2.63-.06,5.24.54,7.58,1.75ZM713.18,623.33c1.82-1.97,2.73-4.85,2.73-8.64s-.94-6.37-2.82-8.29-4.36-2.88-7.43-2.88h-5.5v22.77h5.76c3.02,0,5.44-.99,7.26-2.96h0Z"/>
      <path class="cls-2" d="M726.37,599.86h18.5l-1.22,3.67h-13.35v8.9h11.95v3.67h-11.95v10.21h13.52l1.22,3.67h-18.67v-30.1Z"/>
      <path class="cls-2" d="M766.97,628.8c-2.09-1.33-3.74-3.26-4.73-5.53-1.11-2.4-1.66-5.23-1.66-8.48-.06-2.84.57-5.66,1.84-8.2,1.16-2.29,2.97-4.19,5.19-5.47,2.36-1.33,5.04-2,7.74-1.94,1.78.02,3.54.31,5.24.86,1.78.53,3.5,1.28,5.1,2.21v4.54c-1.76-1.11-3.63-2.05-5.58-2.8-1.84-.69-3.45-1.05-4.76-1.05-1.93-.04-3.84.48-5.49,1.48-1.62,1.02-2.92,2.47-3.75,4.19-.93,1.93-1.39,4.05-1.35,6.2-.05,2.22.35,4.42,1.18,6.48.67,1.71,1.83,3.18,3.32,4.25,1.45.99,3.17,1.51,4.93,1.48,2.65,0,4.84-.79,6.56-2.38,1.73-1.59,2.71-3.77,2.95-6.57h-8.42l-1.18-3.66h13.48c.18.9.27,1.82.26,2.75.05,2.46-.53,4.89-1.68,7.07-1.1,2.04-2.76,3.71-4.79,4.82-2.21,1.19-4.69,1.78-7.2,1.73-2.54.06-5.04-.62-7.2-1.94Z"/>
      <path class="cls-2" d="M803.28,599.86h2.52l12.65,30.1h-4.32l-2.92-7.38h-13.48l-2.95,7.38h-4.14l12.64-30.1ZM809.78,619.01l-5.28-13.21-5.34,13.21h10.62Z"/>
      <path class="cls-2" d="M823.08,599.86h3.93v26.44h13.96l1.22,3.67h-19.11v-30.1Z"/>
      <path class="cls-2" d="M846.99,599.86h3.93v30.1h-3.93v-30.1Z"/>
      <path class="cls-2" d="M863.36,628.68c-2.04-1.38-3.63-3.32-4.58-5.59-1.06-2.4-1.59-5.19-1.59-8.39-.06-2.8.49-5.59,1.61-8.16.97-2.24,2.58-4.14,4.63-5.47,2.1-1.31,4.53-1.97,7.01-1.92,1.8,0,3.58.31,5.28.9,1.71.56,3.31,1.39,4.76,2.47v4.58c-1.61-1.22-3.35-2.24-5.19-3.05-1.52-.71-3.17-1.09-4.84-1.14-1.67-.02-3.31.48-4.69,1.42-1.45,1.03-2.57,2.45-3.23,4.1-.81,1.99-1.2,4.12-1.15,6.27-.05,2.22.33,4.43,1.13,6.5.64,1.68,1.75,3.15,3.19,4.23,1.38.99,3.05,1.51,4.75,1.48,1.67-.04,3.32-.43,4.84-1.14,1.84-.81,3.59-1.84,5.19-3.05v4.58c-1.44,1.07-3.05,1.9-4.76,2.46-1.7.59-3.48.89-5.28.9-2.5.06-4.97-.62-7.08-1.97Z"/>
      <path class="cls-2" d="M886.68,599.86h3.93v30.1h-3.92v-30.1Z"/>
      <path class="cls-2" d="M907.88,599.86h2.53l12.66,30.1h-4.32l-2.92-7.38h-13.48l-2.95,7.38h-4.14l12.63-30.1ZM914.38,619.01l-5.28-13.21-5.32,13.21h10.6Z"/>
    </g>
  </g>
</svg>