<?xml version="1.0" encoding="UTF-8"?>
<svg xmlns="http://www.w3.org/2000/svg" version="1.1" viewBox="0 0 5811 2834.6">
  <defs>
    <style>
      .cls-1 {
        fill: #c2c1c1;
      }

      .cls-1, .cls-2 {
        stroke: #1d1d1b;
        stroke-miterlimit: 10;
      }

      .cls-2 {
        fill: #fff;
      }
    </style>
  </defs>
  <!-- Generator: Adobe Illustrator 28.7.1, SVG Export Plug-In . SVG Version: 1.2.0 Build 142)  -->
  <g>
    <g id="Capa_1_copia">
      <path class="cls-1" d="M1024.9,2815.8c-18.6,0-37.2-4.8-53.9-14.4l-411-237.3c-33.3-19.2-53.9-54.8-53.9-93.3v-474.6c0-4.8.3-9.4.9-14.1-1.7-.9-3.4-1.8-5.1-2.8l-411-237.3c-33.3-19.2-53.9-54.8-53.9-93.3v-474.6c0-38.5,20.5-74.1,53.9-93.3l411-237.3c1.4-.8,2.8-1.6,4.2-2.3,0-.9,0-1.8,0-2.7v-474.6c0-38.5,20.5-74,53.9-93.3L971,33.3c16.7-9.6,35.3-14.4,53.9-14.4h3758.3c18.6,0,37.2,4.8,53.9,14.4l411,237.3c33.3,19.2,53.9,54.8,53.9,93.3v474.6c0,.4,0,.8,0,1.2,2.4,1.2,4.8,2.4,7.2,3.8l411,237.3c33.3,19.2,53.9,54.8,53.9,93.3v474.6c0,38.5-20.5,74-53.9,93.3l-411,237.3c-2.6,1.5-5.2,2.9-7.9,4.2.5,4.2.8,8.4.8,12.7v474.6c0,38.5-20.5,74.1-53.9,93.3l-411,237.3c-16.7,9.6-35.3,14.4-53.9,14.4H1024.9Z"/>
    </g>
    <g id="Capa_2_copia">
      <rect class="cls-2" x="704.6" y="414.1" width="637.8" height="374.2"/>
      <circle class="cls-2" cx="1023.5" cy="955.1" r="8.5"/>
      <circle class="cls-2" cx="1023.5" cy="247.3" r="8.5"/>
      <rect class="cls-2" x="1121.7" y="275.2" width="45.4" height="51"/>
      <rect class="cls-2" x="1647.9" y="414.1" width="637.8" height="374.2"/>
      <circle class="cls-2" cx="1966.8" cy="955.1" r="8.5"/>
      <circle class="cls-2" cx="1966.8" cy="247.3" r="8.5"/>
      <rect class="cls-2" x="2065.1" y="275.2" width="45.4" height="51"/>
      <rect class="cls-2" x="2591.3" y="414.1" width="637.8" height="374.2"/>
      <circle class="cls-2" cx="2910.2" cy="955.1" r="8.5"/>
      <circle class="cls-2" cx="2910.2" cy="247.3" r="8.5"/>
      <rect class="cls-2" x="3008.5" y="275.2" width="45.4" height="51"/>
      <rect class="cls-2" x="3526.2" y="414.1" width="637.8" height="374.2"/>
      <circle class="cls-2" cx="3845.1" cy="955.1" r="8.5"/>
      <circle class="cls-2" cx="3845.1" cy="247.3" r="8.5"/>
      <rect class="cls-2" x="3943.4" y="275.2" width="45.4" height="51"/>
      <rect class="cls-2" x="4464.3" y="414.1" width="637.8" height="374.2"/>
      <circle class="cls-2" cx="4783.2" cy="955.1" r="8.5"/>
      <circle class="cls-2" cx="4783.2" cy="247.3" r="8.5"/>
      <rect class="cls-2" x="4881.4" y="275.2" width="45.4" height="51"/>
      <rect class="cls-2" x="704.6" y="2046.4" width="637.8" height="374.2"/>
      <circle class="cls-2" cx="1023.5" cy="2587.3" r="8.5"/>
      <circle class="cls-2" cx="1023.5" cy="1879.6" r="8.5"/>
      <rect class="cls-2" x="1121.7" y="1907.5" width="45.4" height="51"/>
      <rect class="cls-2" x="1647.9" y="2046.4" width="637.8" height="374.2"/>
      <circle class="cls-2" cx="1966.8" cy="2587.3" r="8.5"/>
      <circle class="cls-2" cx="1966.8" cy="1879.6" r="8.5"/>
      <rect class="cls-2" x="2065.1" y="1907.5" width="45.4" height="51"/>
      <rect class="cls-2" x="2591.3" y="2046.4" width="637.8" height="374.2"/>
      <circle class="cls-2" cx="2910.2" cy="2587.3" r="8.5"/>
      <circle class="cls-2" cx="2910.2" cy="1879.6" r="8.5"/>
      <rect class="cls-2" x="3008.5" y="1907.5" width="45.4" height="51"/>
      <rect class="cls-2" x="3526.2" y="2046.4" width="637.8" height="374.2"/>
      <circle class="cls-2" cx="3845.1" cy="2587.3" r="8.5"/>
      <circle class="cls-2" cx="3845.1" cy="1879.6" r="8.5"/>
      <rect class="cls-2" x="3943.4" y="1907.5" width="45.4" height="51"/>
      <rect class="cls-2" x="4464.3" y="2046.4" width="637.8" height="374.2"/>
      <circle class="cls-2" cx="4783.2" cy="2587.3" r="8.5"/>
      <circle class="cls-2" cx="4783.2" cy="1879.6" r="8.5"/>
      <rect class="cls-2" x="4881.4" y="1907.5" width="45.4" height="51"/>
      <rect class="cls-2" x="1178" y="1224.3" width="637.8" height="374.2"/>
      <circle class="cls-2" cx="1496.9" cy="1765.3" r="8.5"/>
      <circle class="cls-2" cx="1496.9" cy="1057.6" r="8.5"/>
      <rect class="cls-2" x="1595.2" y="1085.4" width="45.4" height="51"/>
      <rect class="cls-2" x="237" y="1224.3" width="637.8" height="374.2"/>
      <circle class="cls-2" cx="555.9" cy="1765.3" r="8.5"/>
      <circle class="cls-2" cx="555.9" cy="1057.6" r="8.5"/>
      <rect class="cls-2" x="654.1" y="1085.4" width="45.4" height="51"/>
      <rect class="cls-2" x="2121.3" y="1224.3" width="637.8" height="374.2"/>
      <circle class="cls-2" cx="2440.2" cy="1765.3" r="8.5"/>
      <circle class="cls-2" cx="2440.2" cy="1057.6" r="8.5"/>
      <rect class="cls-2" x="2538.5" y="1085.4" width="45.4" height="51"/>
      <rect class="cls-2" x="3064.7" y="1224.3" width="637.8" height="374.2"/>
      <circle class="cls-2" cx="3383.6" cy="1765.3" r="8.5"/>
      <circle class="cls-2" cx="3383.6" cy="1057.6" r="8.5"/>
      <rect class="cls-2" x="3481.9" y="1085.4" width="45.4" height="51"/>
      <rect class="cls-2" x="3999.6" y="1224.3" width="637.8" height="374.2"/>
      <circle class="cls-2" cx="4318.5" cy="1765.3" r="8.5"/>
      <circle class="cls-2" cx="4318.5" cy="1057.6" r="8.5"/>
      <rect class="cls-2" x="4416.8" y="1085.4" width="45.4" height="51"/>
      <rect class="cls-2" x="4937.7" y="1224.3" width="637.8" height="374.2"/>
      <circle class="cls-2" cx="5256.6" cy="1765.3" r="8.5"/>
      <circle class="cls-2" cx="5256.6" cy="1057.6" r="8.5"/>
      <rect class="cls-2" x="5354.8" y="1085.4" width="45.4" height="51"/>
    </g>
  </g>
</svg>