<?xml version="1.0" standalone="no"?>
 <!DOCTYPE svg PUBLIC "-//W3C//DTD SVG 1.1//EN" 
 "http://www.w3.org/Graphics/SVG/1.1/DTD/svg11.dtd"> 
<svg
  xmlns:svg="http://www.w3.org/2000/svg"
  xmlns="http://www.w3.org/2000/svg"
  xmlns:xlink="http://www.w3.org/1999/xlink"
  version="1.1"
  width="45.0850mm" height="32.6898mm" viewBox="0.0000 0.0000 45.0850 32.6898">
<title>SVG Image created as Master-ESP32C-F_Cu.svg date 2024/05/03 16:33:36 </title>
  <desc>Image generated by PCBNEW </desc>
<g style="fill:#000000; fill-opacity:1.0000;stroke:#000000; stroke-opacity:1.0000;
stroke-linecap:round; stroke-linejoin:round;"
 transform="translate(0 0) scale(1 1)">
</g>
<g style="fill:none; 
stroke:#000000; stroke-width:0.3000; stroke-opacity:1; 
stroke-linecap:round; stroke-linejoin:round;">
<text x="5.5500" y="4.5500"
textLength="4.6905" font-size="2.6667" lengthAdjust="spacingAndGlyphs"
text-anchor="start" opacity="0">A+</text>
<g class="stroked-text"><desc>A+</desc>
<path d="M6.1283 3.7182
L7.0807 3.7182
" />
<path d="M5.9378 4.2896
L6.6045 2.2896
" />
<path d="M6.6045 2.2896
L7.2712 4.2896
" />
<path d="M7.9378 3.5277
L9.4617 3.5277
" />
<path d="M8.6997 4.2896
L8.6997 2.7658
" />
</g><text x="6.0500" y="30.8000"
textLength="4.9762" font-size="2.6667" lengthAdjust="spacingAndGlyphs"
text-anchor="start" opacity="0">B+</text>
<g class="stroked-text"><desc>B+</desc>
<path d="M7.3902 29.4920
L7.6759 29.5873
" />
<path d="M7.6759 29.5873
L7.7712 29.6825
" />
<path d="M7.7712 29.6825
L7.8664 29.8730
" />
<path d="M7.8664 29.8730
L7.8664 30.1587
" />
<path d="M7.8664 30.1587
L7.7712 30.3492
" />
<path d="M7.7712 30.3492
L7.6759 30.4444
" />
<path d="M7.6759 30.4444
L7.4855 30.5396
" />
<path d="M7.4855 30.5396
L6.7236 30.5396
" />
<path d="M6.7236 30.5396
L6.7236 28.5396
" />
<path d="M6.7236 28.5396
L7.3902 28.5396
" />
<path d="M7.3902 28.5396
L7.5807 28.6349
" />
<path d="M7.5807 28.6349
L7.6759 28.7301
" />
<path d="M7.6759 28.7301
L7.7712 28.9206
" />
<path d="M7.7712 28.9206
L7.7712 29.1111
" />
<path d="M7.7712 29.1111
L7.6759 29.3015
" />
<path d="M7.6759 29.3015
L7.5807 29.3968
" />
<path d="M7.5807 29.3968
L7.3902 29.4920
" />
<path d="M7.3902 29.4920
L6.7236 29.4920
" />
<path d="M8.7236 29.7777
L10.2474 29.7777
" />
<path d="M9.4855 30.5396
L9.4855 29.0158
" />
</g></g>
<g style="fill:none; 
stroke:#000000; stroke-width:0.4000; stroke-opacity:1; 
stroke-linecap:round; stroke-linejoin:round;">
<text x="37.8000" y="2.8000"
textLength="6.7467" font-size="2.1333" lengthAdjust="spacingAndGlyphs"
text-anchor="start" opacity="0">I2C+</text>
<g class="stroked-text"><desc>I2C+</desc>
<path d="M38.4441 2.5834
L38.4441 0.9834
" />
<path d="M39.1298 1.1358
L39.2060 1.0596
" />
<path d="M39.2060 1.0596
L39.3584 0.9834
" />
<path d="M39.3584 0.9834
L39.7393 0.9834
" />
<path d="M39.7393 0.9834
L39.8917 1.0596
" />
<path d="M39.8917 1.0596
L39.9679 1.1358
" />
<path d="M39.9679 1.1358
L40.0441 1.2882
" />
<path d="M40.0441 1.2882
L40.0441 1.4405
" />
<path d="M40.0441 1.4405
L39.9679 1.6691
" />
<path d="M39.9679 1.6691
L39.0536 2.5834
" />
<path d="M39.0536 2.5834
L40.0441 2.5834
" />
<path d="M41.6441 2.4310
L41.5679 2.5072
" />
<path d="M41.5679 2.5072
L41.3393 2.5834
" />
<path d="M41.3393 2.5834
L41.1870 2.5834
" />
<path d="M41.1870 2.5834
L40.9584 2.5072
" />
<path d="M40.9584 2.5072
L40.8060 2.3548
" />
<path d="M40.8060 2.3548
L40.7298 2.2024
" />
<path d="M40.7298 2.2024
L40.6536 1.8977
" />
<path d="M40.6536 1.8977
L40.6536 1.6691
" />
<path d="M40.6536 1.6691
L40.7298 1.3643
" />
<path d="M40.7298 1.3643
L40.8060 1.2120
" />
<path d="M40.8060 1.2120
L40.9584 1.0596
" />
<path d="M40.9584 1.0596
L41.1870 0.9834
" />
<path d="M41.1870 0.9834
L41.3393 0.9834
" />
<path d="M41.3393 0.9834
L41.5679 1.0596
" />
<path d="M41.5679 1.0596
L41.6441 1.1358
" />
<path d="M42.3298 1.9739
L43.5489 1.9739
" />
<path d="M42.9393 2.5834
L42.9393 1.3643
" />
</g><path style="fill:#000000; fill-opacity:1.0000; stroke:none;fill-rule:evenodd;"
d="M 20.1500,15.4500
18.4500,15.4500
18.4500,14.0500
20.1500,14.0500
Z" /> 
<path style="fill:#000000; fill-opacity:1.0000; stroke:none;fill-rule:evenodd;"
d="M 20.1500,12.0500
18.4500,12.0500
18.4500,10.6500
20.1500,10.6500
Z" /> 
<path style="fill:#000000; fill-opacity:1.0000; stroke:none;fill-rule:evenodd;"
d="M 6.9460,17.5439
5.7439,18.7460
4.7540,17.7561
5.9561,16.5540
Z" /> 
<path style="fill:#000000; fill-opacity:1.0000; stroke:none;fill-rule:evenodd;"
d="M 4.5419,15.1398
3.3398,16.3419
2.3498,15.3519
3.5519,14.1498
Z" /> 
<path style="fill:#000000; fill-opacity:1.0000; stroke:none;fill-rule:evenodd;"
d="M 37.8500,2.9500
37.8500,3.7500
36.6500,3.7500
36.6500,2.9500
Z" /> 
<path style="fill:#000000; fill-opacity:1.0000; stroke:none;fill-rule:evenodd;"
d="M 34.2500,2.9500
34.2500,3.7500
33.0500,3.7500
33.0500,2.9500
Z" /> 
<path style="fill:#000000; fill-opacity:1.0000; stroke:none;fill-rule:evenodd;"
d="M 35.8000,9.3500
34.1000,9.3500
34.1000,7.9500
35.8000,7.9500
Z" /> 
<path style="fill:#000000; fill-opacity:1.0000; stroke:none;fill-rule:evenodd;"
d="M 35.8000,5.9500
34.1000,5.9500
34.1000,4.5500
35.8000,4.5500
Z" /> 
<path style="fill:#000000; fill-opacity:1.0000; stroke:none;fill-rule:evenodd;"
d="M 42.7000,4.6000
42.7000,6.3000
41.3000,6.3000
41.3000,4.6000
Z" /> 
<path style="fill:#000000; fill-opacity:1.0000; stroke:none;fill-rule:evenodd;"
d="M 39.3000,4.6000
39.3000,6.3000
37.9000,6.3000
37.9000,4.6000
Z" /> 
</g>
<g style="fill:#000000; fill-opacity:1.0000; stroke:none;">
<circle cx="39.4900" cy="13.0500" r="0.8000" /> 
<path style="fill:#000000; fill-opacity:1.0000; stroke:none;fill-rule:evenodd;"
d="M 38.6900,10.5500
40.2900,10.5500
40.2900,13.5500
38.6900,13.5500
Z" /> 
</g>
<g style="fill:#000000; fill-opacity:1.0000; stroke:none;">
<circle cx="36.9500" cy="13.0500" r="0.8000" /> 
<path style="fill:#000000; fill-opacity:1.0000; stroke:none;fill-rule:evenodd;"
d="M 36.1500,10.5500
37.7500,10.5500
37.7500,13.5500
36.1500,13.5500
Z" /> 
</g>
<g style="fill:#000000; fill-opacity:1.0000; stroke:none;">
<circle cx="34.4100" cy="13.0500" r="0.8000" /> 
<path style="fill:#000000; fill-opacity:1.0000; stroke:none;fill-rule:evenodd;"
d="M 33.6100,10.5500
35.2100,10.5500
35.2100,13.5500
33.6100,13.5500
Z" /> 
</g>
<g style="fill:#000000; fill-opacity:1.0000; stroke:none;">
<circle cx="31.8700" cy="13.0500" r="0.8000" /> 
<path style="fill:#000000; fill-opacity:1.0000; stroke:none;fill-rule:evenodd;"
d="M 31.0700,10.5500
32.6700,10.5500
32.6700,13.5500
31.0700,13.5500
Z" /> 
</g>
<g style="fill:#000000; fill-opacity:1.0000; stroke:none;">
<circle cx="29.3300" cy="13.0500" r="0.8000" /> 
<path style="fill:#000000; fill-opacity:1.0000; stroke:none;fill-rule:evenodd;"
d="M 28.5300,10.5500
30.1300,10.5500
30.1300,13.5500
28.5300,13.5500
Z" /> 
</g>
<g style="fill:#000000; fill-opacity:1.0000; stroke:none;">
<circle cx="26.7900" cy="13.0500" r="0.8000" /> 
<path style="fill:#000000; fill-opacity:1.0000; stroke:none;fill-rule:evenodd;"
d="M 25.9900,10.5500
27.5900,10.5500
27.5900,13.5500
25.9900,13.5500
Z" /> 
</g>
<g style="fill:#000000; fill-opacity:1.0000; stroke:none;">
<circle cx="24.2500" cy="13.0500" r="0.8000" /> 
<path style="fill:#000000; fill-opacity:1.0000; stroke:none;fill-rule:evenodd;"
d="M 23.4500,10.5500
25.0500,10.5500
25.0500,13.5500
23.4500,13.5500
Z" /> 
</g>
<g style="fill:#000000; fill-opacity:1.0000; stroke:none;">
<circle cx="24.2500" cy="28.2850" r="0.8000" /> 
<path style="fill:#000000; fill-opacity:1.0000; stroke:none;fill-rule:evenodd;"
d="M 23.4500,27.7850
25.0500,27.7850
25.0500,30.7850
23.4500,30.7850
Z" /> 
</g>
<g style="fill:#000000; fill-opacity:1.0000; stroke:none;">
<circle cx="26.7900" cy="28.2850" r="0.8000" /> 
<path style="fill:#000000; fill-opacity:1.0000; stroke:none;fill-rule:evenodd;"
d="M 25.9900,27.7850
27.5900,27.7850
27.5900,30.7850
25.9900,30.7850
Z" /> 
</g>
<g style="fill:#000000; fill-opacity:1.0000; stroke:none;">
<circle cx="29.3300" cy="28.2850" r="0.8000" /> 
<path style="fill:#000000; fill-opacity:1.0000; stroke:none;fill-rule:evenodd;"
d="M 28.5300,27.7850
30.1300,27.7850
30.1300,30.7850
28.5300,30.7850
Z" /> 
</g>
<g style="fill:#000000; fill-opacity:1.0000; stroke:none;">
<circle cx="31.8700" cy="28.2850" r="0.8000" /> 
<path style="fill:#000000; fill-opacity:1.0000; stroke:none;fill-rule:evenodd;"
d="M 31.0700,27.7850
32.6700,27.7850
32.6700,30.7850
31.0700,30.7850
Z" /> 
</g>
<g style="fill:#000000; fill-opacity:1.0000; stroke:none;">
<circle cx="34.4100" cy="28.2850" r="0.8000" /> 
<path style="fill:#000000; fill-opacity:1.0000; stroke:none;fill-rule:evenodd;"
d="M 33.6100,27.7850
35.2100,27.7850
35.2100,30.7850
33.6100,30.7850
Z" /> 
</g>
<g style="fill:#000000; fill-opacity:1.0000; stroke:none;">
<circle cx="36.9500" cy="28.2850" r="0.8000" /> 
<path style="fill:#000000; fill-opacity:1.0000; stroke:none;fill-rule:evenodd;"
d="M 36.1500,27.7850
37.7500,27.7850
37.7500,30.7850
36.1500,30.7850
Z" /> 
</g>
<g style="fill:#000000; fill-opacity:1.0000; stroke:none;">
<circle cx="39.4900" cy="28.2850" r="0.8000" /> 
<path style="fill:#000000; fill-opacity:1.0000; stroke:none;fill-rule:evenodd;"
d="M 38.6900,27.7850
40.2900,27.7850
40.2900,30.7850
38.6900,30.7850
Z" /> 
<path style="fill:#000000; fill-opacity:1.0000; stroke:none;fill-rule:evenodd;"
d="M 33.5700,14.8650
34.7700,14.8650
34.7700,17.2650
33.5700,17.2650
Z" /> 
<path style="fill:#000000; fill-opacity:1.0000; stroke:none;fill-rule:evenodd;"
d="M 31.4700,14.8650
32.6700,14.8650
32.6700,17.2650
31.4700,17.2650
Z" /> 
</g>
<g style="fill:#000000; fill-opacity:1.0000; stroke:none;">
<circle cx="40.5500" cy="19.3950" r="0.6000" /> 
</g>
<g style="fill:#000000; fill-opacity:1.0000; stroke:none;">
<circle cx="38.0100" cy="19.3950" r="0.6000" /> 
</g>
<g style="fill:#000000; fill-opacity:1.0000; stroke:none;">
<circle cx="35.4700" cy="19.3950" r="0.6000" /> 
</g>
<g style="fill:#000000; fill-opacity:1.0000; stroke:none;">
<circle cx="35.4700" cy="21.9350" r="0.6000" /> 
</g>
<g style="fill:#000000; fill-opacity:1.0000; stroke:none;">
<circle cx="38.0100" cy="21.9350" r="0.6000" /> 
</g>
<g style="fill:#000000; fill-opacity:1.0000; stroke:none;">
<circle cx="40.5500" cy="21.9350" r="0.6000" /> 
<path style="fill:#000000; fill-opacity:1.0000; stroke:none;fill-rule:evenodd;"
d="M 29.6200,21.6650
32.6200,21.6650
32.6200,24.6650
29.6200,24.6650
Z" /> 
<path style="fill:#000000; fill-opacity:1.0000; stroke:none;fill-rule:evenodd;"
d="M 9.8000,11.2900
9.8000,12.9900
7.3000,12.9900
7.3000,11.2900
Z" /> 
<path style="fill:#000000; fill-opacity:1.0000; stroke:none;fill-rule:evenodd;"
d="M 9.8000,8.7500
9.8000,10.4500
7.3000,10.4500
7.3000,8.7500
Z" /> 
<path style="fill:#000000; fill-opacity:1.0000; stroke:none;fill-rule:evenodd;"
d="M 9.8000,6.2100
9.8000,7.9100
7.3000,7.9100
7.3000,6.2100
Z" /> 
<path style="fill:#000000; fill-opacity:1.0000; stroke:none;fill-rule:evenodd;"
d="M 14.6500,13.4125
12.9500,13.4125
12.9500,12.0125
14.6500,12.0125
Z" /> 
<path style="fill:#000000; fill-opacity:1.0000; stroke:none;fill-rule:evenodd;"
d="M 14.6500,10.0125
12.9500,10.0125
12.9500,8.6125
14.6500,8.6125
Z" /> 
<path style="fill:#000000; fill-opacity:1.0000; stroke:none;fill-rule:evenodd;"
d="M 42.7000,7.4500
42.7000,9.1500
41.3000,9.1500
41.3000,7.4500
Z" /> 
<path style="fill:#000000; fill-opacity:1.0000; stroke:none;fill-rule:evenodd;"
d="M 39.3000,7.4500
39.3000,9.1500
37.9000,9.1500
37.9000,7.4500
Z" /> 
<path style="fill:#000000; fill-opacity:1.0000; stroke:none;fill-rule:evenodd;"
d="M 9.8000,25.2800
9.8000,26.9800
7.3000,26.9800
7.3000,25.2800
Z" /> 
<path style="fill:#000000; fill-opacity:1.0000; stroke:none;fill-rule:evenodd;"
d="M 9.8000,22.7400
9.8000,24.4400
7.3000,24.4400
7.3000,22.7400
Z" /> 
<path style="fill:#000000; fill-opacity:1.0000; stroke:none;fill-rule:evenodd;"
d="M 9.8000,20.2000
9.8000,21.9000
7.3000,21.9000
7.3000,20.2000
Z" /> 
<path style="fill:#000000; fill-opacity:1.0000; stroke:none;fill-rule:evenodd;"
d="M 23.7250,3.9700
23.7250,2.9700
26.8750,2.9700
26.8750,3.9700
Z" /> 
<path style="fill:#000000; fill-opacity:1.0000; stroke:none;fill-rule:evenodd;"
d="M 28.7750,3.9700
28.7750,2.9700
31.9250,2.9700
31.9250,3.9700
Z" /> 
<path style="fill:#000000; fill-opacity:1.0000; stroke:none;fill-rule:evenodd;"
d="M 23.7250,6.5100
23.7250,5.5100
26.8750,5.5100
26.8750,6.5100
Z" /> 
<path style="fill:#000000; fill-opacity:1.0000; stroke:none;fill-rule:evenodd;"
d="M 28.7750,6.5100
28.7750,5.5100
31.9250,5.5100
31.9250,6.5100
Z" /> 
<path style="fill:#000000; fill-opacity:1.0000; stroke:none;fill-rule:evenodd;"
d="M 23.7250,9.0500
23.7250,8.0500
26.8750,8.0500
26.8750,9.0500
Z" /> 
<path style="fill:#000000; fill-opacity:1.0000; stroke:none;fill-rule:evenodd;"
d="M 28.7750,9.0500
28.7750,8.0500
31.9250,8.0500
31.9250,9.0500
Z" /> 
<path style="fill:#000000; fill-opacity:1.0000; stroke:none;fill-rule:evenodd;"
d="M 16.9500,9.6500
16.9500,7.9500
18.3500,7.9500
18.3500,9.6500
Z" /> 
<path style="fill:#000000; fill-opacity:1.0000; stroke:none;fill-rule:evenodd;"
d="M 20.3500,9.6500
20.3500,7.9500
21.7500,7.9500
21.7500,9.6500
Z" /> 
</g>
<g style="fill:none; 
stroke:#000000; stroke-width:0.8000; stroke-opacity:1; 
stroke-linecap:round; stroke-linejoin:round;">
<path d="M38.0500 26.3000
L38.0100 26.2600
" />
<path d="M38.0100 26.2600
L38.0100 21.9350
" />
<path d="M36.9500 28.2850
L36.9500 27.4000
" />
<path d="M36.9500 27.4000
L38.0500 26.3000
" />
<path d="M36.7000 26.3000
L24.0500 26.3000
" />
<path d="M24.0500 26.3000
L19.3000 21.5500
" />
<path d="M19.3000 21.5500
L19.3000 14.7500
" />
<path d="M21.0500 8.8000
L25.0500 8.8000
" />
<path d="M25.0500 8.8000
L25.3000 8.5500
" />
<path d="M25.3000 6.0100
L30.3500 6.0100
" />
<path d="M38.6000 5.4500
L40.1000 6.9500
" />
<path d="M40.1000 9.1000
L42.6000 11.6000
" />
<path d="M40.1000 6.9500
L40.1000 9.1000
" />
<path d="M42.6000 11.6000
L42.6000 23.5000
" />
<path d="M42.6000 23.5000
L39.8000 26.3000
" />
<path d="M39.8000 26.3000
L36.7000 26.3000
" />
<path d="M30.3500 6.0100
L31.0900 6.7500
" />
<path d="M37.3000 6.7500
L38.6000 5.4500
" />
<path d="M42.0000 8.3000
L42.0000 5.4500
" />
<path d="M31.0900 6.7500
L37.3000 6.7500
" />
<path d="M38.6000 8.3000
L38.6000 9.6000
" />
<path d="M38.6000 9.6000
L39.4900 10.4900
" />
<path d="M39.4900 10.4900
L39.4900 13.0500
" />
<path d="M39.4900 28.2850
L42.0650 28.2850
" />
<path d="M43.8000 4.5625
L43.0375 3.8000
" />
<path d="M37.7000 3.8000
L36.7500 2.8500
" />
<path d="M42.0650 28.2850
L43.8000 26.5500
" />
<path d="M43.8000 26.5500
L43.8000 4.5625
" />
<path d="M43.0375 3.8000
L37.7000 3.8000
" />
<path d="M8.5500 21.0500
L9.3000 21.0500
" />
<path d="M15.6000 14.7500
L19.3000 14.7500
" />
<path d="M9.3000 21.0500
L15.6000 14.7500
" />
<path d="M3.4458 15.2458
L3.4458 10.1142
" />
<path d="M3.4458 10.1142
L6.5000 7.0600
" />
<path d="M6.5000 7.0600
L8.5500 7.0600
" />
<path d="M8.5500 23.5900
L19.5550 23.5900
" />
<path d="M19.5550 23.5900
L24.2500 28.2850
" />
<path d="M8.5500 21.0500
L8.5500 20.3500
" />
<path d="M8.5500 20.3500
L5.8500 17.6500
" />
<path d="M19.3000 11.3500
L19.3000 7.8000
" />
<path d="M19.3000 7.8000
L21.0900 6.0100
" />
<path d="M21.0900 6.0100
L25.3000 6.0100
" />
<path d="M13.8000 12.7125
L14.1375 13.0500
" />
<path d="M14.1375 13.0500
L24.2500 13.0500
" />
<path d="M30.3500 8.5500
L34.8500 8.5500
" />
<path d="M34.8500 8.5500
L34.9500 8.6500
" />
<path d="M29.3300 13.0500
L29.3300 9.5700
" />
<path d="M29.3300 9.5700
L30.3500 8.5500
" />
<path d="M26.7900 13.0500
L26.7900 10.0400
" />
<path d="M26.7900 10.0400
L25.3000 8.5500
" />
<path d="M37.2500 3.3500
L36.0500 2.1500
" />
<path d="M22.9450 2.1500
L20.5500 4.5450
" />
<path d="M36.0500 2.1500
L22.9450 2.1500
" />
<path d="M20.5500 4.5450
L20.5500 4.5500
" />
<path d="M20.5500 4.5500
L17.6500 7.4500
" />
<path d="M17.6500 7.4500
L17.6500 8.8000
" />
<path d="M37.2500 3.3500
L36.7500 3.3500
" />
<path d="M11.2100 12.1400
L12.4375 10.9125
" />
<path d="M2.5500 23.9500
L2.5500 18.4786
" />
<path d="M2.5500 18.4786
L8.5500 12.4786
" />
<path d="M36.7500 3.3500
L35.1500 4.9500
" />
<path d="M8.5500 12.4786
L8.5500 12.1400
" />
<path d="M8.5500 26.1300
L4.7300 26.1300
" />
<path d="M12.4375 10.9125
L15.5375 10.9125
" />
<path d="M8.5500 12.1400
L11.2100 12.1400
" />
<path d="M4.7300 26.1300
L2.5500 23.9500
" />
<path d="M15.5375 10.9125
L17.6500 8.8000
" />
<path d="M35.1500 4.9500
L34.7500 4.9500
" />
<path d="M25.3000 3.4700
L32.3300 3.4700
" />
<path d="M32.4500 3.3500
L33.6500 3.3500
" />
<path d="M32.3300 3.4700
L32.4500 3.3500
" />
</g>
<g style="fill:none; 
stroke:#000000; stroke-width:0.4000; stroke-opacity:1; 
stroke-linecap:round; stroke-linejoin:round;">
<path d="M29.3300 13.0500
L29.4500 12.9300
" />
<path d="M21.2625 8.8000
L21.5125 8.5500
" />
<path d="M13.5500 9.5500
L13.5000 9.6000
" />
<path d="M13.8000 9.5500
L13.5500 9.5500
" />
<path d="M13.5000 9.6000
L8.5500 9.6000
" />
<path d="M14.3750 13.0500
L13.8000 12.4750
" />
</g>
<g style="fill:#FFFFFF; fill-opacity:1.0000; stroke:none;">
<circle cx="39.4900" cy="13.0500" r="0.4000" /> 
</g>
<g style="fill:#FFFFFF; fill-opacity:1.0000; stroke:none;">
<circle cx="36.9500" cy="13.0500" r="0.4000" /> 
</g>
<g style="fill:#FFFFFF; fill-opacity:1.0000; stroke:none;">
<circle cx="34.4100" cy="13.0500" r="0.4000" /> 
</g>
<g style="fill:#FFFFFF; fill-opacity:1.0000; stroke:none;">
<circle cx="31.8700" cy="13.0500" r="0.4000" /> 
</g>
<g style="fill:#FFFFFF; fill-opacity:1.0000; stroke:none;">
<circle cx="29.3300" cy="13.0500" r="0.4000" /> 
</g>
<g style="fill:#FFFFFF; fill-opacity:1.0000; stroke:none;">
<circle cx="26.7900" cy="13.0500" r="0.4000" /> 
</g>
<g style="fill:#FFFFFF; fill-opacity:1.0000; stroke:none;">
<circle cx="24.2500" cy="13.0500" r="0.4000" /> 
</g>
<g style="fill:#FFFFFF; fill-opacity:1.0000; stroke:none;">
<circle cx="24.2500" cy="28.2850" r="0.4000" /> 
</g>
<g style="fill:#FFFFFF; fill-opacity:1.0000; stroke:none;">
<circle cx="26.7900" cy="28.2850" r="0.4000" /> 
</g>
<g style="fill:#FFFFFF; fill-opacity:1.0000; stroke:none;">
<circle cx="29.3300" cy="28.2850" r="0.4000" /> 
</g>
<g style="fill:#FFFFFF; fill-opacity:1.0000; stroke:none;">
<circle cx="31.8700" cy="28.2850" r="0.4000" /> 
</g>
<g style="fill:#FFFFFF; fill-opacity:1.0000; stroke:none;">
<circle cx="34.4100" cy="28.2850" r="0.4000" /> 
</g>
<g style="fill:#FFFFFF; fill-opacity:1.0000; stroke:none;">
<circle cx="36.9500" cy="28.2850" r="0.4000" /> 
</g>
<g style="fill:#FFFFFF; fill-opacity:1.0000; stroke:none;">
<circle cx="39.4900" cy="28.2850" r="0.4000" /> 
</g>
<g style="fill:none; 
stroke:#000000; stroke-width:0.1000; stroke-opacity:1; 
stroke-linecap:round; stroke-linejoin:round;">
<circle cx="13.5500" cy="28.5488" r="1.8000" /> 
<path style="fill:none; 
stroke:#000000; stroke-width:0.1000; stroke-opacity:1; 
stroke-linecap:round; stroke-linejoin:round;fill:none"
d="M 0.0500,0.1605
45.0500,0.1605
45.0500,32.6605
0.0500,32.6605
Z" /> 
<circle cx="13.5500" cy="5.0500" r="1.8000" /> 
</g> 
</svg>
