<?xml version="1.0" encoding="UTF-8"?>
<svg id="Capa_6" data-name="Capa 6" xmlns="http://www.w3.org/2000/svg" version="1.1" viewBox="0 0 1133.86 1133.86">
  <defs>
    <style>
      .cls-1 {
        fill: #fff;
        stroke: #1d1d1b;
        stroke-miterlimit: 10;
      }
    </style>
  </defs>
  <path class="cls-1" d="M410.62,739.98c-.98,0-1.96-.02-2.94-.07-11.43-.54-31.33-3.01-36.19-13.46-7.38-15.92-76.14-128.58-116.47-194.32-6.22-10.13-8.06-22.07-5.19-33.6,2.86-11.53,10.08-21.21,20.33-27.25l205.3-121.07c4.16-2.46,8.89-3.76,13.69-3.76,3.3,0,6.55.6,9.66,1.79l1.76.67c10.83,4.13,20.07,11.32,26.74,20.81l136.24,193.94c2.82,4.02,3.63,9.03,2.22,13.74-1.4,4.71-4.83,8.45-9.4,10.26l-3.8,1.51c-2.24.89-4.6,1.34-7.03,1.34-5.93,0-11.63-2.75-15.24-7.36l-81.93-104.52c-23.41-29.86-58.62-46.99-96.61-46.99-22.51,0-44.6,6.22-63.87,17.99l-54.65,33.39c-21.47,13.11-30.84,38.92-22.81,62.75l8.48,25.13c4.8,14.25,18.16,23.82,33.24,23.82,3.7,0,7.36-.59,10.9-1.75l16.76-5.53c6.88-2.27,12.67-6.97,16.31-13.25l20.9-36.12c7.14-12.35,19.26-20.81,33.24-23.22,5.1-.88,10.41-1.35,15.34-1.35s9.38.48,12.5,1.4c17.47,5.12,24.92,14.84,28.1,22.09,3.94,8.99,3.24,18.02.8,22.97-.77,1.55-4.2,6.47-19.5,18.66-21.09,16.8-30.35,44.58-23.59,70.77l12.48,48.35c1.86,7.22-1.35,14.86-7.82,18.56l-26.93,15.45c-9.41,5.4-20.14,8.26-31.03,8.26ZM484.7,715.5c3.48-6.22,4.49-13.6,2.68-20.62l-12.48-48.36c-5.64-21.86,2.08-45.04,19.68-59.05,12.92-10.31,20.1-17.46,22.6-22.51,3.35-6.77,5.21-19.36-.59-32.54-4.16-9.46-13.65-22.07-35.29-28.41-4.16-1.22-9.59-1.86-15.73-1.86-5.52,0-11.48.52-17.24,1.52-17.3,2.98-32.29,13.45-41.12,28.71l-20.89,36.12c-2.24,3.87-5.81,6.77-10.04,8.17l-16.77,5.52c-2.39.79-4.87,1.19-7.37,1.19-10.19,0-19.22-6.47-22.47-16.1l-8.48-25.13c-6.33-18.79,1.06-39.13,17.97-49.46l54.66-33.39c17.48-10.68,37.52-16.33,57.95-16.33,34.48,0,66.44,15.55,87.69,42.66l81.92,104.51c5.75,7.33,14.79,11.71,24.19,11.71,3.86,0,7.63-.72,11.2-2.13l2.78-1.11,158.57.32c18.8.04,36.55,10.04,46.3,26.11l4.55,7.49c8.4,13.83,10.21,30.54,4.95,45.84-7.53,21.93-28.17,36.67-51.35,36.67h-.71s-337.17.49-337.17.49Z"/>
</svg>