<?xml version="1.0" encoding="UTF-8"?>
<svg id="gradiant_bordes" data-name="gradiant bordes" xmlns="http://www.w3.org/2000/svg" version="1.1" viewBox="0 0 1133.86 1133.86">
  <defs>
    <style>
      .cls-1 {
        fill: none;
        stroke: #1d1d1b;
        stroke-miterlimit: 10;
      }
    </style>
  </defs>
  <path class="cls-1" d="M267.15,707.81c-8.33,0-16.94-.59-24.89-1.71-20.12-2.83-30.35-8.33-31.33-12.24-2.1-8.4-2.27-47.03-.47-103.35.51-15.46,9.25-29.09,22.83-35.59,6.84-3.27,14.23-4.92,21.97-4.92.36,0,.72,0,1.08.01,10.14.2,39.38.31,86.89.31,56.78,0,125.75-.15,161.8-.23,17.91-.04,35.18-6.94,48.63-19.43,9.9-9.19,19.81-13.84,29.46-13.84,19.98,0,68.21,16.02,88.01,22.9,5.31,1.85,10.24,4.89,14.29,8.8,4.6,7.81,11.43,13.73,20.29,17.6,5.24,2.29,11.28,3.89,17.97,4.76,4.21.57,8.83.85,13.74.85,7.54,0,15.89-.68,24.82-2.02,35.38-5.28,76-20.11,103.65-30.89h.69l.38-.39c3.96-1.39,7.11-2.48,9.54-3.24,3.02-.95,6.19-2.17,9.26-3.34l.33-.13c7.26-2.77,14.16-5.26,18.69-5.26,3.27,0,4.39,1.27,5.12,2.63,5.41,10.17,10.01,110.56,9.68,133.68,0,.37-.03,1.52-1.93,3.29-10.57,9.86-55.37,21.61-208.73,21.61-11.56,0-23.66-.07-35.98-.21-119.02-1.33-246.98-8.51-301.62-11.58-1.55-.09-3.03-.13-4.49-.13-17.32,0-34.63,5.84-48.73,16.46-9.18,6.91-18,11.38-26.21,13.32-6.27,1.48-15.06,2.29-24.74,2.29ZM738.75,560.75c-4.22,0-8.28-.29-12.06-.87-12.78-1.95-22.74-7.15-29.61-15.44-.79-.95-1.64-1.91-2.54-2.83-.69-1.3-1.32-2.7-1.88-4.14-5.34-14.14-3.48-37,5.25-64.36,8.03-25.17,21.14-51.91,35.96-73.37,17.36-25.12,31.09-34.07,38.15-34.07,23.45,0,58.52,17.65,93.82,47.21,33.3,27.89,57,58.33,60.38,77.54,1.43,8.14-1.01,12.88-7.92,15.38-7.25,2.63-16.89,6.54-27.09,10.69-8.38,3.4-18.18,7.37-28.5,11.41l-.1.03c-1.91.67-3.97,1.4-6.16,2.18-22.6,8.04-60.43,21.49-96.61,28.5-.51.1-1.04.2-1.59.29-6.74,1.22-13.31,1.83-19.51,1.83Z"/>
</svg>