<?xml version="1.0" encoding="UTF-8"?>
<svg id="Capa_5" data-name="Capa 5" xmlns="http://www.w3.org/2000/svg" version="1.1" viewBox="0 0 1133.86 1133.86">
  <defs>
    <style>
      .cls-1 {
        fill: none;
        stroke: #e83a69;
        stroke-miterlimit: 10;
      }
    </style>
  </defs>
  <path class="cls-1" d="M688.24,777.65l-5.35-.25c-7.28-.33-13.83-1.01-19.47-2.02-8.8-1.58-15.79-3.8-21.35-6.8l-.26-.15c-6.1-3.57-12.12-8.93-17.83-15.9-5.6-6.82-10.79-15.68-15.42-26.34l-36.75-79.88c-14.75-32.71-16.46-44.81-16.46-51.06,0-3.84.33-7.43.98-10.67.68-3.38,1.86-6.78,3.53-10.11,1.62-3.24,3.79-6.62,6.66-10.34,2.75-3.57,6.38-7.61,10.78-12.01l19.89-20.19c15.33-17.03,22.75-34.21,22.75-52.56,0-3.53-.41-7.63-1.22-12.19-.74-4.21-2-8.93-3.74-14.03-.28-.83-.61-1.65-.97-2.44-13.31-29.14-36.18-43.3-69.91-43.3-6.26,0-13.12.87-20.37,2.6l-.15.04c-11.47,2.76-19.48,13-19.48,24.91v328.35c0,7.9-6.43,14.32-14.33,14.32h-99.14c-7.9,0-14.33-6.43-14.33-14.32v-401.57c0-7.9,6.43-14.33,14.33-14.33h184.27c7.1,0,13.49.19,19,.58h.17c20.79.61,38.54,3.12,52.83,7.48,14.76,4.2,28.24,10.16,40.12,17.75,11.96,7.64,22.3,16.77,30.75,27.12,8.46,10.38,15.11,22.04,19.76,34.65,4.63,12.59,7.09,25.92,7.3,39.63.39,12.07-1.32,23.64-5.1,34.45-3.75,10.72-9.42,21.26-16.87,31.33-.91,1.22-3.15,3.85-12.38,13.34-6.62,6.81-15.75,16.03-27.12,27.41-.75.75-1.46,1.54-2.08,2.35-9.48,12.19-11.08,17.9-11.19,20.21v.19c0,6.37,8.99,12.79,14.35,16.06l.13.08c15.11,9.6,27.22,23.74,35.95,42.01l.05.1,54.68,95.28c1.99,4.41,1.63,9.48-.97,13.57-2.64,4.16-7.16,6.64-12.09,6.64h-73.95Z"/>
</svg>