<?xml version="1.0" encoding="UTF-8"?>
<svg id="Capa_8" data-name="Capa 8" xmlns="http://www.w3.org/2000/svg" version="1.1" viewBox="0 0 1133.86 1133.86">
  <defs>
    <style>
      .cls-1 {
        fill: none;
        stroke: #184597;
        stroke-miterlimit: 10;
      }
    </style>
  </defs>
  <path class="cls-1" d="M264.5,725.24c-18.22,0-33.05-14.82-33.05-33.04v-67.29c0-18.22,14.82-33.05,33.05-33.05h600.96c18.22,0,33.04,14.82,33.04,33.05v67.29c0,18.22-14.82,33.04-33.04,33.04H264.5ZM484.31,580.51c-14.97,0-27.16-12.18-27.16-27.15v-180.01c0-14.98,12.18-27.17,27.16-27.17h160.48c14.97,0,27.16,12.19,27.16,27.17v180.01c0,14.97-12.18,27.15-27.16,27.15h-160.48Z"/>
</svg>