<?xml version="1.0" encoding="UTF-8"?>
<svg id="bordes_AINDUSTRIOSA" xmlns="http://www.w3.org/2000/svg" version="1.1" viewBox="0 0 1133.86 1133.86">
  <defs>
    <style>
      .cls-1 {
        fill: none;
        stroke: #1d1d1b;
        stroke-miterlimit: 10;
      }
    </style>
  </defs>
  <path class="cls-1" d="M424.35,778.9c-5.58,0-9.46-1.2-11.23-3.48-1.86-2.4-2.04-6.82-.51-12.76l33-143.94,28.39-123.89c3.23-12.54-2.03-25.62-13.12-32.48l-14.47-8.94c-7.14-4.41-10.34-13.06-7.8-21.05l20.15-63.33c3.11-9.76,11.59-15.82,17.67-15.82l132,.45c15.38,0,18.43,4.53,19.37,8.48l31.93,145.78,57.88,249.43c2.05,7.72,1.75,14.01-.81,17.34-1.71,2.23-4.72,3.36-8.94,3.37l-283.39.83h-.11ZM841.43,680.46c-2.51,0-5.03-.59-7.28-1.71l-.3-.14-82.46-30.82c-1.12-.54-2.24-.99-3.32-1.34l-39.46-21.94-.53-.29-.56-.17c-5.56-1.7-9.85-6.26-11.2-11.91l-18.16-75.95c-1.12-4.67-.15-9.58,2.67-13.48,2.82-3.89,7.19-6.34,11.97-6.74l50.27-4.15c4.06-.34,8.06-1.58,11.56-3.6l37.62-23.6c1.52-.86,3.11-1.45,4.87-1.82l90.24-21.6c.99-.2,2.11-.31,3.22-.31,2.61,0,5.21.62,7.51,1.8l18.37,9.41c4.52,2.31,8.96,12.04,8.96,19.64v165.56c0,8.49-6.37,15.53-14.83,16.37l-67.53,6.72c-.54.05-1.09.08-1.64.08ZM290.78,680.46c-.54,0-1.1-.03-1.64-.08l-67.53-6.72c-8.45-.84-14.83-7.88-14.83-16.37v-165.56c0-7.6,4.44-17.33,8.96-19.64l18.37-9.41c2.31-1.18,4.92-1.81,7.53-1.81,1.05,0,2.11.11,3.16.31l90.28,21.61c1.77.37,3.38.97,4.88,1.82l37.53,23.56.08.04c3.5,2.02,7.5,3.26,11.56,3.6l50.28,4.15c4.79.39,9.15,2.85,11.97,6.74,1.54,2.13,2.56,4.61,2.95,7.19l-19.6,85.5c-1.99,4.16-5.64,7.31-10.03,8.65l-.59.19-39.96,22.22c-1.08.35-2.2.81-3.33,1.34l-82.34,30.78-.34.14-.07.04c-2.29,1.14-4.74,1.71-7.29,1.71Z"/>
  <polygon class="cls-1" points="427.94 532.22 440.36 534.1 427.94 606.01 415.14 603.75 427.94 532.22"/>
  <polygon class="cls-1" points="469.72 540.12 482.52 543.14 469.72 614.67 454.32 611.28 469.72 540.12"/>
  <polygon class="cls-1" points="691.09 553.3 698.99 595.47 712.4 592.44 703.91 551.13 691.09 553.3"/>
</svg>