<?xml version="1.0" encoding="UTF-8"?>
<svg id="Capa_6" data-name="Capa 6" xmlns="http://www.w3.org/2000/svg" version="1.1" viewBox="0 0 1133.86 1133.86">
  <defs>
    <style>
      .cls-1 {
        fill: none;
        stroke: #1d1d1b;
        stroke-miterlimit: 10;
      }
    </style>
  </defs>
  <path class="cls-1" d="M422.57,708.96c-11.78,0-26.18-9.77-26.18-21.17v-48.8c0-9.08,12.18-17.59,22.14-18.18l116.23-6.85c8.87-.52,17.82-.78,26.61-.78,1.89,0,3.78.01,5.67.04l311.27,3.89c17.67.22,32.05,14.78,32.05,32.46v28.88c0,16.83-13.69,30.53-30.53,30.53h-457.27ZM337.46,649.54c-11.2,0-22.38-2.01-33.22-5.96-11.92-4.35-23.27-9.01-27.6-11.33l-.55-.26-.08-.03c-2.62-1.01-25.45-10.05-41.76-24.02-17.46-14.95-24.26-29.26-24.26-51.03v-35.95c0-14.48,5.41-28.31,15.24-38.95,9.83-10.64,23.19-17.12,37.62-18.27l187.11-14.83c11.42-.91,23.06-1.37,34.58-1.37,15.61,0,31.37.84,46.84,2.5l222.04,23.83,60.71,3.35c11.9.66,23.01,6.35,30.5,15.63l8.3,10.28c6.22,7.71,9.77,17.02,10.27,26.92l3.79,75.56-299.82-3.74c-1.93-.03-3.87-.04-5.81-.04-9.03,0-18.2.27-27.28.8l-116.23,6.85c-12.6.75-25.37,8.9-30.43,19.41-5.68,9.42-16.56,15.79-32.34,18.93-5.75,1.14-11.68,1.72-17.63,1.72ZM876.33,565.03l-1.79-35.54c-.62-12.31-5.04-23.89-12.78-33.48l-8.29-10.28c-9.51-11.77-23.62-19-38.71-19.83l-60.35-3.34-26.91-2.89h0c8.72-28.93,35.86-49.13,66-49.13,4.03,0,8.09.36,12.08,1.07,42.68,7.58,73.85,18.89,90.15,32.7,26.88,22.77,29.46,60.39,28.6,80.79-.44,10.39-3.45,20.67-8.7,29.74-3.65,6.28-10.42,10.19-17.69,10.19h-21.63Z"/>
</svg>