<?xml version="1.0" encoding="UTF-8"?>
<svg id="Capa_6" data-name="Capa 6" xmlns="http://www.w3.org/2000/svg" version="1.1" viewBox="0 0 1133.86 1133.86">
  <defs>
    <style>
      .cls-1 {
        fill: none;
        stroke: #1d1d1b;
        stroke-miterlimit: 10;
      }
    </style>
  </defs>
  <path class="cls-1" d="M487.88,564.2c1.77-1.17,3.63-2.23,5.53-3.14l.4-.19h0c6-2.83,12.42-4.35,19.1-4.52l133.65-3.54c15.41-.41,30.79-4.37,44.48-11.46l15.26-7.9c7.51-3.89,15.91-5.94,24.27-5.94,9.24,0,18.39,2.48,26.46,7.16l21.6,12.53c11.52,6.68,24.64,10.5,37.94,11.06l44.21,1.86c18.25.77,32.65,16.25,32.09,34.51l-4.1,132.34c-.28,9.27-7.78,16.52-17.08,16.52l-599.33,6c-4.81,0-14.2-1.72-23.07-13.18-6.05-7.8-9.65-17.37-10.42-27.67l-.69-9.22-.88-35.2c.09-.67.15-1.94.28-5.03.06-1.54.16-3.79.23-4.62,6.6-14.39,21.29-23.67,37.55-23.67,5.77,0,11.4,1.17,16.73,3.47l24.58,10.61c13.7,5.93,28.88,9.06,43.88,9.06,2.09,0,4.2-.06,6.27-.18l65.73-3.79c14.11-.81,25.94-11.06,28.75-24.91l6.27-30.77c2.38-11.66,8.88-21.87,18.36-28.85l1.94-1.35ZM325.75,619.28c-1.37,0-2.76-.14-4.12-.4-6.57-1.29-11.99-5.5-14.88-11.54l-38.28-72.65-26.44-44.36c-3.48-5.85-3.89-12.77-1.13-18.98,2.77-6.22,8.19-10.55,14.87-11.87l15.31-3.03c10.85-2.16,19.46-10.48,21.94-21.2,1.97-8.54,5.63-20.57,10.87-35.75,5.16-14.96,22.66-26.62,52.04-34.67,25.73-7.04,54.26-9.33,68.97-10.06,1.36-.07,2.97-.1,4.78-.1,11.4,0,26.2,1.28,31.57,3.42l28.9,18.32-107.31,71.89c-6.09,4.07-10.13,10.3-11.37,17.55-1.22,7.24.53,14.46,4.94,20.32,4.96,6.59,12.88,10.52,21.2,10.52,5.07,0,9.99-1.44,14.24-4.17l109.32-70.48c3.31,8.82,8.87,26.57,10.57,49.73.63,8.63-3.14,20.8-10.92,35.21-6.5,12.04-15.59,25.28-25.6,37.29-2.22,2.67-4.77,5.04-7.59,7.06-2.07,1.51-4.33,2.84-6.74,3.98-3.17,1.49-6.5,2.58-9.9,3.23l-77.06,10.28-.12.02c-10.12,1.76-19.48,6.34-27.08,13.23l-.29.27-26.95,31.75c-3.83,3.36-8.71,5.21-13.75,5.21ZM397.6,485.32c-4.76,0-9.29-2.25-12.12-6-2.52-3.35-3.52-7.47-2.82-11.6.71-4.14,3.01-7.7,6.49-10.03l129.6-86.82c1.63-1.09,3.5-1.67,5.43-1.67.66,0,1.33.07,1.99.2,2.6.53,4.82,2.03,6.25,4.23l7.31,11.14c1.45,2.21,1.95,4.85,1.4,7.43-.55,2.59-2.08,4.8-4.3,6.22l-131.12,84.52c-2.42,1.55-5.22,2.37-8.12,2.37Z"/>
</svg>