<?xml version="1.0" encoding="UTF-8"?>
<svg id="Capa_6" data-name="Capa 6" xmlns="http://www.w3.org/2000/svg" version="1.1" viewBox="0 0 1133.86 1133.86">
  <defs>
    <style>
      .cls-1 {
        fill: none;
        fill-rule: evenodd;
        stroke: #9f4b96;
        stroke-miterlimit: 10;
      }
    </style>
  </defs>
  <path class="cls-1" d="M256.47,674.3c-27.47,0-49.81-22.35-49.81-49.81v-98.85c0-27.47,22.35-49.81,49.81-49.81h239.26c13.17,0,25.93-3.84,36.91-11.12l15.99-10.6c8.18-5.42,17.7-8.29,27.51-8.29h173.01c12.86,0,25.5,4.38,35.59,12.34l12.15,9.58c12.73,10.04,28.02,15.73,44.21,16.46l35.6,1.61h.13c36.31,0,49.81,8.08,49.81,29.81v78.85c0,27.47-22.35,49.81-49.81,49.81h-465.87c-16.55,0-32.44,6.1-44.74,17.19-9.17,8.26-21.01,12.81-33.35,12.81h-76.41Z"/>
</svg>